<svg width="574" height="545" viewBox="0 0 574 545" fill="none" xmlns="http://www.w3.org/2000/svg">
<path d="M574 286.309C574 365.372 533.49 418.666 481.678 470.477C429.867 522.289 370.654 544.777 291.592 544.777C212.53 544.777 123.634 496.668 71.8214 444.857C20.0103 393.045 0 413.752 0 334.689C0 255.627 33.4281 135.67 85.2396 83.8584C137.051 32.0467 208.629 -4.14986e-06 287.691 -4.14986e-06C366.752 -4.14986e-06 359.221 106.095 411.033 157.907C462.844 209.719 574 207.248 574 286.309Z" fill="url(#paint0_linear)"/>
<path d="M490.705 214.965C495.546 216.637 497.969 219.064 499.642 223.902C501.313 219.064 503.738 216.637 508.579 214.965C503.738 213.294 501.313 210.868 499.642 206.03C497.969 210.868 495.546 213.294 490.705 214.965ZM499.642 233.915C498.721 233.915 497.929 233.256 497.762 232.35C495.555 220.357 494.252 219.053 482.259 216.845C481.351 216.678 480.693 215.887 480.693 214.965C480.693 214.044 481.351 213.254 482.259 213.087C494.252 210.879 495.555 209.575 497.762 197.581C497.929 196.674 498.721 196.016 499.642 196.016C500.564 196.016 501.355 196.674 501.521 197.581C503.73 209.575 505.034 210.879 517.027 213.087C517.932 213.254 518.591 214.044 518.591 214.965C518.591 215.887 517.932 216.678 517.027 216.845C505.034 219.053 503.73 220.357 501.521 232.35C501.355 233.256 500.564 233.915 499.642 233.915Z" fill="#F9B4C0"/>
<path d="M32.8007 191.674C32.4332 191.931 32.2396 192.272 32.1545 192.456C32.0167 192.758 31.7591 193.547 32.3357 194.357L52.7825 223.096C53.3594 223.906 54.1897 223.921 54.5204 223.889C54.8506 223.858 55.6632 223.687 56.0781 222.78L70.7402 190.706C71.1551 189.8 70.7512 189.074 70.5598 188.804C70.3662 188.533 69.8118 187.914 68.8216 188.008L33.7113 191.348C33.3301 191.384 33.0306 191.513 32.8007 191.674ZM57.8156 223.576L57.8229 223.57L57.8156 223.576ZM57.6293 226.693C56.8349 227.247 55.8978 227.597 54.883 227.693C52.82 227.89 50.8707 226.998 49.6687 225.311L29.2219 196.574C28.0204 194.885 27.818 192.752 28.6791 190.869C29.5405 188.983 31.2862 187.742 33.3492 187.544L68.4597 184.204C70.5222 184.008 72.4718 184.899 73.6723 186.588C74.8739 188.276 75.0775 190.409 74.2167 192.295L59.5535 224.37H59.5526C59.1148 225.327 58.4492 226.119 57.6293 226.693Z" fill="#FCDF83"/>
<path d="M109.431 49.1243C117.443 52.0067 120.929 55.4909 123.811 63.504C126.692 55.4898 130.177 52.0067 138.191 49.1243C130.178 46.2419 126.692 42.7576 123.811 34.7435C120.929 42.7576 117.443 46.2419 109.431 49.1243ZM123.811 71.7915C122.958 71.7915 122.209 71.2227 121.982 70.3995C118.324 57.1539 115.779 54.6091 102.535 50.9522C101.711 50.7254 101.142 49.9763 101.142 49.1243C101.142 48.2701 101.711 47.5222 102.535 47.2953C115.779 43.6395 118.324 41.0935 121.982 27.848C122.209 27.0258 122.958 26.456 123.811 26.456C124.663 26.456 125.411 27.0258 125.638 27.848C129.297 41.0935 131.841 43.6384 145.086 47.2953C145.908 47.5222 146.478 48.2701 146.478 49.1243C146.478 49.9763 145.908 50.7254 145.086 50.9522C131.841 54.6102 129.297 57.1539 125.638 70.3995C125.411 71.2227 124.663 71.7915 123.811 71.7915Z" fill="#D1D4E6"/>
<path fill-rule="evenodd" clip-rule="evenodd" d="M440.435 507.87H132.836V305.923L287.824 212.658L440.435 302.068V507.87Z" fill="white"/>
<path d="M136.156 504.551H437.116V303.97L287.848 216.519L136.156 307.799V504.551ZM443.755 511.19H129.517V304.046L287.802 208.799L443.755 300.165V511.19Z" fill="#3B5696"/>
<path fill-rule="evenodd" clip-rule="evenodd" d="M440.289 507.92H132.69V452.597L440.289 451.541V507.92Z" fill="#D3F0F5"/>
<path d="M136.01 504.601H436.97V454.873L136.01 455.904V504.601ZM443.609 511.24H129.371V449.289L443.609 448.209V511.24Z" fill="#3B5696"/>
<path fill-rule="evenodd" clip-rule="evenodd" d="M185.286 492.38V342.319C185.286 337.43 189.249 333.467 194.137 333.467H265.937C270.826 333.467 274.789 337.43 274.789 342.319V492.38H185.286Z" fill="#FCD087"/>
<path d="M188.605 489.06H271.47V342.319C271.47 339.268 268.988 336.786 265.938 336.786H194.138C191.087 336.786 188.605 339.268 188.605 342.319V489.06ZM278.109 495.699H181.966V342.319C181.966 335.608 187.427 330.148 194.138 330.148H265.938C272.648 330.148 278.109 335.608 278.109 342.319V495.699Z" fill="#3B5696"/>
<path fill-rule="evenodd" clip-rule="evenodd" d="M411.664 184.736V271.35L367.615 257.94V184.736H411.664Z" fill="white"/>
<path d="M367.615 181.416H411.664V179.741H367.615V181.416Z" fill="#C9D1D9"/>
<path d="M408.345 204.391L370.935 197.625V188.055H408.345V204.391Z" fill="#DBDAD8"/>
<path d="M370.934 255.481L408.345 266.87V188.055H370.934V255.481ZM414.984 275.831L364.295 260.399V181.416H414.984V275.831Z" fill="#3B5696"/>
<path d="M136.156 318.566V307.8L287.847 216.519L437.116 303.97V316.873L288.437 229.201L136.156 318.566Z" fill="#DBDAD8"/>
<path d="M131.981 321.016L131.916 306.034L132.912 305.425L288.447 212.548L364.294 256.907V260.399L376.747 264.19L440.311 301.365L440.389 318.803L437.116 316.873V303.97L287.848 216.519L136.156 307.8V318.566L131.981 321.016Z" fill="#32497D"/>
<path d="M376.749 264.19L364.295 260.399V256.907L376.749 264.19Z" fill="#32497D"/>
<path fill-rule="evenodd" clip-rule="evenodd" d="M410.397 189.315H368.111C362.824 189.315 358.54 185.031 358.54 179.744V179.738C358.54 174.452 362.824 170.167 368.111 170.167H410.397C415.684 170.167 419.969 174.452 419.969 179.738V179.744C419.969 185.031 415.684 189.315 410.397 189.315Z" fill="#B59994"/>
<path d="M368.111 173.486C364.663 173.486 361.859 176.29 361.859 179.738C361.859 183.192 364.663 185.996 368.111 185.996H410.397C413.844 185.996 416.649 183.192 416.649 179.744C416.649 176.29 413.844 173.486 410.397 173.486H368.111ZM410.397 192.635H368.111C361.003 192.635 355.22 186.852 355.22 179.744C355.22 172.63 361.003 166.847 368.111 166.847H410.397C417.505 166.847 423.288 172.63 423.288 179.738C423.288 186.852 417.505 192.635 410.397 192.635Z" fill="#3B5696"/>
<path fill-rule="evenodd" clip-rule="evenodd" d="M401.653 324.013V401.41C401.653 403.845 399.672 405.836 397.227 405.836H319.852C317.406 405.836 315.426 403.845 315.426 401.41V324.013C315.426 321.567 317.406 319.587 319.852 319.587H397.227C399.672 319.587 401.653 321.567 401.653 324.013Z" fill="#B0E6FA"/>
<path d="M318.74 386.025V376.31L355.217 339.833V349.548L318.74 386.025ZM361.856 342.909V333.194L372.141 322.909H381.856L361.856 342.909Z" fill="#D0F0FC"/>
<path d="M331.21 402.511H319.846C319.237 402.511 318.74 402.016 318.74 401.405V397.057L355.217 360.579V378.504L331.21 402.511ZM361.856 371.865V353.941L392.888 322.909H397.227C397.838 322.909 398.334 323.405 398.334 324.015V335.387L361.856 371.865Z" fill="#D0F0FC"/>
<path d="M319.846 322.908C319.236 322.908 318.739 323.405 318.739 324.015V401.405C318.739 402.016 319.236 402.511 319.846 402.511H397.227C397.838 402.511 398.333 402.016 398.333 401.405V324.015C398.333 323.405 397.838 322.908 397.227 322.908H319.846ZM397.227 409.15H319.846C315.576 409.15 312.102 405.676 312.102 401.405V324.015C312.102 319.745 315.576 316.271 319.846 316.271H397.227C401.497 316.271 404.972 319.745 404.972 324.015V401.405C404.972 405.676 401.497 409.15 397.227 409.15Z" fill="#3B5696"/>
<path d="M355.217 405.831H361.856V319.59H355.217V405.831Z" fill="#3B5696"/>
<path d="M401.653 366.03H315.421V359.391H401.653V366.03Z" fill="#3B5696"/>
<path fill-rule="evenodd" clip-rule="evenodd" d="M122.733 433.786L112.774 451.616L102.816 433.786L92.8579 451.616L82.8996 433.786L72.9414 451.616V507.92H92.8579H112.774H132.691V451.616L122.733 433.786Z" fill="white"/>
<path d="M76.2604 504.601H129.371V452.482L122.732 440.594L115.672 453.235C115.085 454.285 113.977 454.936 112.774 454.936C111.571 454.936 110.463 454.285 109.876 453.235L102.816 440.594L95.7553 453.235C95.1689 454.285 94.0602 454.936 92.8575 454.936C91.6547 454.936 90.5461 454.285 89.9596 453.235L82.8992 440.594L76.2604 452.482V504.601ZM132.69 511.24H72.941C71.1076 511.24 69.6216 509.754 69.6216 507.92V451.616C69.6216 451.051 69.7665 450.493 70.0432 449.997L80.0014 432.168C80.5878 431.118 81.6965 430.467 82.8992 430.467C84.102 430.467 85.2106 431.118 85.7971 432.168L92.8575 444.809L99.9179 432.168C100.504 431.118 101.613 430.467 102.816 430.467C104.018 430.467 105.127 431.118 105.714 432.168L112.774 444.809L119.834 432.168C120.421 431.118 121.529 430.467 122.732 430.467C123.935 430.467 125.044 431.118 125.63 432.168L135.588 449.997C135.865 450.493 136.01 451.051 136.01 451.616V507.92C136.01 509.754 134.524 511.24 132.69 511.24Z" fill="#3B5696"/>
<path d="M93.004 490.167C91.7813 490.167 90.791 489.176 90.791 487.954V452.546C90.791 451.325 91.7813 450.334 93.004 450.334C94.2255 450.334 95.2169 451.325 95.2169 452.546V487.954C95.2169 489.176 94.2255 490.167 93.004 490.167Z" fill="#3B5696"/>
<path d="M112.92 474.676C111.697 474.676 110.707 473.686 110.707 472.463V451.44C110.707 450.218 111.697 449.227 112.92 449.227C114.142 449.227 115.133 450.218 115.133 451.44V472.463C115.133 473.686 114.142 474.676 112.92 474.676Z" fill="#3B5696"/>
<path d="M112.92 511.19C111.697 511.19 110.707 510.2 110.707 508.977V481.315C110.707 480.094 111.697 479.102 112.92 479.102C114.142 479.102 115.133 480.094 115.133 481.315V508.977C115.133 510.2 114.142 511.19 112.92 511.19Z" fill="#3B5696"/>
<path fill-rule="evenodd" clip-rule="evenodd" d="M490.082 433.786L480.124 451.616L470.166 433.786L460.207 451.616L450.249 433.786L440.291 451.616V507.92H460.207H480.124H500.04V451.616L490.082 433.786Z" fill="white"/>
<path d="M443.611 504.601H496.721V452.482L490.082 440.594L483.022 453.235C482.435 454.285 481.327 454.936 480.124 454.936C478.921 454.936 477.813 454.285 477.226 453.235L470.166 440.594L463.105 453.235C462.519 454.285 461.41 454.936 460.208 454.936C459.005 454.936 457.896 454.285 457.31 453.235L450.249 440.594L443.611 452.482V504.601ZM500.041 511.24H440.291C438.458 511.24 436.972 509.754 436.972 507.92V451.616C436.972 451.051 437.117 450.493 437.393 449.997L447.351 432.168C447.938 431.118 449.047 430.467 450.249 430.467C451.452 430.467 452.561 431.118 453.147 432.168L460.208 444.809L467.268 432.168C467.854 431.118 468.963 430.467 470.166 430.467C471.369 430.467 472.477 431.118 473.064 432.168L480.124 444.809L487.184 432.168C487.771 431.118 488.88 430.467 490.082 430.467C491.285 430.467 492.394 431.118 492.98 432.168L502.938 449.997C503.215 450.493 503.36 451.051 503.36 451.616V507.92C503.36 509.754 501.874 511.24 500.041 511.24Z" fill="#3B5696"/>
<path d="M460.354 493.486C459.131 493.486 458.141 492.496 458.141 491.273V451.44C458.141 450.218 459.131 449.227 460.354 449.227C461.575 449.227 462.567 450.218 462.567 451.44V491.273C462.567 492.496 461.575 493.486 460.354 493.486Z" fill="#3B5696"/>
<path d="M481.377 470.25C480.154 470.25 479.164 469.26 479.164 468.037V464.717C479.164 463.496 480.154 462.505 481.377 462.505C482.599 462.505 483.59 463.496 483.59 464.717V468.037C483.59 469.26 482.599 470.25 481.377 470.25Z" fill="#3B5696"/>
<path d="M481.377 511.19C480.154 511.19 479.164 510.2 479.164 508.977V481.315C479.164 480.094 480.154 479.102 481.377 479.102C482.599 479.102 483.59 480.094 483.59 481.315V508.977C483.59 510.2 482.599 511.19 481.377 511.19Z" fill="#3B5696"/>
<path fill-rule="evenodd" clip-rule="evenodd" d="M292.022 507.92H168.098V497.962C168.098 494.906 170.575 492.43 173.63 492.43H286.49C289.545 492.43 292.022 494.906 292.022 497.962V507.92Z" fill="#D0D5DD"/>
<path d="M171.417 504.601H288.703V497.962C288.703 496.741 287.711 495.749 286.49 495.749H173.63C172.41 495.749 171.417 496.741 171.417 497.962V504.601ZM292.023 511.24H168.098C166.264 511.24 164.778 509.754 164.778 507.92V497.962C164.778 493.081 168.749 489.11 173.63 489.11H286.49C291.371 489.11 295.342 493.081 295.342 497.962V507.92C295.342 509.754 293.856 511.24 292.023 511.24Z" fill="#3B5696"/>
<path d="M535.923 494.333C522.479 494.333 511.581 483.434 511.581 469.99V414.667C511.581 401.223 522.479 390.324 535.923 390.324C549.367 390.324 560.266 401.223 560.266 414.667V469.99C560.266 483.434 549.367 494.333 535.923 494.333Z" fill="#8CD592"/>
<path d="M535.924 393.644C524.332 393.644 514.901 403.074 514.901 414.667V469.99C514.901 481.582 524.332 491.013 535.924 491.013C547.515 491.013 556.947 481.582 556.947 469.99V414.667C556.947 403.074 547.515 393.644 535.924 393.644ZM535.924 497.652C520.671 497.652 508.262 485.243 508.262 469.99V414.667C508.262 399.414 520.671 387.005 535.924 387.005C551.177 387.005 563.586 399.414 563.586 414.667V469.99C563.586 485.243 551.177 497.652 535.924 497.652Z" fill="#3B5696"/>
<path d="M535.924 509.823C534.701 509.823 533.711 508.832 533.711 507.61V423.519C533.711 422.296 534.701 421.306 535.924 421.306C537.145 421.306 538.137 422.296 538.137 423.519V507.61C538.137 508.832 537.145 509.823 535.924 509.823Z" fill="#3B5696"/>
<path d="M535.924 483.268C535.382 483.268 534.84 483.071 534.414 482.672C533.521 481.838 533.472 480.437 534.306 479.544L549.797 462.947C550.631 462.051 552.033 462.006 552.924 462.84C553.818 463.674 553.866 465.074 553.032 465.967L537.542 482.564C537.106 483.032 536.515 483.268 535.924 483.268Z" fill="#3B5696"/>
<path d="M535.924 461.138C535.382 461.138 534.84 460.941 534.414 460.543C533.521 459.708 533.472 458.308 534.306 457.415L549.797 440.818C550.631 439.922 552.033 439.876 552.924 440.71C553.818 441.545 553.866 442.944 553.032 443.837L537.542 460.434C537.106 460.902 536.515 461.138 535.924 461.138Z" fill="#3B5696"/>
<path d="M535.924 474.416C535.362 474.416 534.8 474.202 534.368 473.778L520.169 459.764C519.299 458.904 519.29 457.503 520.149 456.633C521.008 455.763 522.409 455.756 523.279 456.613L537.479 470.627C538.348 471.486 538.357 472.888 537.5 473.757C537.066 474.196 536.495 474.416 535.924 474.416Z" fill="#3B5696"/>
<path d="M535.924 448.966C535.362 448.966 534.8 448.753 534.368 448.329L520.169 434.315C519.299 433.455 519.29 432.054 520.149 431.183C521.008 430.314 522.409 430.307 523.279 431.163L537.479 445.178C538.348 446.037 538.357 447.438 537.5 448.308C537.066 448.746 536.495 448.966 535.924 448.966Z" fill="#3B5696"/>
<path d="M473.018 288.485L316.906 198.618L286.966 181.39L257.025 198.618L100.913 288.485C93.7758 292.613 91.3305 301.752 95.4455 308.9C99.5726 316.037 108.713 318.482 115.85 314.366L286.966 215.857L458.08 314.366C465.217 318.482 474.358 316.037 478.485 308.9C482.6 301.752 480.155 292.613 473.018 288.485Z" fill="#F57F92"/>
<path d="M286.966 185.22L258.68 201.495L102.568 291.362C97.0321 294.564 95.1245 301.69 98.3222 307.243C101.524 312.781 108.646 314.687 114.191 311.491L285.309 212.98C286.334 212.39 287.596 212.39 288.621 212.98L459.737 311.489C465.282 314.689 472.406 312.782 475.611 307.238C478.806 301.691 476.899 294.568 471.36 291.361L286.966 185.22ZM108.419 319.679C102.104 319.679 95.9522 316.407 92.5719 310.562C87.5485 301.836 90.5449 290.646 99.2506 285.612L255.368 195.741L285.31 178.513C286.334 177.923 287.596 177.923 288.621 178.513L318.561 195.741L474.674 285.609L474.68 285.612C483.384 290.646 486.382 301.836 481.36 310.556C476.322 319.271 465.136 322.268 456.422 317.241L286.966 219.686L117.505 317.243C114.642 318.895 111.51 319.679 108.419 319.679Z" fill="#3B5696"/>
<path d="M286.637 219.084C284.803 219.084 283.317 217.597 283.317 215.764V184.783C283.317 182.95 284.803 181.464 286.637 181.464C288.47 181.464 289.956 182.95 289.956 184.783V215.764C289.956 217.597 288.47 219.084 286.637 219.084Z" fill="#3B5696"/>
<path d="M403.923 422.671H312.086C307.205 422.671 303.234 418.7 303.234 413.819C303.234 408.939 307.205 404.967 312.086 404.967H312.97C314.263 407.45 316.859 409.15 319.846 409.15H397.227C400.213 409.15 402.81 407.451 404.102 404.97C408.9 405.065 412.775 408.998 412.775 413.819C412.775 418.7 408.804 422.671 403.923 422.671Z" fill="#EBEBEA"/>
<path d="M397.227 409.15H319.846C316.86 409.15 314.263 407.451 312.971 404.968H355.217V405.831H361.856V404.968H403.924C403.983 404.968 404.043 404.969 404.103 404.97C402.811 407.452 400.214 409.15 397.227 409.15Z" fill="#364E87"/>
<path d="M355.217 405.831H361.856V404.968H355.217V405.831Z" fill="#364E87"/>
<path fill-rule="evenodd" clip-rule="evenodd" d="M403.923 414.926H312.086C309.03 414.926 306.554 412.45 306.554 409.394C306.554 406.339 309.03 403.861 312.086 403.861H403.923C406.979 403.861 409.456 406.339 409.456 409.394C409.456 412.45 406.979 414.926 403.923 414.926Z" fill="white"/>
<path d="M312.086 407.181C310.866 407.181 309.873 408.174 309.873 409.394C309.873 410.614 310.866 411.606 312.086 411.606H403.923C405.143 411.606 406.136 410.614 406.136 409.394C406.136 408.174 405.143 407.181 403.923 407.181H312.086ZM403.923 418.245H312.086C307.205 418.245 303.234 414.274 303.234 409.394C303.234 404.513 307.205 400.542 312.086 400.542H403.923C408.804 400.542 412.775 404.513 412.775 409.394C412.775 414.274 408.804 418.245 403.923 418.245Z" fill="#3B5696"/>
<path d="M278.108 352.958V342.319C278.108 338.609 276.44 335.281 273.814 333.048H277.784C283.276 333.048 287.742 337.514 287.742 343.006C287.742 348.389 283.449 352.787 278.108 352.958ZM181.966 352.942C176.782 352.601 172.669 348.275 172.669 343.006C172.669 337.514 177.136 333.048 182.628 333.048H186.26C183.635 335.281 181.966 338.609 181.966 342.319V352.942Z" fill="#EBEBEA"/>
<path d="M271.47 352.964H188.605V342.319C188.605 339.268 191.087 336.786 194.137 336.786H265.937C268.988 336.786 271.47 339.268 271.47 342.319V352.964Z" fill="#E6BD78"/>
<path d="M277.784 352.964H271.47V342.319C271.47 339.268 268.988 336.786 265.938 336.786H194.138C191.087 336.786 188.605 339.268 188.605 342.319V352.964H182.628C182.406 352.964 182.185 352.956 181.966 352.942V342.319C181.966 338.609 183.635 335.282 186.261 333.048H273.814C276.44 335.282 278.109 338.609 278.109 342.319V352.959C278 352.963 277.893 352.964 277.784 352.964Z" fill="#364E87"/>
<path fill-rule="evenodd" clip-rule="evenodd" d="M277.784 345.219H182.628C178.961 345.219 175.989 342.248 175.989 338.58C175.989 334.914 178.961 331.941 182.628 331.941H277.784C281.45 331.941 284.423 334.914 284.423 338.58C284.423 342.248 281.45 345.219 277.784 345.219Z" fill="white"/>
<path d="M182.628 335.261C180.798 335.261 179.308 336.75 179.308 338.58C179.308 340.41 180.798 341.9 182.628 341.9H277.784C279.614 341.9 281.104 340.41 281.104 338.58C281.104 336.75 279.614 335.261 277.784 335.261H182.628ZM277.784 348.538H182.628C177.136 348.538 172.669 344.072 172.669 338.58C172.669 333.089 177.136 328.622 182.628 328.622H277.784C283.275 328.622 287.742 333.089 287.742 338.58C287.742 344.072 283.275 348.538 277.784 348.538Z" fill="#3B5696"/>
<path d="M450.396 104.059H338.642C333.151 104.059 328.684 99.5914 328.684 94.101C328.684 88.6107 333.151 84.1428 338.642 84.1428H377.573C379.408 84.1428 380.893 82.6568 380.893 80.8234C380.893 78.99 379.408 77.504 377.573 77.504H338.642C329.489 77.504 322.045 84.9494 322.045 94.101C322.045 103.253 329.489 110.698 338.642 110.698H367.41H421.627H450.396C455.887 110.698 460.354 115.166 460.354 120.656C460.354 126.147 455.887 130.615 450.396 130.615H442.65H426.798H405.03C395.878 130.615 388.433 138.06 388.433 147.212C388.433 149.045 389.919 150.531 391.753 150.531C393.586 150.531 395.072 149.045 395.072 147.212C395.072 141.721 399.539 137.253 405.03 137.253H426.798H442.65H450.396C459.547 137.253 466.993 129.808 466.993 120.656C466.993 111.505 459.547 104.059 450.396 104.059Z" fill="#3B5696"/>
<path d="M411.669 84.1423H392.859C391.026 84.1423 389.54 82.6563 389.54 80.8229C389.54 78.9895 391.026 77.5035 392.859 77.5035H411.669C413.503 77.5035 414.989 78.9895 414.989 80.8229C414.989 82.6563 413.503 84.1423 411.669 84.1423Z" fill="#3B5696"/>
<path d="M400.604 60.9059H360.772C358.938 60.9059 357.452 59.4199 357.452 57.5865C357.452 55.7531 358.938 54.2671 360.772 54.2671H400.604C402.438 54.2671 403.924 55.7531 403.924 57.5865C403.924 59.4199 402.438 60.9059 400.604 60.9059Z" fill="#3B5696"/>
<path d="M260.081 423.778H243.483C241.65 423.778 240.164 422.292 240.164 420.458C240.164 418.625 241.65 417.139 243.483 417.139H260.081C261.914 417.139 263.4 418.625 263.4 420.458C263.4 422.292 261.914 423.778 260.081 423.778Z" fill="#3B5696"/>
<path d="M550.936 511.24H55.2374C53.4044 511.24 51.918 509.754 51.918 507.92C51.918 506.087 53.4044 504.601 55.2374 504.601H550.936C552.77 504.601 554.256 506.087 554.256 507.92C554.256 509.754 552.77 511.24 550.936 511.24Z" fill="#3B5696"/>
<path d="M40.8539 511.24H26.4698C24.6368 511.24 23.1504 509.754 23.1504 507.92C23.1504 506.087 24.6368 504.601 26.4698 504.601H40.8539C42.6869 504.601 44.1734 506.087 44.1734 507.92C44.1734 509.754 42.6869 511.24 40.8539 511.24Z" fill="#3B5696"/>
<defs>
<linearGradient id="paint0_linear" x1="1.87103e-06" y1="272.389" x2="574" y2="272.389" gradientUnits="userSpaceOnUse">
<stop stop-color="#EB7BB4"/>
<stop offset="1" stop-color="#9E7AEC"/>
</linearGradient>
</defs>
</svg>
