<svg width="48" height="48" viewBox="0 0 48 48" fill="none" xmlns="http://www.w3.org/2000/svg">
<path d="M24 33C23.5858 33 23.25 33.3358 23.25 33.75C23.25 34.1642 23.5858 34.5 24 34.5C24.4142 34.5 24.75 34.1642 24.75 33.75C24.75 33.3358 24.4142 33 24 33V33" stroke="#9080F0" stroke-width="3" stroke-linecap="round" stroke-linejoin="round"/>
<path d="M24 27V12" stroke="#9080F0" stroke-width="3" stroke-linecap="round"/>
<path fill-rule="evenodd" clip-rule="evenodd" d="M2.55989 26.5621C1.1467 25.1472 1.1467 22.855 2.55989 21.4401L21.4399 2.56212C22.1183 1.88208 23.0393 1.49991 23.9999 1.49991C24.9604 1.49991 25.8815 1.88208 26.5599 2.56212L45.4399 21.4401C46.8531 22.855 46.8531 25.1472 45.4399 26.5621L26.5599 45.4401C25.1457 46.8531 22.8541 46.8531 21.4399 45.4401L2.55989 26.5621Z" stroke="#9080F0" stroke-width="3" stroke-linecap="round" stroke-linejoin="round"/>
</svg>
