<svg width="158" height="40" viewBox="0 0 158 40" fill="none" xmlns="http://www.w3.org/2000/svg">
<g clip-path="url(#clip0)">
<path d="M51.304 28.1833C48.8062 28.1833 46.714 27.6469 44.8327 26.7876L45.5052 22.8674C47.4105 23.8868 49.5321 24.586 51.3841 24.586C52.6997 24.586 53.6124 24.0229 53.6124 22.9208C53.6124 21.8747 53.076 21.3917 50.4714 20.3963C46.7647 18.9766 45.1556 17.7677 45.1556 14.7068C45.1556 11.1362 47.9469 9.23083 51.4909 9.23083C53.9059 9.23083 55.4644 9.68717 57.0736 10.4664L56.3744 14.3332C54.7092 13.3672 52.9639 12.8308 51.5416 12.8308C50.1459 12.8308 49.4734 13.4206 49.4734 14.2798C49.4734 15.2192 49.9831 15.6755 52.2914 16.5615C56.3504 18.0372 57.9329 19.4329 57.9329 22.3844C57.9329 26.414 54.9814 28.1833 51.304 28.1833Z" fill="#29304C"/>
<path d="M72.4076 27.4628H68.5141L66.6087 19.9453L64.73 27.4628H60.8098L57.2125 14.6028L61.3995 14.0931L63.1982 22.0135L65.0502 14.2826H68.7009L70.5796 21.9868L72.2981 14.2826H76.0822L72.4076 27.4628Z" fill="#29304C"/>
<path d="M82.4493 27.7057C78.5024 27.7057 75.6843 25.5841 75.6843 20.914C75.6843 16.6176 78.3156 14.0157 81.8862 14.0157C85.9398 14.0157 87.7118 17.0232 87.7118 20.834C87.7118 21.2369 87.6851 21.6666 87.6584 21.8801H79.7113C79.9248 23.9749 81.1603 24.7515 82.959 24.7515C84.408 24.7515 85.8304 24.2151 87.2821 23.3558L87.6851 26.2272C86.2601 27.1399 84.5148 27.7057 82.4493 27.7057ZM79.6819 19.6518H83.8423C83.7089 17.6663 83.0097 16.6443 81.7741 16.6443C80.6213 16.6443 79.818 17.637 79.6819 19.6518Z" fill="#29304C"/>
<path d="M95.1975 27.7057C91.2506 27.7057 88.4326 25.5841 88.4326 20.914C88.4326 16.6176 91.0638 14.0157 94.6344 14.0157C98.688 14.0157 100.46 17.0232 100.46 20.834C100.46 21.2369 100.433 21.6666 100.407 21.8801H92.4595C92.673 23.9749 93.9086 24.7515 95.7072 24.7515C97.1563 24.7515 98.5786 24.2151 100.03 23.3558L100.433 26.2272C99.0109 27.1399 97.2657 27.7057 95.1975 27.7057ZM92.4328 19.6518H96.5932C96.4597 17.6663 95.7606 16.6443 94.525 16.6443C93.3722 16.6443 92.5662 17.637 92.4328 19.6518Z" fill="#29304C"/>
<path d="M129.849 27.5696C128.667 27.5696 127.837 27.3561 127.085 27.1132V31.81L123.031 32.4264V14.2825H126.601L126.871 16.0011C127.784 15.0084 128.966 14.0157 130.655 14.0157C133.366 14.0157 135.408 16.0572 135.408 20.5137C135.405 25.504 132.747 27.5696 129.849 27.5696ZM129.339 17.637C128.454 17.637 127.784 18.1734 127.085 18.9793V23.9723C127.648 24.2418 128.131 24.3752 128.937 24.3752C130.306 24.3752 131.325 23.3291 131.325 20.7779C131.325 18.5763 130.492 17.637 129.339 17.637Z" fill="#29304C"/>
<path d="M142.552 27.7057C138.928 27.7057 136.27 25.1011 136.27 20.8874C136.27 16.6736 138.954 14.0157 142.578 14.0157C146.229 14.0157 148.914 16.6469 148.914 20.8607C148.914 25.0744 146.202 27.7057 142.552 27.7057ZM142.578 17.3141C141.023 17.3141 140.19 18.7098 140.19 20.858C140.19 22.9795 141.049 24.4286 142.578 24.4286C144.134 24.4286 144.994 23.0062 144.994 20.8847C144.996 18.7658 144.137 17.3141 142.578 17.3141Z" fill="#29304C"/>
<path d="M107.596 24.1244C106.523 24.1244 105.984 23.6147 105.984 22.566V17.5463H108.647C108.276 16.7698 108.068 15.8411 108.068 14.7069C108.068 14.5495 108.073 14.3974 108.084 14.2426H105.984V9.67926L101.957 10.3251V14.2453H100.212V17.549H101.957V23.2144C101.957 26.5716 103.916 27.591 106.736 27.591C107.809 27.591 108.428 27.5109 109.071 27.3214L108.588 23.991C108.295 24.0711 107.945 24.1244 107.596 24.1244Z" fill="#29304C"/>
<path d="M116.413 16.5588C114.104 15.6729 113.595 15.2165 113.595 14.2772C113.595 13.4179 114.267 12.8281 115.663 12.8281C117.085 12.8281 118.831 13.3645 120.496 14.3305L121.195 10.4637C119.58 9.68717 118.022 9.23083 115.607 9.23083C112.063 9.23083 109.272 11.1362 109.272 14.7068C109.272 17.7677 110.883 18.9766 114.587 20.399C117.192 21.3917 117.728 21.8747 117.728 22.9235C117.728 24.0229 116.816 24.5887 115.5 24.5887C113.648 24.5887 111.527 23.8895 109.621 22.8701L110.488 27.3987C111.964 27.8951 113.581 28.186 115.42 28.186C119.097 28.186 122.052 26.414 122.052 22.3871C122.049 19.4329 120.466 18.0372 116.413 16.5588Z" fill="#29304C"/>
<path d="M154.982 27.4762C152.183 27.4762 150.235 26.4621 150.235 23.1264V17.5009H148.5V14.2185H150.235V10.325L154.235 9.68457V14.2185H156.717L157.224 17.5009H154.235V22.4886C154.235 23.5293 154.769 24.0364 155.836 24.0364C156.183 24.0364 156.53 23.983 156.824 23.9029L157.304 27.2093C156.663 27.3961 156.05 27.4762 154.982 27.4762Z" fill="#29304C"/>
</g>
<path d="M16.9206 0C7.57497 0 0 7.53924 0 16.8398C0 21.4948 1.89801 25.707 4.96403 28.7544L15.7961 39.5352C16.4173 40.1549 17.4238 40.1549 18.0451 39.5352L28.8771 28.7544C31.9432 25.707 33.8412 21.4932 33.8412 16.8398C33.8412 7.53924 26.2646 0 16.9206 0Z" fill="#9080F0"/>
<path d="M18.6932 10.6688L6.01635 15.0582C5.29795 15.3076 4.7026 15.6251 4.2403 15.9893C3.76469 16.365 3.43043 16.7923 3.25415 17.2462C3.07123 17.7134 3.0546 18.2105 3.22422 18.706C3.39717 19.2148 3.76635 19.7219 4.34506 20.1907C4.93708 20.6696 5.68542 21.0586 6.53021 21.3463C7.38165 21.6372 8.32123 21.8218 9.28077 21.8949C10.2353 21.9681 11.1998 21.9282 12.1095 21.7752C13.0042 21.6239 13.834 21.3646 14.5441 20.9988C14.5474 20.9971 14.5507 20.9955 14.5557 20.9938C14.559 20.9921 14.5624 20.9905 14.5674 20.9888C14.5707 20.9871 14.574 20.9855 14.5773 20.9838C14.5807 20.9822 14.584 20.9805 14.5873 20.9772L24.5701 15.8113C24.5735 15.8097 24.5751 15.808 24.5785 15.8064C24.5818 15.8047 24.5834 15.803 24.5868 15.8014C24.5901 15.7997 24.5934 15.798 24.5951 15.7964C24.5984 15.7947 24.6017 15.7931 24.6034 15.7914C24.7464 15.7182 24.921 15.67 25.1139 15.6451C25.3068 15.6201 25.5197 15.6185 25.7392 15.6401C25.9587 15.66 26.1849 15.7033 26.4077 15.7665C26.6306 15.8296 26.8484 15.9161 27.0496 16.0208C27.2525 16.1272 27.4188 16.2436 27.5485 16.365C27.6782 16.4864 27.7697 16.6127 27.8179 16.7358C27.8678 16.8588 27.8728 16.9802 27.8329 17.0916C27.793 17.203 27.7065 17.3027 27.5685 17.3859C27.5635 17.3892 27.5602 17.3909 27.5552 17.3942C27.5502 17.3975 27.5469 17.3992 27.5419 17.4008C27.5369 17.4025 27.5336 17.4058 27.5286 17.4075C27.5236 17.4091 27.5186 17.4125 27.5153 17.4141L5.64218 30.4093C5.42766 30.5374 5.23808 30.6803 5.07178 30.8333C4.90548 30.9879 4.76579 31.1525 4.64939 31.3254C4.53298 31.5 4.44318 31.6829 4.37999 31.8725C4.31513 32.062 4.27854 32.2582 4.26857 32.4577C4.25859 32.6589 4.27522 32.8617 4.32012 33.0662C4.36502 33.2707 4.43819 33.4752 4.53963 33.6764C4.64107 33.8793 4.77245 34.0788 4.93043 34.2716C5.09007 34.4645 5.27965 34.6524 5.49917 34.8286C5.93985 35.1844 6.45538 35.4654 7.00915 35.6649C7.56624 35.8661 8.15826 35.9858 8.75028 36.0224C9.34063 36.059 9.92766 36.0108 10.4748 35.8761C11.0169 35.7431 11.5175 35.5269 11.9399 35.2277L31.0574 19.2829C31.0591 19.2813 31.0624 19.2796 31.0641 19.278C31.0657 19.2763 31.069 19.2746 31.0707 19.273C31.0724 19.2713 31.0757 19.2696 31.0774 19.268C31.079 19.2663 31.0823 19.2647 31.084 19.263C31.4964 18.9704 31.7326 18.6212 31.8107 18.2421C31.8872 17.873 31.8157 17.4773 31.6112 17.0799C31.4116 16.6925 31.0873 16.3018 30.6516 15.9294C30.2259 15.5653 29.6921 15.2161 29.0602 14.9035C28.4382 14.596 27.7764 14.3466 27.1078 14.1603C26.4426 13.9741 25.7658 13.8478 25.1106 13.7829C24.4537 13.7181 23.8118 13.7148 23.2231 13.7779C22.6261 13.8411 22.0773 13.9741 21.6134 14.1803L11.4643 18.721C11.4559 18.726 11.446 18.7309 11.4376 18.7359C11.4293 18.7409 11.4194 18.7459 11.4094 18.7492C11.3994 18.7542 11.3911 18.7575 11.3811 18.7625C11.3711 18.7675 11.3611 18.7708 11.3528 18.7758C11.13 18.8756 10.8756 18.9438 10.6095 18.982C10.3417 19.0202 10.0607 19.0269 9.78299 19.0036C9.50527 18.9803 9.2342 18.9271 8.98476 18.8473C8.73531 18.7659 8.51081 18.6578 8.32456 18.5231C8.13997 18.3884 8.01358 18.2421 7.94207 18.0925C7.87057 17.9445 7.8556 17.7916 7.89052 17.6452C7.92544 17.5006 8.01026 17.3609 8.14496 17.2362C8.27633 17.1132 8.45593 17.0018 8.68043 16.9137C8.69041 16.9104 8.69873 16.907 8.7087 16.9037C8.71868 16.9004 8.727 16.8971 8.73697 16.8937C8.74695 16.8904 8.75527 16.8871 8.76525 16.8838C8.77522 16.8804 8.78354 16.8771 8.79352 16.8738L21.2409 11.964C21.3157 11.9341 21.3789 11.9008 21.4304 11.8659C21.482 11.8293 21.5236 11.7911 21.5535 11.7479C21.5834 11.7063 21.6034 11.6631 21.6134 11.6165C21.6234 11.5716 21.6217 11.5251 21.6101 11.4768C21.5984 11.4286 21.5768 11.3804 21.5469 11.3322C21.5153 11.284 21.4753 11.2358 21.4255 11.1875C21.3756 11.1393 21.3157 11.0928 21.2475 11.0462C21.1793 10.9997 21.1012 10.9548 21.013 10.9115C20.8384 10.8251 20.6455 10.7536 20.4426 10.6987C20.2414 10.6439 20.0302 10.6056 19.8224 10.5823C19.6145 10.5607 19.4083 10.5557 19.2187 10.569C19.0225 10.584 18.8445 10.6156 18.6932 10.6688Z" fill="white"/>
<defs>
<clipPath id="clip0">
<rect width="112.471" height="23.1982" fill="white" transform="translate(44.8327 9.23083)"/>
</clipPath>
</defs>
</svg>
