<svg width="730" height="186" viewBox="0 0 730 186" fill="none" xmlns="http://www.w3.org/2000/svg">
<g clip-path="url(#clip0)">
<path d="M238.384 131.227C226.806 131.227 217.108 128.741 208.388 124.758L211.505 106.587C220.337 111.312 230.171 114.553 238.755 114.553C244.853 114.553 249.084 111.943 249.084 106.834C249.084 101.985 246.597 99.7461 234.525 95.1322C217.343 88.5515 209.884 82.9481 209.884 68.7601C209.884 52.2094 222.823 43.3775 239.25 43.3775C250.444 43.3775 257.668 45.4927 265.127 49.1047L261.886 67.0283C254.168 62.5505 246.078 60.0642 239.485 60.0642C233.016 60.0642 229.898 62.7979 229.898 66.7809C229.898 71.135 232.261 73.2503 242.961 77.357C261.775 84.1974 269.11 90.6668 269.11 104.348C269.11 123.026 255.429 131.227 238.384 131.227Z" fill="#29304C"/>
<path d="M336.203 127.888H318.156L309.324 93.0425L300.616 127.888H282.445L265.77 68.2784L285.178 65.9158L293.515 102.629L302.1 66.794H319.022L327.73 102.505L335.696 66.794H353.236L336.203 127.888Z" fill="#29304C"/>
<path d="M382.75 129.013C364.455 129.013 351.393 119.179 351.393 97.5319C351.393 77.6168 363.589 65.5563 380.14 65.5563C398.929 65.5563 407.143 79.497 407.143 97.1609C407.143 99.0287 407.019 101.02 406.895 102.01H370.058C371.048 111.72 376.775 115.32 385.112 115.32C391.829 115.32 398.422 112.833 405.151 108.85L407.019 122.16C400.414 126.39 392.324 129.013 382.75 129.013ZM369.922 91.6811H389.207C388.588 82.478 385.347 77.7405 379.62 77.7405C374.276 77.7405 370.553 82.342 369.922 91.6811Z" fill="#29304C"/>
<path d="M441.84 129.013C423.545 129.013 410.483 119.179 410.483 97.5319C410.483 77.6168 422.679 65.5563 439.23 65.5563C458.02 65.5563 466.233 79.497 466.233 97.1609C466.233 99.0287 466.109 101.02 465.986 102.01H429.149C430.138 111.72 435.866 115.32 444.203 115.32C450.919 115.32 457.512 112.833 464.242 108.85L466.109 122.16C459.516 126.39 451.427 129.013 441.84 129.013ZM429.025 91.6811H448.309C447.691 82.478 444.45 77.7405 438.723 77.7405C433.379 77.7405 429.644 82.342 429.025 91.6811Z" fill="#29304C"/>
<path d="M602.462 128.382C596.982 128.382 593.135 127.392 589.647 126.267V148.037L570.857 150.895V66.7933H587.408L588.657 74.7594C592.887 70.1579 598.367 65.5563 606.197 65.5563C618.765 65.5563 628.228 75.0191 628.228 95.6765C628.215 118.808 615.895 128.382 602.462 128.382ZM600.099 82.342C595.992 82.342 592.887 84.8283 589.647 88.5639V111.708C592.257 112.957 594.496 113.575 598.231 113.575C604.577 113.575 609.302 108.726 609.302 96.9011C609.302 86.6961 605.443 82.342 600.099 82.342Z" fill="#29304C"/>
<path d="M661.339 129.013C644.541 129.013 632.221 116.94 632.221 97.4082C632.221 77.8765 644.664 65.5563 661.462 65.5563C678.384 65.5563 690.828 77.7528 690.828 97.2845C690.828 116.816 678.261 129.013 661.339 129.013ZM661.462 80.8453C654.251 80.8453 650.392 87.3146 650.392 97.2722C650.392 107.106 654.375 113.823 661.462 113.823C668.674 113.823 672.657 107.23 672.657 97.3959C672.669 87.5744 668.686 80.8453 661.462 80.8453Z" fill="#29304C"/>
<path d="M499.31 112.414C494.337 112.414 491.839 110.051 491.839 105.19V81.9223H504.184C502.464 78.3227 501.5 74.0181 501.5 68.7609C501.5 68.0311 501.524 67.3261 501.574 66.6086H491.839V45.4565L473.173 48.4499V66.621H465.083V81.9346H473.173V108.195C473.173 123.757 482.252 128.482 495.327 128.482C500.3 128.482 503.169 128.111 506.151 127.232L503.912 111.795C502.551 112.166 500.931 112.414 499.31 112.414Z" fill="#29304C"/>
<path d="M540.18 77.3446C529.481 73.2379 527.118 71.1227 527.118 66.7686C527.118 62.7855 530.235 60.0518 536.704 60.0518C543.297 60.0518 551.387 62.5381 559.106 67.0159L562.347 49.0923C554.863 45.4927 547.639 43.3775 536.445 43.3775C520.018 43.3775 507.079 52.2094 507.079 68.7601C507.079 82.9481 514.55 88.5515 531.719 95.1446C543.792 99.7461 546.279 101.985 546.279 106.846C546.279 111.943 542.048 114.565 535.95 114.565C527.365 114.565 517.531 111.324 508.7 106.599L512.72 127.59C519.56 129.891 527.056 131.239 535.579 131.239C552.624 131.239 566.317 123.026 566.317 104.36C566.305 90.6668 558.97 84.1974 540.18 77.3446Z" fill="#29304C"/>
<path d="M718.959 127.949C705.983 127.949 696.953 123.248 696.953 107.786V81.7111H688.913V66.4964H696.953V48.449L715.496 45.4803V66.4964H726.999L729.35 81.7111H715.496V104.83C715.496 109.654 717.969 112.004 722.917 112.004C724.525 112.004 726.133 111.757 727.494 111.386L729.721 126.712C726.752 127.578 723.907 127.949 718.959 127.949Z" fill="#29304C"/>
</g>
<path fill-rule="evenodd" clip-rule="evenodd" d="M0.577515 78.6467C0.577515 35.5362 35.6894 0.589966 79.0087 0.589966C122.321 0.589966 157.44 35.5362 157.44 78.6467C157.44 100.216 148.642 119.749 134.43 133.874L84.2211 183.846C81.3413 186.718 76.676 186.718 73.7962 183.846L54.5923 164.732C55.0522 164.466 55.4966 164.182 55.9238 163.879L144.538 89.9717C144.542 89.9678 144.548 89.964 144.554 89.9601C144.56 89.9563 144.565 89.9524 144.569 89.9486C144.573 89.9447 144.579 89.9409 144.585 89.937C144.59 89.9332 144.596 89.9293 144.6 89.9254C144.608 89.9177 144.623 89.91 144.631 89.9023C144.639 89.8946 144.654 89.8869 144.662 89.8792C146.573 88.5228 147.668 86.9044 148.03 85.1472C148.385 83.4363 148.053 81.6021 147.105 79.7602C146.18 77.9645 144.677 76.1535 142.658 74.4271C140.684 72.7394 138.21 71.1209 135.281 69.6721C132.398 68.2463 129.33 67.0903 126.231 66.2272C123.148 65.364 120.011 64.7783 116.974 64.4777C113.929 64.1772 110.953 64.1618 108.225 64.4546C105.457 64.7475 102.914 65.364 100.763 66.3196L53.7192 87.3668C53.7052 87.3752 53.6902 87.3836 53.6749 87.392C53.6481 87.4067 53.6204 87.4214 53.5959 87.4361C53.5574 87.4593 53.5111 87.4824 53.4649 87.4978C53.4186 87.5209 53.3801 87.5363 53.3338 87.5595C53.3148 87.569 53.2958 87.5772 53.2773 87.5851C53.2509 87.5965 53.2255 87.6075 53.2028 87.6211C52.1699 88.0835 50.9905 88.3995 49.7572 88.5768C48.5161 88.754 47.2134 88.7848 45.9262 88.6769C44.6389 88.569 43.3824 88.3224 42.2262 87.9525C41.0699 87.5749 40.0293 87.0739 39.166 86.4497C38.3104 85.8254 37.7245 85.1472 37.3931 84.4536C37.0616 83.7677 36.9922 83.0587 37.1541 82.3805C37.316 81.71 37.7091 81.0627 38.3335 80.4847C38.9424 79.9144 39.7749 79.398 40.8156 78.9895C40.8387 78.9818 40.8599 78.9741 40.8812 78.9664C40.9023 78.9587 40.9235 78.951 40.9466 78.9433C40.9697 78.9356 40.9909 78.9279 41.0121 78.9202C41.0333 78.9125 41.0545 78.9048 41.0776 78.8971C41.1008 78.8894 41.122 78.8817 41.1432 78.8739C41.1644 78.8662 41.1856 78.8585 41.2087 78.8508C41.2201 78.847 41.231 78.8432 41.2417 78.8394C41.2744 78.8278 41.3049 78.8162 41.3397 78.8046L99.0363 56.0465C99.3832 55.9078 99.6761 55.7537 99.9151 55.5918C100.154 55.4223 100.347 55.245 100.485 55.0447C100.624 54.852 100.717 54.6516 100.763 54.4358C100.809 54.2277 100.802 54.012 100.748 53.7885C100.694 53.565 100.593 53.3415 100.455 53.118C100.308 52.8945 100.123 52.671 99.8919 52.4475C99.6607 52.224 99.3832 52.0082 99.0672 51.7924C98.7511 51.5766 98.3888 51.3685 97.9803 51.1682C97.1709 50.7674 96.2768 50.436 95.3363 50.1817C94.4036 49.9274 93.4247 49.7501 92.4611 49.6422C91.4976 49.542 90.5418 49.5189 89.663 49.5806C88.7535 49.6499 87.9287 49.7964 87.2272 50.043L28.4669 70.3888C25.1369 71.5448 22.3773 73.0168 20.2344 74.7046C18.0298 76.4463 16.4805 78.427 15.6634 80.5309C14.8155 82.6965 14.7384 85.0008 15.5246 87.2974C16.3263 89.6557 18.0375 92.0063 20.72 94.1796C23.4642 96.3991 26.9329 98.2025 30.8487 99.5358C34.7954 100.884 39.1506 101.74 43.5983 102.079C48.0228 102.418 52.4936 102.233 56.7101 101.524C60.8571 100.823 64.7036 99.6205 67.995 97.925C68.0104 97.9173 68.0258 97.9096 68.049 97.9019C68.0644 97.8942 68.0798 97.8865 68.1029 97.8788L68.1492 97.8557C68.1646 97.848 68.18 97.8403 68.1954 97.8249L114.468 73.88C114.476 73.8761 114.482 73.8723 114.488 73.8684C114.493 73.8646 114.499 73.8607 114.507 73.8568C114.515 73.853 114.52 73.8491 114.526 73.8453C114.532 73.8414 114.538 73.8376 114.545 73.8337L114.546 73.8337C114.561 73.826 114.576 73.8183 114.584 73.8106C114.599 73.8029 114.615 73.7952 114.622 73.7875C115.285 73.4484 116.095 73.2249 116.989 73.1093C117.883 72.9937 118.87 72.986 119.887 73.0862C120.905 73.1787 121.953 73.379 122.986 73.6719C124.019 73.9647 125.029 74.3655 125.961 74.851C126.902 75.3443 127.673 75.8837 128.274 76.4463C128.875 77.0089 129.299 77.5946 129.523 78.1649C129.754 78.7352 129.777 79.2978 129.592 79.8142C129.407 80.3305 129.006 80.7929 128.366 81.1783C128.357 81.1846 128.349 81.1897 128.341 81.1945C128.329 81.2014 128.318 81.2078 128.305 81.2168C128.282 81.2322 128.266 81.2399 128.243 81.2476C128.231 81.2515 128.222 81.2573 128.212 81.263C128.203 81.2688 128.193 81.2746 128.181 81.2785C128.173 81.2811 128.165 81.2847 128.158 81.2886C128.143 81.2959 128.13 81.3043 128.12 81.3093L29.5894 139.848L23.5871 133.874C9.37528 119.749 0.577515 100.224 0.577515 78.6467Z" fill="#9080F0"/>
<defs>
<clipPath id="clip0">
<rect width="521.332" height="107.53" fill="white" transform="translate(208.388 43.3775)"/>
</clipPath>
</defs>
</svg>
