<svg width="193" height="49" viewBox="0 0 193 49" fill="none" xmlns="http://www.w3.org/2000/svg">
<path d="M62.8474 34.5241C59.7875 34.5241 57.2246 33.8671 54.9199 32.8144L55.7437 28.0122C58.0778 29.261 60.6767 30.1175 62.9454 30.1175C64.5571 30.1175 65.6751 29.4277 65.6751 28.0776C65.6751 26.7961 65.018 26.2044 61.8274 24.9851C57.2867 23.2459 55.3155 21.7651 55.3155 18.0155C55.3155 13.6415 58.7349 11.3074 63.0762 11.3074C66.0347 11.3074 67.9438 11.8664 69.915 12.8209L69.0585 17.5578C67.0187 16.3744 64.8807 15.7173 63.1383 15.7173C61.4286 15.7173 60.6048 16.4398 60.6048 17.4924C60.6048 18.6431 61.2292 19.2021 64.0569 20.2874C69.0291 22.0952 70.9677 23.8049 70.9677 27.4205C70.9677 32.3568 67.3521 34.5241 62.8474 34.5241Z" fill="white"/>
<path d="M88.6991 33.6418H83.9296L81.5955 24.4329L79.2941 33.6418H74.4919L70.0852 17.8883L75.2143 17.2639L77.4177 26.9664L79.6864 17.496H84.1584L86.4599 26.9338L88.5651 17.496H93.2006L88.6991 33.6418Z" fill="white"/>
<path d="M101 33.9392C96.1652 33.9392 92.7131 31.3403 92.7131 25.6194C92.7131 20.3563 95.9364 17.1689 100.31 17.1689C105.276 17.1689 107.447 20.8532 107.447 25.5214C107.447 26.015 107.414 26.5413 107.381 26.8028H97.6461C97.9076 29.369 99.4212 30.3203 101.625 30.3203C103.4 30.3203 105.142 29.6632 106.92 28.6106L107.414 32.1281C105.668 33.2461 103.53 33.9392 101 33.9392ZM97.6102 24.0732H102.707C102.543 21.641 101.687 20.389 100.173 20.389C98.7609 20.389 97.7769 21.605 97.6102 24.0732Z" fill="white"/>
<path d="M116.617 33.9392C111.782 33.9392 108.33 31.3403 108.33 25.6194C108.33 20.3563 111.553 17.1689 115.927 17.1689C120.893 17.1689 123.063 20.8532 123.063 25.5214C123.063 26.015 123.031 26.5413 122.998 26.8028H113.263C113.524 29.369 115.038 30.3203 117.241 30.3203C119.016 30.3203 120.759 29.6632 122.537 28.6106L123.031 32.1281C121.288 33.2461 119.15 33.9392 116.617 33.9392ZM113.23 24.0732H118.327C118.163 21.641 117.307 20.389 115.793 20.389C114.381 20.389 113.394 21.605 113.23 24.0732Z" fill="white"/>
<path d="M159.065 33.7724C157.617 33.7724 156.6 33.5109 155.678 33.2134V38.9669L150.713 39.7221V17.4958H155.087L155.417 19.6011C156.535 18.385 157.983 17.1689 160.052 17.1689C163.374 17.1689 165.874 19.6698 165.874 25.1291C165.871 31.2422 162.615 33.7724 159.065 33.7724ZM158.441 21.605C157.355 21.605 156.535 22.2621 155.678 23.2494V29.3658C156.368 29.6959 156.96 29.8594 157.947 29.8594C159.624 29.8594 160.873 28.5779 160.873 25.4527C160.873 22.7557 159.853 21.605 158.441 21.605Z" fill="white"/>
<path d="M174.626 33.9392C170.186 33.9392 166.93 30.7486 166.93 25.5867C166.93 20.4249 170.219 17.1689 174.658 17.1689C179.131 17.1689 182.419 20.3922 182.419 25.5541C182.419 30.7159 179.098 33.9392 174.626 33.9392ZM174.658 21.2095C172.753 21.2095 171.733 22.9192 171.733 25.5508C171.733 28.1497 172.785 29.9248 174.658 29.9248C176.564 29.9248 177.617 28.1824 177.617 25.5835C177.62 22.9878 176.568 21.2095 174.658 21.2095Z" fill="white"/>
<path d="M131.805 29.5523C130.491 29.5523 129.83 28.9279 129.83 27.6432V21.4941H133.093C132.638 20.5428 132.383 19.4052 132.383 18.0158C132.383 17.8229 132.39 17.6366 132.403 17.447H129.83V11.8569L124.897 12.648V17.4503H122.759V21.4974H124.897V28.4375C124.897 32.55 127.297 33.7988 130.752 33.7988C132.066 33.7988 132.825 33.7007 133.612 33.4686L133.021 29.3888C132.661 29.4869 132.233 29.5523 131.805 29.5523Z" fill="white"/>
<path d="M142.605 20.2842C139.778 19.1989 139.153 18.6398 139.153 17.4891C139.153 16.4365 139.977 15.714 141.687 15.714C143.429 15.714 145.567 16.3711 147.607 17.5545L148.464 12.8177C146.486 11.8664 144.577 11.3074 141.618 11.3074C137.277 11.3074 133.857 13.6415 133.857 18.0155C133.857 21.7651 135.832 23.2459 140.369 24.9883C143.56 26.2044 144.217 26.7961 144.217 28.0808C144.217 29.4277 143.099 30.1207 141.487 30.1207C139.219 30.1207 136.62 29.2642 134.286 28.0155L135.348 33.563C137.156 34.1711 139.137 34.5274 141.389 34.5274C145.894 34.5274 149.513 32.3568 149.513 27.4238C149.51 23.8049 147.571 22.0952 142.605 20.2842Z" fill="white"/>
<path d="M189.853 33.658C186.424 33.658 184.037 32.4158 184.037 28.3295V21.4383H181.912V17.4174H184.037V12.6479L188.938 11.8633V17.4174H191.978L192.599 21.4383H188.938V27.5482C188.938 28.8231 189.591 29.4442 190.899 29.4442C191.324 29.4442 191.749 29.3788 192.109 29.2808L192.697 33.3311C191.912 33.5599 191.16 33.658 189.853 33.658Z" fill="white"/>
<path fill-rule="evenodd" clip-rule="evenodd" d="M0 20.6288C0 9.23557 9.27934 0 20.7277 0C32.1742 0 41.4554 9.23557 41.4554 20.6288C41.4554 26.3292 39.1304 31.4911 35.3745 35.2242L22.1052 48.4306C21.3442 49.1898 20.1112 49.1898 19.3502 48.4306L14.2749 43.3793C14.3963 43.3091 14.5137 43.234 14.6265 43.154L38.0455 23.6217C38.0465 23.6207 38.048 23.6197 38.0496 23.6187C38.0511 23.6177 38.0526 23.6167 38.0536 23.6156C38.0557 23.6136 38.0598 23.6116 38.0618 23.6095C38.0638 23.6075 38.0679 23.6055 38.0699 23.6034C38.071 23.6024 38.0725 23.6014 38.074 23.6004C38.0755 23.5993 38.0771 23.5983 38.0781 23.5973C38.5833 23.2388 38.8726 22.8111 38.9683 22.3468C39.062 21.8946 38.9744 21.4099 38.7239 20.9231C38.4794 20.4485 38.0822 19.9699 37.5484 19.5137C37.0269 19.0676 36.373 18.6399 35.5989 18.257C34.837 17.8802 34.0262 17.5747 33.2073 17.3466C32.3924 17.1185 31.5633 16.9637 30.7607 16.8842C29.956 16.8048 29.1697 16.8007 28.4485 16.8781C27.7172 16.9555 27.0449 17.1185 26.4766 17.371L14.0439 22.9333C14.0388 22.9364 14.0332 22.9394 14.0276 22.9425C14.022 22.9456 14.0164 22.9486 14.0113 22.9517C14.0011 22.9578 13.9889 22.9639 13.9767 22.968C13.9705 22.971 13.9649 22.9736 13.9593 22.9761C13.9537 22.9787 13.9481 22.9812 13.942 22.9843C13.937 22.9868 13.932 22.9889 13.9271 22.991C13.9201 22.9941 13.9134 22.997 13.9074 23.0005C13.6344 23.1228 13.3227 23.2063 12.9968 23.2531C12.6688 23.2999 12.3245 23.3081 11.9843 23.2796C11.6441 23.2511 11.3121 23.1859 11.0065 23.0881C10.7009 22.9883 10.4259 22.8559 10.1978 22.691C9.97164 22.526 9.81682 22.3468 9.72922 22.1635C9.64162 21.9822 9.62329 21.7948 9.66607 21.6156C9.70885 21.4384 9.81274 21.2673 9.97775 21.1145C10.1387 20.9638 10.3587 20.8274 10.6337 20.7194C10.6398 20.7174 10.6454 20.7153 10.651 20.7133C10.6566 20.7113 10.6622 20.7092 10.6683 20.7072C10.6745 20.7051 10.6801 20.7031 10.6857 20.7011C10.6913 20.699 10.6969 20.697 10.703 20.695C10.7125 20.6918 10.7208 20.6886 10.7298 20.6854C10.7323 20.6845 10.7349 20.6836 10.7376 20.6827C10.7437 20.6807 10.7493 20.6787 10.7549 20.6766C10.7605 20.6746 10.7661 20.6726 10.7722 20.6705L26.0202 14.656C26.1119 14.6194 26.1893 14.5787 26.2525 14.5359C26.3156 14.4911 26.3666 14.4442 26.4032 14.3913C26.4399 14.3404 26.4643 14.2874 26.4766 14.2304C26.4888 14.1754 26.4867 14.1183 26.4725 14.0593C26.4582 14.0002 26.4317 13.9412 26.3951 13.8821C26.3564 13.823 26.3075 13.764 26.2464 13.7049C26.1853 13.6458 26.1119 13.5888 26.0284 13.5318C25.9449 13.4747 25.8491 13.4197 25.7412 13.3668C25.5273 13.2609 25.2909 13.1733 25.0424 13.1061C24.7959 13.0389 24.5372 12.992 24.2826 12.9635C24.0279 12.937 23.7753 12.9309 23.5431 12.9472C23.3027 12.9656 23.0847 13.0043 22.8993 13.0694L7.37021 18.4464C6.49016 18.7519 5.76087 19.1409 5.19454 19.587C4.61192 20.0473 4.20245 20.5707 3.98652 21.1268C3.76243 21.6991 3.74206 22.3081 3.94985 22.915C4.16171 23.5382 4.61396 24.1594 5.32288 24.7338C6.04811 25.3204 6.96482 25.797 7.99969 26.1493C9.0427 26.5058 10.1937 26.7318 11.3691 26.8215C12.5384 26.9111 13.72 26.8622 14.8343 26.6748C15.9303 26.4895 16.9468 26.1717 17.8167 25.7237C17.8207 25.7216 17.8248 25.7196 17.8309 25.7176C17.835 25.7155 17.8391 25.7135 17.8452 25.7114L17.8574 25.7053C17.8592 25.7044 17.861 25.7035 17.8628 25.7025C17.8651 25.7011 17.8674 25.6995 17.8696 25.6972L30.0986 19.369C30.1006 19.368 30.1022 19.367 30.1037 19.366C30.1052 19.365 30.1068 19.364 30.1088 19.3629C30.1129 19.3609 30.1149 19.3589 30.119 19.3568C30.123 19.3548 30.1271 19.3528 30.1292 19.3507C30.1332 19.3487 30.1373 19.3466 30.1393 19.3446C30.3145 19.255 30.5284 19.1959 30.7647 19.1654C31.0011 19.1348 31.2618 19.1328 31.5307 19.1593C31.7996 19.1837 32.0767 19.2367 32.3496 19.3141C32.6226 19.3915 32.8895 19.4974 33.136 19.6257C33.3845 19.756 33.5882 19.8986 33.7471 20.0473C33.906 20.196 34.0181 20.3508 34.0771 20.5015C34.1383 20.6522 34.1444 20.8009 34.0955 20.9373C34.0466 21.0738 33.9407 21.196 33.7716 21.2978C33.7685 21.2999 33.766 21.3014 33.7634 21.3029C33.7609 21.3045 33.7583 21.306 33.7553 21.308C33.753 21.3095 33.751 21.3108 33.7491 21.3118C33.7459 21.3136 33.7428 21.3149 33.739 21.3162C33.7359 21.3172 33.7334 21.3187 33.7308 21.3202C33.7283 21.3218 33.7257 21.3233 33.7227 21.3243C33.7184 21.3257 33.7142 21.3281 33.7106 21.3302C33.709 21.331 33.7076 21.3318 33.7064 21.3325L7.66713 36.8029L6.08094 35.2242C2.32507 31.4911 0 26.3311 0 20.6288Z" fill="white"/>
</svg>
