<svg width="327" height="310" viewBox="0 0 327 310" fill="none" xmlns="http://www.w3.org/2000/svg">
<path fill-rule="evenodd" clip-rule="evenodd" d="M326.204 166.055C326.204 210.014 303.68 239.646 274.872 268.454C246.064 297.262 213.141 309.766 169.181 309.766C125.222 309.766 61.5 293.5 39.5 271.5C25 255.5 7.05225 236.913 7.05225 192.954C7.05225 148.994 25.6382 82.2968 54.4466 53.4884C83.2542 24.6808 123.052 6.86267 167.012 6.86267C210.972 6.86267 206.783 65.8527 235.591 94.6611C264.4 123.469 326.204 122.095 326.204 166.055Z" fill="url(#paint0_linear)"/>
<path fill-rule="evenodd" clip-rule="evenodd" d="M300.926 228.714H296.042V223.83C296.042 222.987 295.358 222.304 294.515 222.304C293.672 222.304 292.989 222.987 292.989 223.83V228.714H288.715C287.873 228.714 287.189 229.398 287.189 230.241C287.189 231.084 287.873 231.767 288.715 231.767H292.989V236.651C292.989 237.494 293.672 238.177 294.515 238.177C295.358 238.177 296.042 237.494 296.042 236.651V231.767H300.926C301.769 231.767 302.453 231.084 302.453 230.241C302.453 229.398 301.769 228.714 300.926 228.714Z" fill="#C1C1C1"/>
<path fill-rule="evenodd" clip-rule="evenodd" d="M208.631 32.5001C207.788 32.5001 207.105 31.8171 207.105 30.9745V18.7633C207.105 17.9207 207.788 17.2377 208.631 17.2377C209.474 17.2377 210.157 17.9207 210.157 18.7633V30.9745C210.157 31.8171 209.474 32.5001 208.631 32.5001Z" fill="#FE9595"/>
<path fill-rule="evenodd" clip-rule="evenodd" d="M215.042 26.0896H202.831C201.989 26.0896 201.306 25.4066 201.306 24.564C201.306 23.7206 201.989 23.0369 202.831 23.0369H215.042C215.884 23.0369 216.567 23.7206 216.567 24.564C216.567 25.4066 215.884 26.0896 215.042 26.0896Z" fill="#FE9595"/>
<path fill-rule="evenodd" clip-rule="evenodd" d="M301.267 170.513C304.382 171.589 305.942 173.15 307.019 176.266C308.095 173.15 309.656 171.589 312.772 170.513C309.656 169.437 308.095 167.875 307.019 164.76C305.942 167.875 304.382 169.437 301.267 170.513ZM307.019 182.711C306.426 182.711 305.917 182.287 305.809 181.704C304.388 173.984 303.549 173.144 295.829 171.722C295.245 171.615 294.821 171.106 294.821 170.513C294.821 169.919 295.245 169.41 295.829 169.303C303.549 167.882 304.388 167.043 305.809 159.322C305.917 158.738 306.426 158.314 307.019 158.314C307.612 158.314 308.122 158.738 308.229 159.322C309.65 167.043 310.49 167.882 318.21 169.303C318.793 169.41 319.217 169.919 319.217 170.513C319.217 171.106 318.793 171.615 318.21 171.722C310.49 173.144 309.65 173.984 308.229 181.704C308.122 182.287 307.612 182.711 307.019 182.711Z" fill="#FE9595"/>
<path fill-rule="evenodd" clip-rule="evenodd" d="M2.99245 106.355C2.75598 106.52 2.63205 106.74 2.57649 106.859C2.48746 107.053 2.32221 107.561 2.69259 108.082L15.8553 126.581C16.2271 127.103 16.7613 127.113 16.9743 127.094C17.1872 127.073 17.71 126.962 17.9771 126.38L27.4154 105.732C27.6818 105.149 27.4225 104.681 27.2986 104.507C27.1754 104.333 26.8185 103.935 26.1803 103.995L3.57865 106.145C3.33363 106.169 3.14061 106.251 2.99245 106.355ZM19.0954 126.891L19.1004 126.888L19.0954 126.891ZM18.975 128.897C18.4643 129.255 17.861 129.48 17.2072 129.542C15.8795 129.668 14.6252 129.094 13.851 128.008L0.688979 109.509C-0.0845437 108.422 -0.214887 107.049 0.339258 105.837C0.894114 104.623 2.01807 103.824 3.34574 103.696L25.9474 101.547C27.2751 101.421 28.5301 101.994 29.3029 103.081C30.0764 104.168 30.2075 105.541 29.6534 106.755L20.2144 127.403H20.2137C19.9323 128.019 19.5035 128.528 18.975 128.897Z" fill="#FDC23F"/>
<path fill-rule="evenodd" clip-rule="evenodd" d="M52.3212 14.5922C57.4787 16.447 59.7224 18.6906 61.5778 23.8489C63.4333 18.6899 65.6755 16.4477 70.8352 14.5922C65.6769 12.7368 63.4333 10.4938 61.5778 5.33489C59.7224 10.4938 57.4787 12.7368 52.3212 14.5922ZM61.5778 29.1838C61.0287 29.1838 60.5472 28.8176 60.4012 28.2877C58.0464 19.7612 56.4089 18.1229 47.8824 15.7689C47.3524 15.6229 46.9863 15.1407 46.9863 14.5922C46.9863 14.0431 47.3524 13.5609 47.8824 13.4149C56.4089 11.0615 58.0464 9.42259 60.4012 0.896035C60.5472 0.36682 61.0287 0 61.5778 0C62.127 0 62.6092 0.36682 62.7552 0.896035C65.11 9.42259 66.7482 11.0608 75.274 13.4149C75.804 13.5609 76.1701 14.0431 76.1701 14.5922C76.1701 15.1407 75.804 15.6229 75.274 15.7689C66.7482 18.1237 65.11 19.7612 62.7552 28.2877C62.6092 28.8176 62.127 29.1838 61.5778 29.1838Z" fill="#CED3E2"/>
<path fill-rule="evenodd" clip-rule="evenodd" d="M284.307 298.536H192.679C191.631 298.536 190.659 297.829 190.474 296.798C190.23 295.441 191.265 294.263 192.575 294.263H284.202C285.25 294.263 286.221 294.97 286.407 296.001C286.651 297.358 285.617 298.536 284.307 298.536Z" fill="#3A5C91"/>
<path fill-rule="evenodd" clip-rule="evenodd" d="M63.3323 294.263H49.6254C48.5756 294.263 47.6047 294.974 47.4224 296.007C47.1831 297.364 48.2137 298.536 49.5243 298.536H63.3323C64.5118 298.536 65.4691 297.58 65.4691 296.399C65.4691 295.219 64.5118 294.263 63.3323 294.263Z" fill="#3A5C91"/>
<path fill-rule="evenodd" clip-rule="evenodd" d="M169.862 294.263H81.4952C80.315 294.263 79.3584 295.219 79.3584 296.399C79.3584 297.58 80.315 298.536 81.4952 298.536H169.782C170.818 298.536 171.767 297.835 171.96 296.816C172.217 295.45 171.173 294.263 169.862 294.263Z" fill="#3A5C91"/>
<path fill-rule="evenodd" clip-rule="evenodd" d="M221.99 77.5909V282.297C221.99 290.085 215.675 296.4 207.887 296.4H105.036C97.2462 296.4 90.9326 290.085 90.9326 282.296V77.5909C90.9326 69.8023 97.2462 63.488 105.036 63.488H207.886C215.675 63.488 221.99 69.8023 221.99 77.5909Z" fill="white"/>
<path fill-rule="evenodd" clip-rule="evenodd" d="M105.036 65.6248C98.4372 65.6248 93.0695 70.9925 93.0695 77.5909V282.296C93.0695 288.894 98.4372 294.263 105.036 294.263H207.887C214.486 294.263 219.853 288.895 219.853 282.297V77.5909C219.853 70.9932 214.485 65.6248 207.886 65.6248H105.036ZM207.887 298.536H105.036C96.081 298.536 88.7959 291.251 88.7959 282.296V77.5909C88.7959 68.6363 96.081 61.3512 105.036 61.3512H207.886C216.841 61.3512 224.127 68.6363 224.127 77.5909V282.297C224.127 291.251 216.842 298.536 207.887 298.536Z" fill="#3A5C91"/>
<path fill-rule="evenodd" clip-rule="evenodd" d="M90.9326 265.772H221.99V83.4315H90.9326V265.772Z" fill="#C2DDF3"/>
<path fill-rule="evenodd" clip-rule="evenodd" d="M93.0695 263.635H219.853V85.5683H93.0695V263.635ZM221.99 267.909H90.9327C89.7525 267.909 88.7959 266.952 88.7959 265.772V83.4315C88.7959 82.2513 89.7525 81.2947 90.9327 81.2947H221.99C223.17 81.2947 224.127 82.2513 224.127 83.4315V265.772C224.127 266.952 223.17 267.909 221.99 267.909Z" fill="#3A5C91"/>
<path fill-rule="evenodd" clip-rule="evenodd" d="M112.063 293.55H104.822C98.3309 293.55 93.0693 288.288 93.0693 281.798V267.909H100.192V281.802C100.192 288.28 105.517 293.55 112.063 293.55ZM100.192 81.2946H93.0693V77.5909C93.0693 70.9924 98.437 65.6248 105.035 65.6248H112.063C105.517 65.6248 100.192 70.8948 100.192 77.3736V81.2946Z" fill="#DEDEDE"/>
<path fill-rule="evenodd" clip-rule="evenodd" d="M93.0693 77.5909V77.3772C93.0693 70.8863 98.3309 65.6248 104.822 65.6248H105.035C98.437 65.6248 93.0693 70.9924 93.0693 77.5909Z" fill="#32507E"/>
<path fill-rule="evenodd" clip-rule="evenodd" d="M100.192 263.635H93.0693V214.133V220.543H100.192V263.635ZM93.0693 174.246H100.192V85.5684H93.0693V174.246Z" fill="#A9C0D4"/>
<path fill-rule="evenodd" clip-rule="evenodd" d="M93.0693 267.909H100.192V263.635H93.0693V267.909ZM93.0693 85.5683H100.192V81.2947H93.0693V85.5683Z" fill="#32507E"/>
<path fill-rule="evenodd" clip-rule="evenodd" d="M208.101 293.551H200.859C207.405 293.551 212.731 288.281 212.731 281.802V267.909H219.853V281.798C219.853 288.288 214.591 293.551 208.101 293.551Z" fill="#DEDEDE"/>
<path fill-rule="evenodd" clip-rule="evenodd" d="M219.853 81.2946H212.731V77.3736C212.731 70.8948 207.405 65.6248 200.859 65.6248H207.887C214.485 65.6248 219.853 70.9931 219.853 77.5909V81.2946Z" fill="#DEDEDE"/>
<path fill-rule="evenodd" clip-rule="evenodd" d="M219.853 81.2946V77.5909C219.853 70.9931 214.485 65.6248 207.886 65.6248H208.101C214.591 65.6248 219.853 70.8863 219.853 77.3772V81.2946Z" fill="#32507E"/>
<path fill-rule="evenodd" clip-rule="evenodd" d="M219.853 263.635H212.73V147.598L219.853 147.536V263.635ZM212.73 102.663H219.853V85.5684H212.73V102.663Z" fill="#A9C0D4"/>
<path fill-rule="evenodd" clip-rule="evenodd" d="M219.853 267.909H212.73V263.635H219.853V147.536V267.909ZM219.853 102.663V85.5683H212.73V81.2947H219.853V102.663Z" fill="#32507E"/>
<path fill-rule="evenodd" clip-rule="evenodd" d="M157.209 286.891C153.314 286.891 150.158 283.734 150.158 279.84C150.158 275.945 153.314 272.788 157.209 272.788C161.103 272.788 164.261 275.945 164.261 279.84C164.261 283.734 161.103 286.891 157.209 286.891Z" fill="white"/>
<path fill-rule="evenodd" clip-rule="evenodd" d="M157.209 274.925C154.499 274.925 152.295 277.129 152.295 279.839C152.295 282.55 154.499 284.754 157.209 284.754C159.919 284.754 162.124 282.55 162.124 279.839C162.124 277.129 159.919 274.925 157.209 274.925ZM157.209 289.028C152.143 289.028 148.021 284.906 148.021 279.839C148.021 274.773 152.143 270.651 157.209 270.651C162.276 270.651 166.397 274.773 166.397 279.839C166.397 284.906 162.276 289.028 157.209 289.028Z" fill="#3A5C91"/>
<path fill-rule="evenodd" clip-rule="evenodd" d="M201.569 228.378C194.091 228.378 187.139 225.201 182.259 219.617C180.209 220.23 178.085 220.543 175.928 220.543H100.192V214.133H175.928C178.406 214.133 180.778 213.677 182.971 212.851C187.206 218.312 193.793 221.854 201.211 221.965C202.189 222.857 203.285 223.637 204.483 224.282C205.316 224.731 205.758 225.679 205.565 226.604C205.366 227.53 204.582 228.221 203.642 228.293C202.93 228.35 202.232 228.378 201.569 228.378Z" fill="#A9C0D4"/>
<path fill-rule="evenodd" clip-rule="evenodd" d="M93.0693 220.543H100.192V214.133H93.0693V220.543Z" fill="#93A7B9"/>
<path fill-rule="evenodd" clip-rule="evenodd" d="M197.245 216.437C195.036 213.388 193.734 209.64 193.734 205.585C193.734 204.617 193.804 203.662 193.954 202.729C194.73 201.091 195.293 199.332 195.593 197.487C195.778 196.411 195.871 195.314 195.871 194.189C195.871 191.195 195.21 188.356 194.027 185.806C196.615 189.492 198.007 193.874 198.007 198.463C198.007 199.702 197.9 200.934 197.701 202.124C197.394 203.997 196.832 205.856 196.02 207.622C195.921 208.342 195.871 209.09 195.871 209.859C195.871 212.166 196.353 214.398 197.245 216.437Z" fill="#A9C0D4"/>
<path fill-rule="evenodd" clip-rule="evenodd" d="M76.2101 174.246H175.928C180.764 174.246 185.194 175.969 188.649 178.825C189.126 179.224 189.589 179.645 190.031 180.086C193.635 183.697 195.871 188.683 195.871 194.189C195.871 195.314 195.779 196.411 195.593 197.487C195.293 199.332 194.731 201.091 193.954 202.729C193.805 203.662 193.734 204.617 193.734 205.585C193.734 212.637 197.673 218.762 203.471 221.89C202.844 221.939 202.21 221.968 201.569 221.968C194.005 221.968 187.274 218.399 182.971 212.851C180.777 213.677 178.406 214.133 175.928 214.133H76.2101C70.7043 214.133 65.7184 211.895 62.1072 208.292C58.5031 204.68 56.2666 199.695 56.2666 194.189C56.2666 183.177 65.1984 174.246 76.2101 174.246Z" fill="white"/>
<path fill-rule="evenodd" clip-rule="evenodd" d="M182.971 210.714C183.618 210.714 184.247 211.008 184.66 211.541C187.749 215.525 192.025 218.224 196.807 219.303C193.502 215.583 191.597 210.729 191.597 205.585C191.597 204.49 191.68 203.415 191.845 202.392C191.876 202.192 191.936 201.997 192.023 201.814C192.732 200.319 193.223 198.748 193.484 197.144C193.651 196.174 193.734 195.186 193.734 194.189C193.734 189.438 191.881 184.966 188.518 181.596C188.139 181.217 187.722 180.836 187.277 180.464C184.097 177.835 180.063 176.382 175.927 176.382H76.2097C66.3911 176.382 58.403 184.371 58.403 194.189C58.403 198.939 60.2556 203.412 63.6197 206.783C66.9873 210.143 71.4589 211.996 76.2097 211.996H175.927C178.085 211.996 180.202 211.611 182.218 210.851C182.464 210.759 182.719 210.714 182.971 210.714ZM201.569 224.104C194.09 224.104 187.135 220.931 182.259 215.345C180.207 215.959 178.083 216.269 175.927 216.269H76.2097C70.3192 216.269 64.775 213.973 60.5975 209.804C56.425 205.624 54.1294 200.08 54.1294 194.189C54.1294 182.014 64.0349 172.109 76.2097 172.109H175.927C181.054 172.109 186.056 173.909 190.009 177.178C190.561 177.64 191.074 178.108 191.542 178.576C195.711 182.754 198.008 188.298 198.008 194.189C198.008 195.428 197.904 196.66 197.698 197.85C197.394 199.726 196.829 201.581 196.022 203.351C195.921 204.068 195.871 204.818 195.871 205.585C195.871 211.616 199.171 217.143 204.485 220.009C205.318 220.459 205.757 221.404 205.561 222.331C205.365 223.258 204.582 223.946 203.638 224.02C202.926 224.076 202.231 224.104 201.569 224.104Z" fill="#3A5C91"/>
<path fill-rule="evenodd" clip-rule="evenodd" d="M137.942 196.326H75.2629C74.4759 196.326 73.8384 195.688 73.8384 194.901C73.8384 194.115 74.4759 193.477 75.2629 193.477H137.942C138.729 193.477 139.367 194.115 139.367 194.901C139.367 195.688 138.729 196.326 137.942 196.326Z" fill="#D9D9D9"/>
<path fill-rule="evenodd" clip-rule="evenodd" d="M137.942 187.423H75.2629C74.4759 187.423 73.8384 186.784 73.8384 185.998C73.8384 185.212 74.4759 184.573 75.2629 184.573H137.942C138.729 184.573 139.367 185.212 139.367 185.998C139.367 186.784 138.729 187.423 137.942 187.423Z" fill="#D9D9D9"/>
<path fill-rule="evenodd" clip-rule="evenodd" d="M137.942 205.229H75.2629C74.4759 205.229 73.8384 204.592 73.8384 203.805C73.8384 203.018 74.4759 202.38 75.2629 202.38H137.942C138.729 202.38 139.367 203.018 139.367 203.805C139.367 204.592 138.729 205.229 137.942 205.229Z" fill="#D9D9D9"/>
<path fill-rule="evenodd" clip-rule="evenodd" d="M187.089 194.902C187.089 201.589 181.667 207.01 174.98 207.01C168.293 207.01 162.872 201.589 162.872 194.902C162.872 188.214 168.293 182.793 174.98 182.793C181.667 182.793 187.089 188.214 187.089 194.902Z" fill="#89D9A2"/>
<path fill-rule="evenodd" clip-rule="evenodd" d="M178.186 190.984V189.56C178.186 187.986 176.91 186.71 175.337 186.71C173.763 186.71 172.488 187.986 172.488 189.56V190.984C172.488 191.77 171.849 192.409 171.063 192.409C171.063 193.589 172.02 194.545 173.2 194.545H177.473C178.654 194.545 179.61 193.589 179.61 192.409C178.823 192.409 178.186 191.77 178.186 190.984Z" fill="#3A5C91"/>
<path fill-rule="evenodd" clip-rule="evenodd" d="M180.834 202.024H169.838C169.375 202.024 169.034 201.589 169.147 201.139L169.541 199.563C170.016 197.661 171.726 196.326 173.687 196.326L175.336 197.038L176.985 196.326C178.946 196.326 180.656 197.661 181.131 199.563L181.525 201.139C181.638 201.589 181.298 202.024 180.834 202.024Z" fill="#3A5C91"/>
<path fill-rule="evenodd" clip-rule="evenodd" d="M112.301 156.083C111.624 156.083 110.947 156.054 110.228 155.997C109.288 155.926 108.504 155.236 108.305 154.309C108.113 153.383 108.554 152.436 109.388 151.987C110.256 151.519 111.07 150.98 111.826 150.38C111.983 150.383 112.142 150.385 112.301 150.385C119.865 150.385 126.596 146.816 130.897 141.268C133.091 142.093 135.463 142.55 137.942 142.55H212.73V147.597L137.942 148.248C135.783 148.248 133.662 147.934 131.61 147.322C126.731 152.906 119.78 156.083 112.301 156.083Z" fill="#A9C0D4"/>
<path fill-rule="evenodd" clip-rule="evenodd" d="M212.73 147.598V142.55H219.853V147.536L212.73 147.598Z" fill="#93A7B9"/>
<path fill-rule="evenodd" clip-rule="evenodd" d="M115.523 146.23C117.114 143.677 117.999 140.688 117.999 137.564C117.999 136.795 117.949 136.047 117.849 135.327C117.037 133.561 116.475 131.701 116.168 129.807C115.969 128.639 115.862 127.407 115.862 126.168C115.862 120.837 117.74 115.793 121.19 111.783C119.173 114.902 117.999 118.618 117.999 122.606C117.999 123.732 118.091 124.829 118.277 125.904C118.576 127.749 119.138 129.507 119.915 131.146C120.064 132.079 120.136 133.035 120.136 134.003C120.136 138.691 118.394 142.97 115.523 146.23Z" fill="#A9C0D4"/>
<path fill-rule="evenodd" clip-rule="evenodd" d="M237.66 102.663H137.942C133.106 102.663 128.676 104.386 125.221 107.243C124.744 107.641 124.281 108.062 123.839 108.503C120.235 112.115 117.999 117.1 117.999 122.606C117.999 123.732 118.091 124.828 118.277 125.904C118.576 127.749 119.138 129.507 119.915 131.146C120.064 132.079 120.136 133.035 120.136 134.003C120.136 141.054 116.196 147.179 110.399 150.307C111.026 150.356 111.66 150.385 112.301 150.385C119.865 150.385 126.596 146.816 130.897 141.268C133.091 142.093 135.463 142.55 137.942 142.55H237.66C243.166 142.55 248.152 140.312 251.763 136.709C255.366 133.098 257.603 128.112 257.603 122.606C257.603 111.595 248.671 102.663 237.66 102.663Z" fill="white"/>
<path fill-rule="evenodd" clip-rule="evenodd" d="M137.942 104.799C133.807 104.799 129.773 106.252 126.583 108.889C126.152 109.249 125.735 109.63 125.35 110.014C121.988 113.383 120.136 117.856 120.136 122.606C120.136 123.603 120.218 124.591 120.382 125.541C120.646 127.163 121.137 128.735 121.846 130.232C121.932 130.415 121.993 130.609 122.025 130.809C122.189 131.834 122.272 132.908 122.272 134.002C122.272 139.146 120.368 144 117.062 147.72C121.844 146.641 126.12 143.942 129.209 139.958C129.783 139.218 130.773 138.938 131.65 139.268C133.669 140.028 135.786 140.413 137.942 140.413H237.66C242.411 140.413 246.883 138.56 250.253 135.197C253.614 131.829 255.467 127.357 255.467 122.606C255.467 112.788 247.478 104.799 237.66 104.799H137.942ZM112.301 152.521C111.63 152.521 110.952 152.494 110.231 152.437C109.286 152.363 108.504 151.675 108.308 150.748C108.113 149.821 108.551 148.876 109.385 148.426C114.698 145.56 117.999 140.033 117.999 134.002C117.999 133.236 117.948 132.485 117.847 131.768C117.039 129.996 116.475 128.141 116.167 126.246C115.966 125.078 115.862 123.846 115.862 122.606C115.862 116.716 118.158 111.171 122.327 106.994C122.802 106.518 123.315 106.051 123.852 105.602C127.814 102.326 132.815 100.526 137.942 100.526H237.66C249.835 100.526 259.74 110.431 259.74 122.606C259.74 128.497 257.444 134.042 253.275 138.218C249.095 142.39 243.55 144.686 237.66 144.686H137.942C135.787 144.686 133.664 144.376 131.611 143.762C126.733 149.348 119.779 152.521 112.301 152.521Z" fill="#3A5C91"/>
<path fill-rule="evenodd" clip-rule="evenodd" d="M233.386 125.099H170.707C169.92 125.099 169.282 124.461 169.282 123.675C169.282 122.888 169.92 122.25 170.707 122.25H233.386C234.173 122.25 234.811 122.888 234.811 123.675C234.811 124.461 234.173 125.099 233.386 125.099Z" fill="#D9D9D9"/>
<path fill-rule="evenodd" clip-rule="evenodd" d="M233.386 116.196H170.707C169.92 116.196 169.282 115.558 169.282 114.771C169.282 113.984 169.92 113.347 170.707 113.347H233.386C234.173 113.347 234.811 113.984 234.811 114.771C234.811 115.558 234.173 116.196 233.386 116.196Z" fill="#D9D9D9"/>
<path fill-rule="evenodd" clip-rule="evenodd" d="M233.386 134.003H170.707C169.92 134.003 169.282 133.365 169.282 132.578C169.282 131.792 169.92 131.153 170.707 131.153H233.386C234.173 131.153 234.811 131.792 234.811 132.578C234.811 133.365 234.173 134.003 233.386 134.003Z" fill="#D9D9D9"/>
<path fill-rule="evenodd" clip-rule="evenodd" d="M150.763 123.319C150.763 130.006 145.341 135.427 138.654 135.427C131.967 135.427 126.546 130.006 126.546 123.319C126.546 116.631 131.967 111.21 138.654 111.21C145.341 111.21 150.763 116.631 150.763 123.319Z" fill="#FF9797"/>
<path fill-rule="evenodd" clip-rule="evenodd" d="M146.133 131.153H131.176L131.276 130.448C131.627 127.992 133.756 126.518 136.212 126.168C136.842 126.078 138.019 125.455 138.655 125.455C139.29 125.455 140.467 126.078 141.096 126.168C143.554 126.518 145.682 127.992 146.032 130.448L146.133 131.153Z" fill="#3A5C91"/>
<path fill-rule="evenodd" clip-rule="evenodd" d="M138.299 123.675C136.812 123.675 135.563 122.556 135.398 121.079L135.176 119.08C134.984 117.351 136.337 115.84 138.076 115.84H138.52C140.26 115.84 141.613 117.351 141.421 119.08L141.198 121.079C141.034 122.556 139.785 123.675 138.299 123.675Z" fill="#3A5C91"/>
<defs>
<linearGradient id="paint0_linear" x1="7.05225" y1="158.314" x2="326.204" y2="158.314" gradientUnits="userSpaceOnUse">
<stop stop-color="#EB7BB4"/>
<stop offset="1" stop-color="#9E7AEC"/>
</linearGradient>
</defs>
</svg>