<svg width="285" height="270" viewBox="0 0 285 270" fill="none" xmlns="http://www.w3.org/2000/svg">
<path fill-rule="evenodd" clip-rule="evenodd" d="M277.809 144.544C277.809 182.809 258.203 208.602 233.127 233.679C208.05 258.754 179.393 269.639 141.128 269.639C102.862 269.639 59.8374 246.354 34.7609 221.279C9.68502 196.202 0 206.223 0 167.959C0 129.693 16.1789 71.636 41.2554 46.5595C66.3313 21.4836 100.974 5.97363 139.239 5.97363C177.504 5.97363 173.859 57.322 198.934 82.3986C224.012 107.474 277.809 106.278 277.809 144.544Z" fill="url(#paint0_linear)"/>
<path fill-rule="evenodd" clip-rule="evenodd" d="M39.4058 12.7019C43.8952 14.3164 45.8482 16.2694 47.4633 20.7595C49.0778 16.2688 51.0302 14.317 55.5208 12.7019C51.0308 11.0868 49.0778 9.13446 47.4633 4.6438C45.8482 9.13446 43.8952 11.0868 39.4058 12.7019ZM47.4633 25.4033C46.9853 25.4033 46.5655 25.0846 46.4384 24.6233C44.3887 17.2013 42.9627 15.7753 35.5413 13.7262C35.08 13.5991 34.7607 13.1793 34.7607 12.7019C34.7607 12.2239 35.08 11.8042 35.5413 11.6771C42.9627 9.6286 44.3887 8.20198 46.4384 0.77996C46.5655 0.3193 46.9853 0 47.4633 0C47.9407 0 48.3598 0.3193 48.4869 0.77996C50.5373 8.20198 51.9626 9.62798 59.3847 11.6771C59.8453 11.8042 60.1646 12.2239 60.1646 12.7019C60.1646 13.1793 59.8453 13.5991 59.3847 13.7262C51.9626 15.7759 50.5373 17.2013 48.4869 24.6233C48.3598 25.0846 47.9407 25.4033 47.4633 25.4033Z" fill="#CED3E2"/>
<path fill-rule="evenodd" clip-rule="evenodd" d="M266.408 57.7625L265.757 56.7067C266.286 56.3805 266.816 56.0569 267.346 55.7339L267.992 56.7922L266.408 57.7625ZM263.269 59.7335L262.595 58.6919C263.119 58.354 263.644 58.0198 264.173 57.6894L264.831 58.7403C264.308 59.0682 263.786 59.3981 263.269 59.7335ZM260.205 61.7981L259.489 60.7863C259.998 60.4248 260.513 60.0702 261.032 59.7211L261.724 60.7497C261.214 61.0932 260.706 61.4422 260.205 61.7981ZM257.271 64.0158L256.49 63.053C256.976 62.658 257.471 62.2724 257.972 61.8936L258.719 62.8837C258.229 63.2532 257.746 63.6302 257.271 64.0158ZM254.525 66.4425L253.662 65.5528C254.101 65.1275 254.568 64.696 255.049 64.2707L255.87 65.2007C255.402 65.613 254.95 66.0315 254.525 66.4425ZM252.044 69.1172L251.086 68.3298C251.285 68.0886 251.488 67.8505 251.693 67.6168C251.904 67.3762 252.119 67.1375 252.338 66.9026L253.246 67.7476C253.036 67.9733 252.829 68.2021 252.626 68.434C252.429 68.6584 252.235 68.8866 252.044 69.1172ZM249.931 72.0721L248.876 71.4217C249.204 70.8892 249.559 70.356 249.931 69.8376L250.938 70.5599C250.583 71.0553 250.244 71.5643 249.931 72.0721ZM248.255 75.2874L247.115 74.7983C247.361 74.2241 247.637 73.6444 247.934 73.0759L249.033 73.65C248.751 74.1907 248.489 74.7418 248.255 75.2874ZM257.33 78.3533C256.743 78.2994 256.133 78.2653 255.516 78.2523L255.542 77.0123C256.188 77.0265 256.828 77.0619 257.443 77.1189L257.33 78.3533ZM251.871 78.3924L251.758 77.158C252.402 77.0985 253.037 77.0557 253.645 77.0315L253.695 78.2703C253.108 78.2938 252.494 78.3347 251.871 78.3924ZM248.236 78.8834L248.025 77.6614C248.644 77.5548 249.264 77.4581 249.884 77.3737L250.051 78.602C249.445 78.6844 248.839 78.7793 248.236 78.8834ZM260.882 78.9808C260.308 78.8252 259.716 78.6931 259.123 78.5889L259.337 77.3675C259.967 77.4785 260.597 77.6186 261.208 77.7848L260.882 78.9808ZM244.612 79.6002L244.348 78.3887C244.896 78.269 245.446 78.1525 245.996 78.0415C246.123 77.5566 246.268 77.0668 246.431 76.582L247.606 76.9769C247.413 77.5542 247.245 78.1376 247.107 78.7111L246.281 78.5127L246.422 79.2207C245.818 79.3416 245.214 79.4687 244.612 79.6002ZM264.246 80.2487C263.718 79.987 263.163 79.7471 262.597 79.5338L263.034 78.3732C263.639 78.6007 264.232 78.858 264.796 79.137L264.246 80.2487ZM241.006 80.4359L240.711 79.2313C241.316 79.0831 241.922 78.9392 242.527 78.7991L242.807 80.0069C242.207 80.1458 241.605 80.2884 241.006 80.4359ZM237.424 81.3653L237.095 80.1693C237.696 80.0038 238.298 79.8432 238.9 79.687L239.211 80.8879C238.615 81.0423 238.019 81.201 237.424 81.3653ZM267.257 82.1725C266.805 81.803 266.317 81.4509 265.809 81.1272L266.475 80.0813C267.025 80.4316 267.552 80.8123 268.041 81.2122L267.257 82.1725ZM246.604 82.2668L245.366 82.2197C245.389 81.5891 245.448 80.9443 245.539 80.3045L246.767 80.4799C246.682 81.0776 246.627 81.679 246.604 82.2668ZM233.873 82.4032L233.504 81.219C234.1 81.0336 234.697 80.8538 235.296 80.679L235.643 81.8694C235.051 82.0423 234.462 82.2203 233.873 82.4032ZM230.363 83.5669L229.95 82.3982C230.538 82.1899 231.13 81.9884 231.722 81.7919L232.112 82.9686C231.527 83.1627 230.944 83.3623 230.363 83.5669ZM269.678 84.7542C269.344 84.2787 268.967 83.8174 268.559 83.384L269.461 82.5334C269.91 83.0102 270.324 83.5173 270.693 84.0412L269.678 84.7542ZM226.906 84.8714L226.443 83.7219C227.022 83.4882 227.603 83.2613 228.19 83.0405L228.627 84.2006C228.05 84.4182 227.477 84.6414 226.906 84.8714ZM245.64 86.0599C245.523 85.4319 245.441 84.7877 245.395 84.146L246.632 84.058C246.674 84.6532 246.75 85.2502 246.859 85.8324L245.64 86.0599ZM223.519 86.3346L222.998 85.2093C223.565 84.947 224.137 84.6922 224.712 84.4436L225.203 85.5819C224.638 85.8262 224.076 86.0767 223.519 86.3346ZM271.088 87.8263C271.034 87.3619 270.868 86.8517 270.58 86.267L271.693 85.7202C272.044 86.4338 272.249 87.0767 272.319 87.685L271.088 87.8263ZM220.215 87.9739L219.632 86.8796C220.184 86.5857 220.742 86.2993 221.303 86.0203L221.855 87.1313C221.303 87.4047 220.757 87.6856 220.215 87.9739ZM246.873 89.7347C246.586 89.1531 246.338 88.5499 246.133 87.9416L247.308 87.5455C247.495 88.1016 247.724 88.654 247.986 89.1872L246.873 89.7347ZM217.022 89.8041L216.37 88.7489C216.903 88.4203 217.441 88.1004 217.986 87.7885L218.603 88.8642C218.07 89.1699 217.542 89.483 217.022 89.8041ZM270.837 91.5178L269.916 90.6876C270.348 90.2071 270.654 89.7595 270.848 89.318L271.983 89.8202C271.734 90.3832 271.359 90.9381 270.837 91.5178ZM213.959 91.8408L213.237 90.8339C213.746 90.4675 214.262 90.111 214.785 89.7632L215.472 90.7961C214.961 91.1353 214.456 91.4837 213.959 91.8408ZM248.996 92.9643C248.578 92.4745 248.188 91.953 247.834 91.4167L248.869 90.7347C249.195 91.2289 249.556 91.7088 249.939 92.1601L248.996 92.9643ZM267.986 94.0672L267.222 93.0914C267.676 92.7355 268.135 92.3536 268.626 91.9233L269.443 92.8558C268.935 93.3015 268.458 93.6977 267.986 94.0672ZM211.063 94.0933L210.264 93.1453C210.744 92.7404 211.232 92.3455 211.728 91.9605L212.489 92.9395C212.005 93.3152 211.53 93.6996 211.063 94.0933ZM251.863 95.5676C251.336 95.2025 250.825 94.7957 250.344 94.3574L251.179 93.4404C251.62 93.8422 252.088 94.2148 252.569 94.5477L251.863 95.5676ZM264.801 96.1796L264.214 95.0865C264.718 94.8168 265.237 94.5043 265.754 94.1578L266.444 95.1882C265.893 95.5571 265.341 95.8907 264.801 96.1796ZM208.358 96.5671L207.484 95.6879C207.929 95.2446 208.383 94.8112 208.847 94.3878L209.683 95.3029C209.234 95.7146 208.792 96.1356 208.358 96.5671ZM255.349 97.2962C254.738 97.1028 254.129 96.8554 253.538 96.5603L254.093 95.4511C254.625 95.7171 255.174 95.9403 255.723 96.1145L255.349 97.2962ZM261.179 97.5591L260.908 96.3488C261.466 96.2242 262.034 96.0512 262.597 95.8336L263.044 96.9905C262.422 97.2305 261.794 97.4214 261.179 97.5591ZM258.753 97.8325C258.258 97.8319 257.756 97.7972 257.262 97.7296L257.431 96.5007C258.009 96.5807 258.591 96.6092 259.174 96.5832L259.229 97.822C259.07 97.8288 258.911 97.8325 258.753 97.8325ZM206.157 98.9349L205.216 98.1258C205.532 97.76 205.852 97.3997 206.178 97.0463L207.09 97.8864C206.774 98.2299 206.463 98.579 206.157 98.9349Z" fill="#6481AD"/>
<path fill-rule="evenodd" clip-rule="evenodd" d="M279.648 51.5438L269.809 48.1474L268.785 47.7977L268.787 47.8064L268.77 47.8132L267.838 53.0417L265.399 46.6656L264.823 46.4139L258.086 43.4807L281.052 31.2233L283.023 30.1736L279.648 51.5438ZM282.534 29.2628L257.603 42.5748L255.73 43.5737L257.675 44.4274L264.592 47.4375L267.632 55.3877L268.198 56.8702L268.321 56.1807L268.708 54.0138L268.852 53.2215L269.578 49.1561L271.893 49.9541L272.922 50.3093L279.313 52.5165L280.471 52.9177L280.662 51.7037L284.361 28.29L282.534 29.2628Z" fill="#6481AD"/>
<path fill-rule="evenodd" clip-rule="evenodd" d="M269.591 48.4473L268.776 47.8193L278.931 34.5327L265.335 47.2576L264.631 46.5055L282.855 29.4512L283.614 30.1412L269.591 48.4473Z" fill="#6481AD"/>
<path fill-rule="evenodd" clip-rule="evenodd" d="M273.273 49.8664L272.922 50.3091L268.199 56.8699L268.193 56.3448L267.916 56.129L267.632 55.3875L268.585 54.7037L271.894 49.9538L272.46 49.2334L273.273 49.8664Z" fill="#6481AD"/>
<path fill-rule="evenodd" clip-rule="evenodd" d="M238.464 111.724V245.607C238.464 247.398 237.714 249.017 236.511 250.158C235.382 251.23 233.863 251.881 232.189 251.881H40.7583C39.0843 251.881 37.5653 251.23 36.4369 250.158C35.2341 249.017 34.4839 247.398 34.4839 245.607V111.724L136.474 53.0161L238.464 111.724Z" fill="#A4E4FF"/>
<path fill-rule="evenodd" clip-rule="evenodd" d="M36.3435 112.8V245.607C36.3435 246.831 36.8315 247.968 37.7162 248.808C38.5402 249.591 39.6196 250.021 40.7579 250.021H232.189C233.327 250.021 234.407 249.591 235.228 248.81C236.116 247.968 236.604 246.831 236.604 245.607V112.8L136.474 55.1619L36.3435 112.8ZM232.189 253.741H40.7579C38.6611 253.741 36.6715 252.947 35.155 251.505C33.5467 249.98 32.6235 247.83 32.6235 245.607V111.724C32.6235 111.059 32.9788 110.444 33.556 110.112L135.545 51.4041C136.12 51.0736 136.827 51.0736 137.402 51.4041L239.392 110.112C239.968 110.444 240.324 111.059 240.324 111.724V245.607C240.324 247.83 239.4 249.981 237.79 251.507C236.276 252.947 234.287 253.741 232.189 253.741Z" fill="#3A5C91"/>
<path fill-rule="evenodd" clip-rule="evenodd" d="M209.944 183.061H63.0039V60.3014C63.0039 53.4528 68.5554 47.9014 75.4039 47.9014H175.985L209.944 82.4781V183.061Z" fill="white"/>
<path fill-rule="evenodd" clip-rule="evenodd" d="M64.8636 181.202H208.084V83.239L175.204 49.7615H75.4036C69.5917 49.7615 64.8636 54.4896 64.8636 60.3015V181.202ZM209.944 184.922H63.0036C61.9762 184.922 61.1436 184.089 61.1436 183.062V60.3015C61.1436 52.4387 67.5407 46.0415 75.4036 46.0415H175.984C176.483 46.0415 176.962 46.2424 177.312 46.5983L211.271 81.175C211.612 81.5229 211.804 81.991 211.804 82.4783V183.062C211.804 184.089 210.971 184.922 209.944 184.922Z" fill="#3A5C91"/>
<path fill-rule="evenodd" clip-rule="evenodd" d="M61.1437 133.381L38.125 112.514L61.1437 131.004V133.381ZM211.804 133.359V130.813L235.16 111.969L235.307 112.053L211.804 133.359Z" fill="#87BAD0"/>
<path fill-rule="evenodd" clip-rule="evenodd" d="M235.307 112.053L235.161 111.969L237.819 109.824C237.827 109.816 237.835 109.812 237.843 109.812C237.869 109.812 237.895 109.855 237.921 109.938C237.654 110.015 237.404 110.152 237.19 110.346L235.307 112.053Z" fill="#324E78"/>
<path fill-rule="evenodd" clip-rule="evenodd" d="M159.113 181.124H113.81L64.8638 136.753V133.992L114.374 173.761H158.574L208.084 133.814V136.731L159.113 181.124Z" fill="#D0D0D0"/>
<path fill-rule="evenodd" clip-rule="evenodd" d="M64.8636 136.754L61.1436 133.382V131.004L64.8636 133.992V136.754ZM208.084 136.731V133.815L211.804 130.813V133.359L208.084 136.731Z" fill="#324E78"/>
<path fill-rule="evenodd" clip-rule="evenodd" d="M238.439 182.984V245.529C238.439 247.321 237.689 248.939 236.486 250.08C235.358 251.153 233.839 251.804 232.165 251.804H40.7334C39.0594 251.804 37.5404 251.153 36.412 250.08C35.2092 248.939 34.459 247.321 34.459 245.529V182.984H238.439Z" fill="white"/>
<path fill-rule="evenodd" clip-rule="evenodd" d="M36.3191 184.844V245.53C36.3191 246.754 36.8071 247.891 37.6918 248.731C38.5158 249.514 39.5952 249.944 40.7335 249.944H232.165C233.303 249.944 234.382 249.514 235.204 248.733C236.092 247.891 236.579 246.754 236.579 245.53V184.844H36.3191ZM232.165 253.664H40.7335C38.6367 253.664 36.6471 252.87 35.1306 251.429C33.5223 249.903 32.5991 247.753 32.5991 245.53V182.984C32.5991 181.957 33.4318 181.124 34.4591 181.124H238.439C239.466 181.124 240.299 181.957 240.299 182.984V245.53C240.299 247.753 239.376 249.904 237.766 251.43C236.252 252.87 234.262 253.664 232.165 253.664Z" fill="#3A5C91"/>
<path fill-rule="evenodd" clip-rule="evenodd" d="M112.939 182.844L36.4369 250.158C35.2341 249.017 34.4839 247.399 34.4839 245.607V111.724L112.939 182.844Z" fill="#F2F4FF"/>
<path fill-rule="evenodd" clip-rule="evenodd" d="M159.984 182.844L236.486 250.158C237.689 249.017 238.439 247.399 238.439 245.607V111.724L159.984 182.844Z" fill="#F2F4FF"/>
<path fill-rule="evenodd" clip-rule="evenodd" d="M36.3435 115.92V245.607C36.3435 246.246 36.4762 246.861 36.7292 247.423L110.146 182.824L36.3435 115.92ZM36.4365 252.017C35.9753 252.017 35.5146 251.846 35.1569 251.507C33.5467 249.98 32.6235 247.83 32.6235 245.607V111.724C32.6235 110.988 33.0575 110.321 33.7296 110.023C34.4029 109.726 35.1879 109.851 35.7328 110.346L114.188 181.466C114.58 181.822 114.802 182.328 114.798 182.858C114.795 183.387 114.565 183.891 114.167 184.24L37.6654 251.554C37.3132 251.864 36.8749 252.017 36.4365 252.017Z" fill="#3A5C91"/>
<path fill-rule="evenodd" clip-rule="evenodd" d="M162.776 182.824L236.193 247.423C236.446 246.861 236.579 246.246 236.579 245.607V115.92L162.776 182.824ZM236.486 252.018C236.048 252.018 235.609 251.864 235.257 251.554L158.755 184.24C158.358 183.891 158.128 183.387 158.124 182.858C158.12 182.328 158.342 181.822 158.735 181.466L237.19 110.346C237.734 109.852 238.519 109.725 239.193 110.023C239.866 110.322 240.299 110.988 240.299 111.724V245.607C240.299 247.83 239.376 249.981 237.766 251.507C237.407 251.847 236.947 252.018 236.486 252.018Z" fill="#3A5C91"/>
<path fill-rule="evenodd" clip-rule="evenodd" d="M232.164 249.944H40.7331C40.3629 249.944 39.9984 249.898 39.6475 249.81L49.3598 241.264H223.562L233.269 249.805C232.912 249.897 232.541 249.944 232.164 249.944Z" fill="#D0D0D0"/>
<path fill-rule="evenodd" clip-rule="evenodd" d="M232.189 250.021H40.758C40.3569 250.021 39.9632 249.968 39.585 249.864L39.6476 249.81C39.9985 249.898 40.3631 249.944 40.7332 249.944H232.164C232.541 249.944 232.912 249.896 233.269 249.805L233.343 249.869C232.971 249.97 232.584 250.021 232.189 250.021Z" fill="#324E78"/>
<path fill-rule="evenodd" clip-rule="evenodd" d="M236.193 247.423L229.193 241.264H232.164C233.303 241.264 234.382 240.834 235.204 240.052C236.091 239.211 236.579 238.074 236.579 236.849V245.607C236.579 246.246 236.446 246.861 236.193 247.423Z" fill="#C6C7D0"/>
<path fill-rule="evenodd" clip-rule="evenodd" d="M36.7294 247.423C36.5105 246.936 36.3809 246.408 36.3506 245.86C36.3506 245.86 36.3506 245.86 36.3506 245.86C36.3506 245.855 36.3499 245.85 36.3499 245.846C36.3499 245.845 36.3499 245.844 36.3499 245.844C36.3499 245.84 36.3493 245.835 36.3493 245.831C36.3493 245.831 36.3493 245.829 36.3493 245.828C36.3487 245.824 36.3487 245.821 36.3487 245.817C36.3487 245.816 36.3487 245.814 36.3487 245.813C36.3481 245.809 36.3481 245.806 36.3481 245.802C36.3481 245.801 36.3481 245.8 36.3475 245.798C36.3475 245.795 36.3475 245.791 36.3475 245.788C36.3475 245.786 36.3475 245.785 36.3468 245.783C36.3468 245.78 36.3468 245.777 36.3468 245.773C36.3468 245.772 36.3468 245.77 36.3468 245.769C36.3462 245.765 36.3462 245.762 36.3462 245.759C36.3462 245.757 36.3462 245.755 36.3462 245.754C36.3462 245.751 36.3456 245.747 36.3456 245.744C36.3456 245.742 36.3456 245.741 36.3456 245.739C36.3456 245.736 36.3456 245.733 36.3456 245.729C36.3456 245.728 36.3456 245.726 36.345 245.724C36.345 245.721 36.345 245.718 36.345 245.715C36.345 245.713 36.345 245.711 36.345 245.71C36.345 245.707 36.345 245.703 36.345 245.7C36.3444 245.698 36.3444 245.697 36.3444 245.695C36.3444 245.692 36.3444 245.689 36.3444 245.686C36.3444 245.684 36.3444 245.682 36.3444 245.68C36.3444 245.677 36.3444 245.674 36.3444 245.672C36.3444 245.669 36.3444 245.667 36.3444 245.665C36.3444 245.662 36.3438 245.659 36.3438 245.657C36.3438 245.655 36.3438 245.653 36.3438 245.651C36.3438 245.648 36.3438 245.644 36.3438 245.641C36.3438 245.639 36.3438 245.638 36.3438 245.636C36.3438 245.632 36.3438 245.629 36.3438 245.625C36.3438 245.624 36.3438 245.623 36.3438 245.622C36.3438 245.617 36.3438 245.612 36.3438 245.607V237.318C36.4522 238.361 36.921 239.319 37.6922 240.05C38.5156 240.834 39.595 241.264 40.7333 241.264H43.7292L36.7294 247.423Z" fill="#C6C7D0"/>
<path fill-rule="evenodd" clip-rule="evenodd" d="M39.5851 249.864C38.8907 249.674 38.2503 249.315 37.7171 248.808C36.8925 248.027 36.4132 246.988 36.3506 245.86C36.3809 246.408 36.5105 246.936 36.7294 247.423L43.7292 241.264H49.36L39.6477 249.81L39.5851 249.864ZM36.3506 245.86C36.3506 245.855 36.3499 245.85 36.3499 245.846C36.3499 245.85 36.3506 245.855 36.3506 245.86ZM36.3499 245.844C36.3499 245.84 36.3493 245.836 36.3493 245.831C36.3493 245.836 36.3499 245.84 36.3499 245.844ZM36.3493 245.828C36.3487 245.824 36.3487 245.821 36.3487 245.817C36.3487 245.821 36.3487 245.824 36.3493 245.828ZM36.3487 245.813C36.3481 245.81 36.3481 245.806 36.3481 245.802C36.3481 245.806 36.3481 245.81 36.3487 245.813ZM36.3475 245.798C36.3475 245.795 36.3475 245.792 36.3475 245.788C36.3475 245.792 36.3475 245.795 36.3475 245.798ZM36.3468 245.783C36.3468 245.78 36.3468 245.777 36.3468 245.774C36.3468 245.777 36.3468 245.78 36.3468 245.783ZM36.3468 245.769C36.3462 245.765 36.3462 245.762 36.3462 245.759C36.3462 245.762 36.3462 245.765 36.3468 245.769ZM36.3462 245.754C36.3462 245.751 36.3456 245.748 36.3456 245.744C36.3456 245.748 36.3462 245.751 36.3462 245.754ZM36.3456 245.739C36.3456 245.736 36.3456 245.733 36.3456 245.73C36.3456 245.733 36.3456 245.736 36.3456 245.739ZM36.345 245.725C36.345 245.721 36.345 245.718 36.345 245.715C36.345 245.718 36.345 245.721 36.345 245.725ZM36.345 245.71C36.345 245.707 36.345 245.703 36.345 245.7C36.345 245.703 36.345 245.707 36.345 245.71ZM36.3444 245.695C36.3444 245.692 36.3444 245.689 36.3444 245.686C36.3444 245.689 36.3444 245.692 36.3444 245.695ZM36.3444 245.68C36.3444 245.677 36.3444 245.674 36.3444 245.672C36.3444 245.674 36.3444 245.677 36.3444 245.68ZM36.3444 245.665C36.3444 245.663 36.3438 245.659 36.3438 245.657C36.3438 245.659 36.3444 245.663 36.3444 245.665ZM36.3438 245.651C36.3438 245.648 36.3438 245.644 36.3438 245.641C36.3438 245.644 36.3438 245.648 36.3438 245.651ZM36.3438 245.636C36.3438 245.633 36.3438 245.628 36.3438 245.625C36.3438 245.629 36.3438 245.632 36.3438 245.636ZM36.3438 245.622C36.3438 245.617 36.3438 245.612 36.3438 245.607C36.3438 245.612 36.3438 245.617 36.3438 245.622Z" fill="#324E78"/>
<path fill-rule="evenodd" clip-rule="evenodd" d="M233.343 249.869L233.269 249.805L223.562 241.264H229.193L236.193 247.423C236.446 246.861 236.579 246.246 236.579 245.607V184.921H236.604V245.607C236.604 246.831 236.116 247.969 235.228 248.81C234.691 249.321 234.045 249.681 233.343 249.869Z" fill="#324E78"/>
<path fill-rule="evenodd" clip-rule="evenodd" d="M208.084 87.5813H185.144C178.99 87.5813 173.984 82.5748 173.984 76.4213V51.6213C173.984 50.8692 174.437 50.1909 175.132 49.9026C175.184 49.8815 175.236 49.8629 175.288 49.8462L208.084 83.2388V87.5813Z" fill="#D0D0D0"/>
<path fill-rule="evenodd" clip-rule="evenodd" d="M209.944 87.5812H208.084V83.2388L175.288 49.8462C175.47 49.7891 175.658 49.7612 175.844 49.7612C176.328 49.7612 176.804 49.9503 177.159 50.3062L211.259 84.4062C211.61 84.7571 211.799 85.2252 211.804 85.7026V85.7398C211.801 85.9736 211.755 86.2086 211.662 86.433C211.375 87.128 210.696 87.5812 209.944 87.5812Z" fill="#324E78"/>
<path fill-rule="evenodd" clip-rule="evenodd" d="M209.944 82.0014H185.144C180.008 82.0014 175.844 77.8374 175.844 72.7014V47.9014L209.944 82.0014Z" fill="#FFD599"/>
<path fill-rule="evenodd" clip-rule="evenodd" d="M177.704 52.3921V72.7014C177.704 76.8039 181.041 80.1414 185.144 80.1414H205.454L177.704 52.3921ZM209.944 83.8614H185.144C178.99 83.8614 173.984 78.8549 173.984 72.7014V47.9014C173.984 47.1493 174.437 46.4711 175.132 46.1834C175.828 45.8951 176.629 46.0544 177.159 46.5864L211.259 80.6864C211.791 81.2183 211.95 82.0181 211.663 82.7132C211.375 83.4082 210.697 83.8614 209.944 83.8614Z" fill="#3A5C91"/>
<path fill-rule="evenodd" clip-rule="evenodd" d="M131.179 77.6614H85.9191C84.8917 77.6614 84.0591 76.8288 84.0591 75.8014C84.0591 74.7741 84.8917 73.9414 85.9191 73.9414H131.179C132.206 73.9414 133.039 74.7741 133.039 75.8014C133.039 76.8288 132.206 77.6614 131.179 77.6614Z" fill="#3A5C91"/>
<path fill-rule="evenodd" clip-rule="evenodd" d="M142.959 101.195H85.9191C84.8917 101.195 84.0591 100.362 84.0591 99.3351C84.0591 98.3084 84.8917 97.4751 85.9191 97.4751H142.959C143.986 97.4751 144.819 98.3084 144.819 99.3351C144.819 100.362 143.986 101.195 142.959 101.195Z" fill="#3A5C91"/>
<path fill-rule="evenodd" clip-rule="evenodd" d="M193.179 101.195H164.039C163.011 101.195 162.179 100.362 162.179 99.3351C162.179 98.3084 163.011 97.4751 164.039 97.4751H193.179C194.206 97.4751 195.039 98.3084 195.039 99.3351C195.039 100.362 194.206 101.195 193.179 101.195Z" fill="#3A5C91"/>
<path fill-rule="evenodd" clip-rule="evenodd" d="M182.019 148.264H85.9191C84.8917 148.264 84.0591 147.431 84.0591 146.404C84.0591 145.377 84.8917 144.544 85.9191 144.544H182.019C183.046 144.544 183.879 145.377 183.879 146.404C183.879 147.431 183.046 148.264 182.019 148.264Z" fill="#3A5C91"/>
<path fill-rule="evenodd" clip-rule="evenodd" d="M193.204 124.768H147.943C146.916 124.768 146.083 123.936 146.083 122.908C146.083 121.881 146.916 121.048 147.943 121.048H193.204C194.231 121.048 195.064 121.881 195.064 122.908C195.064 123.936 194.231 124.768 193.204 124.768Z" fill="#3A5C91"/>
<path fill-rule="evenodd" clip-rule="evenodd" d="M134.899 124.691H85.9191C84.8917 124.691 84.0591 123.858 84.0591 122.831C84.0591 121.803 84.8917 120.971 85.9191 120.971H134.899C135.926 120.971 136.759 121.803 136.759 122.831C136.759 123.858 135.926 124.691 134.899 124.691Z" fill="#3A5C91"/>
<path fill-rule="evenodd" clip-rule="evenodd" d="M254.559 253.664H17.0988C16.0714 253.664 15.2388 252.831 15.2388 251.804C15.2388 250.777 16.0714 249.944 17.0988 249.944H254.559C255.586 249.944 256.419 250.777 256.419 251.804C256.419 252.831 255.586 253.664 254.559 253.664Z" fill="#3A5C91"/>
<defs>
<linearGradient id="paint0_linear" x1="9.05555e-07" y1="137.806" x2="277.809" y2="137.806" gradientUnits="userSpaceOnUse">
<stop stop-color="#EB7BB4"/>
<stop offset="1" stop-color="#9E7AEC"/>
</linearGradient>
</defs>
</svg>
