<svg width="491" height="380" viewBox="0 0 491 380" fill="none" xmlns="http://www.w3.org/2000/svg">
<path d="M418.564 115.241C422.89 116.735 425.055 118.903 426.55 123.227C428.044 118.903 430.211 116.735 434.537 115.241C430.211 113.747 428.044 111.58 426.55 107.256C425.055 111.58 422.89 113.747 418.564 115.241ZM426.55 132.175C425.727 132.175 425.02 131.586 424.871 130.777C422.898 120.059 421.733 118.893 411.016 116.921C410.205 116.772 409.617 116.065 409.617 115.241C409.617 114.417 410.205 113.711 411.016 113.562C421.733 111.589 422.898 110.424 424.871 99.7053C425.02 98.8955 425.727 98.3072 426.55 98.3072C427.374 98.3072 428.081 98.8955 428.229 99.7053C430.203 110.424 431.369 111.589 442.086 113.562C442.895 113.711 443.483 114.417 443.483 115.241C443.483 116.065 442.895 116.772 442.086 116.921C431.369 118.893 430.203 120.059 428.229 130.777C428.081 131.586 427.374 132.175 426.55 132.175Z" fill="#F9B4C0"/>
<path d="M453.154 43.699C452.826 43.9284 452.653 44.233 452.577 44.3981C452.454 44.668 452.224 45.373 452.739 46.0968L471.011 71.7783C471.526 72.502 472.268 72.5159 472.564 72.4872C472.859 72.4595 473.585 72.3063 473.956 71.4965L487.058 42.8339C487.429 42.024 487.068 41.3754 486.897 41.1341C486.724 40.8919 486.229 40.3392 485.344 40.4232L453.968 43.4073C453.627 43.44 453.36 43.5547 453.154 43.699ZM475.508 72.2074L475.515 72.2025L475.508 72.2074ZM475.342 74.9928C474.632 75.4881 473.795 75.8006 472.888 75.8866C471.044 76.0626 469.302 75.2657 468.228 73.7578L449.956 48.0773C448.883 46.5685 448.702 44.6621 449.471 42.9792C450.241 41.2943 451.801 40.1849 453.644 40.0079L485.02 37.0238C486.863 36.8488 488.606 37.6448 489.678 39.1536C490.752 40.6625 490.934 42.5688 490.165 44.2537L477.061 72.9173H477.061C476.669 73.7726 476.075 74.4796 475.342 74.9928Z" fill="#FCDF83"/>
<path fill-rule="evenodd" clip-rule="evenodd" d="M373.641 376.989H98.7621V196.523L237.264 113.179L373.641 193.078V376.989Z" fill="white"/>
<path d="M101.729 374.023H370.675V194.778L237.285 116.629L101.729 198.2V374.023ZM376.608 379.956H95.796V194.846L237.244 109.73L376.608 191.378V379.956Z" fill="#3B5696"/>
<path fill-rule="evenodd" clip-rule="evenodd" d="M373.511 377.034H98.6317V327.595L373.511 326.652V377.034Z" fill="#D3F0F5"/>
<path d="M101.598 374.067H370.545V329.629L101.598 330.55V374.067ZM376.477 380H95.6655V324.64L376.477 323.675V380Z" fill="#3B5696"/>
<path fill-rule="evenodd" clip-rule="evenodd" d="M145.632 363.146V229.048C145.632 224.679 149.174 221.137 153.542 221.137H217.705C222.073 221.137 225.615 224.679 225.615 229.048V363.146H145.632Z" fill="#FCD087"/>
<path d="M148.599 360.18H222.649V229.048C222.649 226.322 220.431 224.104 217.705 224.104H153.542C150.816 224.104 148.599 226.322 148.599 229.048V360.18ZM228.581 366.113H142.666V229.048C142.666 223.051 147.545 218.171 153.542 218.171H217.705C223.702 218.171 228.581 223.051 228.581 229.048V366.113Z" fill="#3B5696"/>
<path fill-rule="evenodd" clip-rule="evenodd" d="M347.931 88.2268V165.628L308.567 153.644V88.2268H347.931Z" fill="white"/>
<path d="M308.567 85.2603H347.931V83.7633H308.567V85.2603Z" fill="#C9D1D9"/>
<path d="M344.965 105.791L311.533 99.7449V91.193H344.965V105.791Z" fill="#DBDAD8"/>
<path d="M311.533 151.447L344.965 161.624V91.193H311.533V151.447ZM350.897 169.633L305.601 155.842V85.2604H350.897V169.633Z" fill="#3B5696"/>
<path d="M101.728 207.821V198.201L237.284 116.63L370.675 194.778V206.309L237.811 127.962L101.728 207.821Z" fill="#DBDAD8"/>
<path d="M97.9979 210.01L97.9396 196.622L98.8295 196.079L237.82 113.081L305.599 152.721V155.841L316.728 159.229L373.53 192.45L373.6 208.033L370.675 206.309V194.778L237.285 116.63L101.729 198.201V207.821L97.9979 210.01Z" fill="#32497D"/>
<path d="M316.729 159.23L305.601 155.842V152.722L316.729 159.23Z" fill="#32497D"/>
<path fill-rule="evenodd" clip-rule="evenodd" d="M346.798 92.3192H309.01C304.286 92.3192 300.457 88.4907 300.457 83.7663V83.7604C300.457 79.037 304.286 75.2075 309.01 75.2075H346.798C351.522 75.2075 355.352 79.037 355.352 83.7604V83.7663C355.352 88.4907 351.522 92.3192 346.798 92.3192Z" fill="#B59994"/>
<path d="M309.01 78.1739C305.929 78.1739 303.423 80.6794 303.423 83.7604C303.423 86.8474 305.929 89.3529 309.01 89.3529H346.798C349.879 89.3529 352.386 86.8474 352.386 83.7664C352.386 80.6794 349.879 78.1739 346.798 78.1739H309.01ZM346.798 95.2856H309.01C302.658 95.2856 297.491 90.1183 297.491 83.7664C297.491 77.4085 302.658 72.2412 309.01 72.2412H327.904H346.798C353.15 72.2412 358.318 77.4085 358.318 83.7604C358.318 90.1182 353.15 95.2856 346.798 95.2856Z" fill="#3B5696"/>
<path fill-rule="evenodd" clip-rule="evenodd" d="M338.984 212.689V281.853C338.984 284.029 337.214 285.809 335.029 285.809H265.884C263.699 285.809 261.929 284.029 261.929 281.853V212.689C261.929 210.503 263.699 208.734 265.884 208.734H335.029C337.214 208.734 338.984 210.503 338.984 212.689Z" fill="#B0E6FA"/>
<path d="M264.891 268.105V259.423L297.488 226.826V235.508L264.891 268.105ZM303.42 229.575V220.894L312.612 211.702H321.293L303.42 229.575Z" fill="#D0F0FC"/>
<path d="M276.034 282.837H265.879C265.334 282.837 264.891 282.394 264.891 281.849V277.963L297.487 245.366V261.384L276.034 282.837ZM303.42 255.451V239.433L331.151 211.702H335.029C335.575 211.702 336.018 212.146 336.018 212.691V222.853L303.42 255.451Z" fill="#D0F0FC"/>
<path d="M265.879 211.702C265.334 211.702 264.89 212.146 264.89 212.691V281.848C264.89 282.394 265.334 282.837 265.879 282.837H335.029C335.575 282.837 336.018 282.394 336.018 281.848V212.691C336.018 212.146 335.575 211.702 335.029 211.702H265.879ZM335.029 288.77H265.879C262.063 288.77 258.959 285.665 258.959 281.848V212.691C258.959 208.875 262.063 205.77 265.879 205.77H335.029C338.845 205.77 341.951 208.875 341.951 212.691V281.848C341.951 285.665 338.845 288.77 335.029 288.77Z" fill="#3B5696"/>
<path d="M297.488 285.804H303.42V208.737H297.488V285.804Z" fill="#3B5696"/>
<path d="M338.984 250.237H261.925V244.304H338.984V250.237Z" fill="#3B5696"/>
<path fill-rule="evenodd" clip-rule="evenodd" d="M89.7329 310.786L80.834 326.719L71.935 310.786L63.036 326.719L54.1371 310.786L45.2381 326.719V377.034H63.036H80.834H98.6319V326.719L89.7329 310.786Z" fill="white"/>
<path d="M48.2043 374.067H95.6655V327.492L89.7328 316.869L83.4235 328.165C82.8994 329.104 81.9087 329.685 80.8339 329.685C79.7591 329.685 78.7683 329.104 78.2443 328.165L71.9349 316.869L65.6255 328.165C65.1015 329.104 64.1107 329.685 63.036 329.685C61.9612 329.685 60.9704 329.104 60.4464 328.165L54.137 316.869L48.2043 327.492V374.067ZM98.6318 380H45.238C43.5996 380 42.2717 378.672 42.2717 377.034V326.719C42.2717 326.214 42.4012 325.715 42.6484 325.272L51.5474 309.339C52.0714 308.401 53.0622 307.819 54.137 307.819C55.2118 307.819 56.2025 308.401 56.7266 309.339L63.036 320.636L69.3453 309.339C69.8694 308.401 70.8601 307.819 71.9349 307.819C73.0097 307.819 74.0005 308.401 74.5245 309.339L80.8339 320.636L87.1433 309.339C87.6673 308.401 88.658 307.819 89.7328 307.819C90.8076 307.819 91.7984 308.401 92.3224 309.339L101.221 325.272C101.469 325.715 101.598 326.214 101.598 326.719V377.034C101.598 378.672 100.27 380 98.6318 380Z" fill="#3B5696"/>
<path d="M63.1665 361.169C62.0739 361.169 61.189 360.284 61.189 359.191V327.55C61.189 326.459 62.0739 325.573 63.1665 325.573C64.2581 325.573 65.1441 326.459 65.1441 327.55V359.191C65.1441 360.284 64.2581 361.169 63.1665 361.169Z" fill="#3B5696"/>
<path d="M80.9644 347.326C79.8718 347.326 78.9868 346.441 78.9868 345.348V326.561C78.9868 325.47 79.8718 324.584 80.9644 324.584C82.056 324.584 82.9419 325.47 82.9419 326.561V345.348C82.9419 346.441 82.056 347.326 80.9644 347.326Z" fill="#3B5696"/>
<path d="M80.9644 379.956C79.8718 379.956 78.9868 379.071 78.9868 377.978V353.259C78.9868 352.167 79.8718 351.281 80.9644 351.281C82.056 351.281 82.9419 352.167 82.9419 353.259V377.978C82.9419 379.071 82.056 379.956 80.9644 379.956Z" fill="#3B5696"/>
<path fill-rule="evenodd" clip-rule="evenodd" d="M418.007 310.786L409.108 326.719L400.209 310.786L391.31 326.719L382.412 310.786L373.513 326.719V377.034H391.31H409.108H426.906V326.719L418.007 310.786Z" fill="white"/>
<path d="M376.479 374.067H423.94V327.492L418.007 316.869L411.698 328.165C411.174 329.104 410.183 329.685 409.108 329.685C408.034 329.685 407.043 329.104 406.519 328.165L400.209 316.869L393.9 328.165C393.376 329.104 392.385 329.685 391.31 329.685C390.236 329.685 389.245 329.104 388.721 328.165L382.411 316.869L376.479 327.492V374.067ZM426.906 380H373.512C371.874 380 370.546 378.672 370.546 377.034V326.719C370.546 326.214 370.676 325.715 370.923 325.272L379.822 309.339C380.346 308.401 381.337 307.819 382.411 307.819C383.486 307.819 384.477 308.401 385.001 309.339L391.31 320.636L397.62 309.339C398.144 308.401 399.135 307.819 400.209 307.819C401.284 307.819 402.275 308.401 402.799 309.339L409.108 320.636L415.418 309.339C415.942 308.401 416.933 307.819 418.007 307.819C419.082 307.819 420.073 308.401 420.597 309.339L429.496 325.272C429.743 325.715 429.873 326.214 429.873 326.719V377.034C429.873 378.672 428.545 380 426.906 380Z" fill="#3B5696"/>
<path d="M391.441 364.135C390.348 364.135 389.463 363.25 389.463 362.157V326.561C389.463 325.47 390.348 324.584 391.441 324.584C392.533 324.584 393.419 325.47 393.419 326.561V362.157C393.419 363.25 392.533 364.135 391.441 364.135Z" fill="#3B5696"/>
<path d="M410.228 343.37C409.135 343.37 408.25 342.485 408.25 341.393V338.427C408.25 337.335 409.135 336.449 410.228 336.449C411.319 336.449 412.205 337.335 412.205 338.427V341.393C412.205 342.485 411.319 343.37 410.228 343.37Z" fill="#3B5696"/>
<path d="M410.228 379.956C409.135 379.956 408.25 379.071 408.25 377.978V353.259C408.25 352.167 409.135 351.281 410.228 351.281C411.319 351.281 412.205 352.167 412.205 353.259V377.978C412.205 379.071 411.319 379.956 410.228 379.956Z" fill="#3B5696"/>
<path fill-rule="evenodd" clip-rule="evenodd" d="M241.015 377.034H130.273V368.135C130.273 365.404 132.486 363.191 135.216 363.191H236.071C238.801 363.191 241.015 365.404 241.015 368.135V377.034Z" fill="#D0D5DD"/>
<path d="M133.239 374.067H238.049V368.135C238.049 367.044 237.162 366.157 236.071 366.157H135.216C134.126 366.157 133.239 367.044 133.239 368.135V374.067ZM241.015 380H130.272C128.634 380 127.306 378.672 127.306 377.034V368.135C127.306 363.773 130.855 360.224 135.216 360.224H236.071C240.433 360.224 243.982 363.773 243.982 368.135V377.034C243.982 378.672 242.654 380 241.015 380Z" fill="#3B5696"/>
<path d="M458.972 364.891C446.958 364.891 437.219 355.152 437.219 343.138V293.7C437.219 281.686 446.958 271.947 458.972 271.947C470.986 271.947 480.725 281.686 480.725 293.7V343.138C480.725 355.152 470.986 364.891 458.972 364.891Z" fill="#8CD592"/>
<path d="M458.973 274.913C448.613 274.913 440.186 283.34 440.186 293.7V343.138C440.186 353.497 448.613 361.925 458.973 361.925C469.331 361.925 477.759 353.497 477.759 343.138V293.7C477.759 283.34 469.331 274.913 458.973 274.913ZM458.973 367.858C445.342 367.858 434.253 356.769 434.253 343.138V293.7C434.253 280.07 445.342 268.98 458.973 268.98C472.603 268.98 483.692 280.07 483.692 293.7V343.138C483.692 356.769 472.603 367.858 458.973 367.858Z" fill="#3B5696"/>
<path d="M458.972 378.734C457.88 378.734 456.995 377.848 456.995 376.757V301.61C456.995 300.517 457.88 299.632 458.972 299.632C460.064 299.632 460.95 300.517 460.95 301.61V376.757C460.95 377.848 460.064 378.734 458.972 378.734Z" fill="#3B5696"/>
<path d="M458.972 355.003C458.488 355.003 458.003 354.827 457.623 354.471C456.825 353.726 456.781 352.474 457.527 351.676L471.37 336.845C472.115 336.044 473.368 336.003 474.164 336.749C474.963 337.494 475.006 338.745 474.261 339.543L460.418 354.375C460.028 354.793 459.5 355.003 458.972 355.003Z" fill="#3B5696"/>
<path d="M458.972 335.228C458.488 335.228 458.003 335.052 457.623 334.696C456.825 333.95 456.781 332.699 457.527 331.901L471.37 317.069C472.115 316.269 473.368 316.228 474.164 316.973C474.963 317.719 475.006 318.969 474.261 319.767L460.418 334.599C460.028 335.017 459.5 335.228 458.972 335.228Z" fill="#3B5696"/>
<path d="M458.972 347.093C458.47 347.093 457.968 346.902 457.582 346.524L444.893 334C444.116 333.232 444.108 331.98 444.875 331.202C445.643 330.425 446.896 330.419 447.673 331.184L460.362 343.708C461.139 344.475 461.147 345.728 460.38 346.505C459.993 346.896 459.483 347.093 458.972 347.093Z" fill="#3B5696"/>
<path d="M458.972 324.351C458.47 324.351 457.968 324.16 457.582 323.781L444.893 311.258C444.116 310.489 444.108 309.238 444.875 308.459C445.643 307.682 446.896 307.676 447.673 308.442L460.362 320.965C461.139 321.733 461.147 322.986 460.38 323.763C459.993 324.154 459.483 324.351 458.972 324.351Z" fill="#3B5696"/>
<path d="M402.758 180.941L263.252 100.632L236.496 85.2371L209.74 100.632L70.234 180.941C63.8564 184.629 61.6712 192.796 65.3484 199.183C69.0366 205.561 77.2048 207.746 83.5824 204.068L236.496 116.037L389.409 204.068C395.787 207.746 403.955 205.561 407.643 199.183C411.321 192.796 409.135 184.629 402.758 180.941Z" fill="#F57F92"/>
<path d="M236.497 88.6592L211.219 103.203L71.7133 183.511C66.7665 186.373 65.0619 192.741 67.9194 197.703C70.7809 202.652 77.1447 204.355 82.1004 201.499L235.016 113.467C235.932 112.94 237.06 112.94 237.976 113.467L390.89 201.497C395.845 204.357 402.211 202.653 405.076 197.698C407.93 192.742 406.227 186.376 401.277 183.51L236.497 88.6592ZM76.942 208.816C71.299 208.816 65.8015 205.892 62.7808 200.669C58.2917 192.871 60.9693 182.872 68.749 178.373L208.26 98.0615L235.017 82.6662C235.932 82.1392 237.06 82.1392 237.976 82.6662L264.731 98.0615L404.238 178.37L404.243 178.373C412.022 182.872 414.7 192.871 410.213 200.664C405.71 208.451 395.715 211.13 387.927 206.638L236.497 119.46L85.0618 206.639C82.5028 208.115 79.7046 208.816 76.942 208.816Z" fill="#3B5696"/>
<path d="M236.203 118.921C234.564 118.921 233.236 117.592 233.236 115.955V88.2691C233.236 86.6307 234.564 85.3028 236.203 85.3028C237.841 85.3028 239.169 86.6307 239.169 88.2691V115.955C239.169 117.592 237.841 118.921 236.203 118.921Z" fill="#3B5696"/>
<path d="M341.013 300.853H258.945C254.583 300.853 251.035 297.304 251.035 292.942C251.035 288.581 254.583 285.032 258.945 285.032H259.735C260.89 287.251 263.21 288.77 265.879 288.77H335.029C337.698 288.77 340.018 287.252 341.173 285.034C345.461 285.119 348.923 288.634 348.923 292.942C348.923 297.304 345.375 300.853 341.013 300.853Z" fill="#EBEBEA"/>
<path d="M335.029 288.77H265.879C263.211 288.77 260.89 287.251 259.735 285.032H297.487V285.804H303.42V285.032H341.013C341.067 285.032 341.12 285.033 341.173 285.034C340.019 287.252 337.698 288.77 335.029 288.77Z" fill="#364E87"/>
<path d="M297.488 285.804H303.42V285.033H297.488V285.804Z" fill="#364E87"/>
<path fill-rule="evenodd" clip-rule="evenodd" d="M341.013 293.931H258.945C256.214 293.931 254.001 291.719 254.001 288.988C254.001 286.258 256.214 284.044 258.945 284.044H341.013C343.744 284.044 345.957 286.258 345.957 288.988C345.957 291.719 343.744 293.931 341.013 293.931Z" fill="white"/>
<path d="M258.945 287.01C257.854 287.01 256.967 287.898 256.967 288.987C256.967 290.078 257.854 290.965 258.945 290.965H341.013C342.103 290.965 342.991 290.078 342.991 288.987C342.991 287.898 342.103 287.01 341.013 287.01H258.945ZM341.013 296.898H258.945C254.583 296.898 251.035 293.349 251.035 288.987C251.035 284.626 254.583 281.077 258.945 281.077H341.013C345.375 281.077 348.923 284.626 348.923 288.987C348.923 293.349 345.375 296.898 341.013 296.898Z" fill="#3B5696"/>
<path d="M228.581 238.556V229.047C228.581 225.732 227.09 222.759 224.744 220.763H228.292C233.199 220.763 237.191 224.754 237.191 229.662C237.191 234.472 233.354 238.402 228.581 238.556ZM142.666 238.541C138.033 238.236 134.358 234.37 134.358 229.662C134.358 224.754 138.35 220.763 143.257 220.763H146.503C144.157 222.759 142.666 225.732 142.666 229.047V238.541Z" fill="#EBEBEA"/>
<path d="M222.649 238.561H148.598V229.048C148.598 226.321 150.816 224.104 153.542 224.104H217.705C220.431 224.104 222.649 226.321 222.649 229.048V238.561Z" fill="#E6BD78"/>
<path d="M228.292 238.561H222.649V229.048C222.649 226.322 220.431 224.104 217.705 224.104H153.542C150.816 224.104 148.599 226.322 148.599 229.048V238.561H143.257C143.058 238.561 142.862 238.554 142.666 238.541V229.048C142.666 225.732 144.157 222.759 146.503 220.763H224.744C227.09 222.759 228.581 225.732 228.581 229.048V238.556C228.485 238.56 228.389 238.561 228.292 238.561Z" fill="#364E87"/>
<path fill-rule="evenodd" clip-rule="evenodd" d="M228.292 231.639H143.257C139.98 231.639 137.324 228.984 137.324 225.707C137.324 222.431 139.98 219.774 143.257 219.774H228.292C231.568 219.774 234.224 222.431 234.224 225.707C234.224 228.984 231.568 231.639 228.292 231.639Z" fill="white"/>
<path d="M143.257 222.74C141.622 222.74 140.291 224.071 140.291 225.707C140.291 227.342 141.622 228.673 143.257 228.673H228.292C229.927 228.673 231.258 227.342 231.258 225.707C231.258 224.071 229.927 222.74 228.292 222.74H143.257ZM228.292 234.606H143.257C138.35 234.606 134.358 230.614 134.358 225.707C134.358 220.799 138.35 216.808 143.257 216.808H228.292C233.198 216.808 237.191 220.799 237.191 225.707C237.191 230.614 233.198 234.606 228.292 234.606Z" fill="#3B5696"/>
<path d="M382.542 16.1321H282.676C277.769 16.1321 273.777 12.1394 273.777 7.23314C273.777 2.32684 277.769 -1.66583 282.676 -1.66583H317.466C319.105 -1.66583 320.432 -2.99376 320.432 -4.63216C320.432 -6.27056 319.105 -7.59848 317.466 -7.59848H282.676C274.497 -7.59848 267.844 -0.945016 267.844 7.23314C267.844 15.4113 274.497 22.0648 282.676 22.0648H308.384H356.834H382.542C387.449 22.0648 391.441 26.0574 391.441 30.9637C391.441 35.87 387.449 39.8627 382.542 39.8627H375.621H361.455H342.002C333.823 39.8627 327.171 46.5162 327.171 54.6943C327.171 56.3327 328.499 57.6606 330.137 57.6606C331.776 57.6606 333.103 56.3327 333.103 54.6943C333.103 49.788 337.095 45.7953 342.002 45.7953H361.455H375.621H382.542C390.72 45.7953 397.374 39.1419 397.374 30.9637C397.374 22.7856 390.72 16.1321 382.542 16.1321Z" fill="#3B5696"/>
<path d="M212.471 301.841H197.639C196.001 301.841 194.673 300.514 194.673 298.875C194.673 297.237 196.001 295.909 197.639 295.909H212.471C214.109 295.909 215.437 297.237 215.437 298.875C215.437 300.514 214.109 301.841 212.471 301.841Z" fill="#3B5696"/>
<path d="M472.388 380H29.4176C27.7796 380 26.4513 378.672 26.4513 377.034C26.4513 375.395 27.7796 374.067 29.4176 374.067H472.388C474.027 374.067 475.355 375.395 475.355 377.034C475.355 378.672 474.027 380 472.388 380Z" fill="#3B5696"/>
<path d="M16.5638 380H3.70978C2.07177 380 0.743454 378.672 0.743454 377.034C0.743454 375.395 2.07177 374.067 3.70978 374.067H16.5638C18.2019 374.067 19.5302 375.395 19.5302 377.034C19.5302 378.672 18.2019 380 16.5638 380Z" fill="#3B5696"/>
<path d="M13.2897 149.668C21.3016 152.551 24.787 156.035 27.6694 164.048C30.5506 156.034 34.0349 152.551 42.0491 149.668C34.036 146.786 30.5506 143.302 27.6694 135.287C24.787 143.302 21.3016 146.786 13.2897 149.668ZM27.6694 172.335C26.8163 172.335 26.0672 171.767 25.8404 170.943C22.1824 157.698 19.6375 155.153 6.39304 151.496C5.56983 151.269 5 150.52 5 149.668C5 148.814 5.56983 148.066 6.39304 147.839C19.6375 144.184 22.1824 141.638 25.8404 128.392C26.0672 127.57 26.8163 127 27.6694 127C28.5214 127 29.2693 127.57 29.4962 128.392C33.1553 141.638 35.699 144.182 48.9446 147.839C49.7667 148.066 50.3365 148.814 50.3365 149.668C50.3365 150.52 49.7667 151.269 48.9446 151.496C35.699 155.154 33.1553 157.698 29.4962 170.943C29.2693 171.767 28.5214 172.335 27.6694 172.335Z" fill="#D1D4E6"/>
</svg>
