<svg width="505" height="453" viewBox="0 0 505 453" fill="none" xmlns="http://www.w3.org/2000/svg">
<path d="M436.898 176.148C441.422 177.71 443.686 179.978 445.249 184.499C446.811 179.978 449.077 177.71 453.6 176.148C449.077 174.586 446.811 172.319 445.249 167.798C443.686 172.319 441.422 174.586 436.898 176.148ZM445.249 193.855C444.388 193.855 443.649 193.24 443.493 192.393C441.43 181.186 440.212 179.967 429.005 177.905C428.158 177.749 427.542 177.009 427.542 176.148C427.542 175.287 428.158 174.549 429.005 174.392C440.212 172.33 441.43 171.111 443.493 159.903C443.649 159.056 444.388 158.441 445.249 158.441C446.111 158.441 446.85 159.056 447.005 159.903C449.069 171.111 450.288 172.33 461.494 174.392C462.34 174.549 462.955 175.287 462.955 176.148C462.955 177.009 462.34 177.749 461.494 177.905C450.288 179.967 449.069 181.186 447.005 192.393C446.85 193.24 446.111 193.855 445.249 193.855Z" fill="#F9B4C0"/>
<path d="M9.01932 154.383C8.67596 154.623 8.49502 154.942 8.41551 155.114C8.28668 155.397 8.04599 156.134 8.58476 156.891L27.6909 183.745C28.23 184.502 29.0058 184.516 29.3149 184.486C29.6234 184.457 30.3827 184.297 30.7704 183.45L44.4711 153.479C44.8589 152.632 44.4815 151.954 44.3026 151.701C44.1217 151.448 43.6037 150.87 42.6783 150.958L9.87024 154.078C9.51405 154.113 9.23417 154.233 9.01932 154.383ZM32.394 184.193L32.4008 184.188L32.394 184.193ZM32.2199 187.106C31.4776 187.624 30.602 187.951 29.6537 188.041C27.726 188.225 25.9045 187.391 24.7813 185.815L5.67521 158.962C4.55247 157.384 4.36337 155.391 5.16796 153.631C5.97287 151.869 7.60409 150.709 9.53183 150.524L42.3402 147.403C44.2675 147.22 46.0892 148.053 47.211 149.631C48.3339 151.208 48.5241 153.202 47.7197 154.963L34.018 184.936H34.0172C33.608 185.83 32.986 186.569 32.2199 187.106Z" fill="#FCDF83"/>
<path d="M80.6236 21.1821C88.1102 23.8755 91.3671 27.1313 94.0604 34.619C96.7527 27.1303 100.009 23.8755 107.497 21.1821C100.01 18.4888 96.7527 15.2329 94.0604 7.74424C91.3671 15.2329 88.1102 18.4888 80.6236 21.1821ZM94.0604 42.363C93.2633 42.363 92.5633 41.8316 92.3513 41.0624C88.9332 28.6853 86.5552 26.3073 74.1791 22.8902C73.4099 22.6782 72.8774 21.9783 72.8774 21.1821C72.8774 20.3839 73.4099 19.685 74.1791 19.4731C86.5552 16.057 88.9332 13.6779 92.3513 1.30086C92.5633 0.532652 93.2633 0.000173423 94.0604 0.000173423C94.8565 0.000173423 95.5555 0.532652 95.7674 1.30086C99.1866 13.6779 101.564 16.056 113.941 19.4731C114.709 19.685 115.241 20.3839 115.241 21.1821C115.241 21.9783 114.709 22.6782 113.941 22.8902C101.564 26.3083 99.1866 28.6853 95.7674 41.0624C95.5555 41.8316 94.8565 42.363 94.0604 42.363Z" fill="#D1D4E6"/>
<path fill-rule="evenodd" clip-rule="evenodd" d="M389.927 449.849H102.497V261.143L247.322 173.994L389.927 257.541V449.849Z" fill="white"/>
<path d="M105.597 446.747H386.823V259.317L247.342 177.6L105.597 262.896V446.747ZM393.027 452.95H99.3931V259.389L247.3 170.387L393.027 255.762V452.95Z" fill="#3B5696"/>
<path fill-rule="evenodd" clip-rule="evenodd" d="M389.789 449.896H102.358V398.2L389.789 397.213V449.896Z" fill="#D3F0F5"/>
<path d="M105.461 446.793H386.687V400.326L105.461 401.289V446.793ZM392.891 452.997H99.2573V395.108L392.891 394.099V452.997Z" fill="#3B5696"/>
<path fill-rule="evenodd" clip-rule="evenodd" d="M151.506 435.373V295.151C151.506 290.583 155.209 286.88 159.777 286.88H226.869C231.437 286.88 235.141 290.583 235.141 295.151V435.373H151.506Z" fill="#FCD087"/>
<path d="M154.607 432.273H232.038V295.153C232.038 292.303 229.719 289.983 226.869 289.983H159.776C156.926 289.983 154.607 292.303 154.607 295.153V432.273ZM238.242 438.476H148.403V295.153C148.403 288.882 153.506 283.78 159.776 283.78H226.869C233.139 283.78 238.242 288.882 238.242 295.153V438.476Z" fill="#3B5696"/>
<path fill-rule="evenodd" clip-rule="evenodd" d="M363.04 147.901V228.836L321.879 216.305V147.901H363.04Z" fill="white"/>
<path d="M321.879 144.799H363.04V143.234H321.879V144.799Z" fill="#C9D1D9"/>
<path d="M359.94 166.267L324.982 159.945V151.002H359.94V166.267Z" fill="#DBDAD8"/>
<path d="M324.981 214.008L359.939 224.65V151.002H324.981V214.008ZM366.143 233.023L318.778 218.603V144.799H366.143V233.023Z" fill="#3B5696"/>
<path d="M105.598 272.955V262.895L247.343 177.6L386.824 259.317V271.373L247.894 189.449L105.598 272.955Z" fill="#DBDAD8"/>
<path d="M101.696 275.246L101.635 261.247L102.565 260.678L247.903 173.891L318.776 215.341V218.604L330.413 222.146L389.808 256.884L389.882 273.178L386.823 271.375V259.319L247.342 177.602L105.597 262.897V272.957L101.696 275.246Z" fill="#32497D"/>
<path d="M330.415 222.146L318.778 218.604V215.34L330.415 222.146Z" fill="#32497D"/>
<path fill-rule="evenodd" clip-rule="evenodd" d="M361.858 152.181H322.344C317.404 152.181 313.401 148.177 313.401 143.237V143.231C313.401 138.292 317.404 134.288 322.344 134.288H361.858C366.798 134.288 370.802 138.292 370.802 143.231V143.237C370.802 148.177 366.798 152.181 361.858 152.181Z" fill="#B59994"/>
<path d="M322.342 137.39C319.12 137.39 316.5 140.01 316.5 143.232C316.5 146.459 319.12 149.079 322.342 149.079H361.855C365.077 149.079 367.698 146.459 367.698 143.238C367.698 140.01 365.077 137.39 361.855 137.39H322.342ZM361.855 155.283H322.342C315.7 155.283 310.297 149.88 310.297 143.238C310.297 136.59 315.7 131.186 322.342 131.186H361.855C368.497 131.186 373.902 136.59 373.902 143.232C373.902 149.88 368.497 155.283 361.855 155.283Z" fill="#3B5696"/>
<path fill-rule="evenodd" clip-rule="evenodd" d="M353.685 278.045V350.368C353.685 352.643 351.835 354.504 349.55 354.504H277.248C274.963 354.504 273.112 352.643 273.112 350.368V278.045C273.112 275.76 274.963 273.909 277.248 273.909H349.55C351.835 273.909 353.685 275.76 353.685 278.045Z" fill="#B0E6FA"/>
<path d="M276.209 335.993V326.916L310.294 292.83V301.908L276.209 335.993ZM316.498 295.705V286.627L326.109 277.015H335.187L316.498 295.705Z" fill="#D0F0FC"/>
<path d="M287.861 351.397H277.243C276.673 351.397 276.209 350.934 276.209 350.363V346.3L310.294 312.215V328.964L287.861 351.397ZM316.498 322.761V306.011L345.495 277.014H349.55C350.121 277.014 350.584 277.478 350.584 278.048V288.674L316.498 322.761Z" fill="#D0F0FC"/>
<path d="M277.243 277.014C276.674 277.014 276.209 277.478 276.209 278.048V350.363C276.209 350.934 276.674 351.397 277.243 351.397H349.551C350.121 351.397 350.584 350.934 350.584 350.363V278.048C350.584 277.478 350.121 277.014 349.551 277.014H277.243ZM349.551 357.601H277.243C273.253 357.601 270.007 354.354 270.007 350.363V278.048C270.007 274.058 273.253 270.811 277.243 270.811H349.551C353.54 270.811 356.788 274.058 356.788 278.048V350.363C356.788 354.354 353.54 357.601 349.551 357.601Z" fill="#3B5696"/>
<path d="M310.294 354.5H316.497V273.914H310.294V354.5Z" fill="#3B5696"/>
<path d="M353.686 317.308H273.108V311.104H353.686V317.308Z" fill="#3B5696"/>
<path fill-rule="evenodd" clip-rule="evenodd" d="M93.0543 380.623L83.749 397.283L74.4437 380.623L65.1384 397.283L55.8331 380.623L46.5278 397.283V449.896H65.1384H83.749H102.36V397.283L93.0543 380.623Z" fill="white"/>
<path d="M49.6288 446.793H99.257V398.091L93.0535 386.983L86.456 398.795C85.9081 399.777 84.8721 400.384 83.7482 400.384C82.6243 400.384 81.5884 399.777 81.0404 398.795L74.4429 386.983L67.8455 398.795C67.2975 399.777 66.2615 400.384 65.1376 400.384C64.0138 400.384 62.9778 399.777 62.4298 398.795L55.8323 386.983L49.6288 398.091V446.793ZM102.359 452.997H46.5271C44.8138 452.997 43.4253 451.608 43.4253 449.895V397.283C43.4253 396.754 43.5607 396.233 43.8192 395.77L53.1245 379.109C53.6725 378.128 54.7085 377.52 55.8323 377.52C56.9562 377.52 57.9922 378.128 58.5402 379.109L65.1376 390.922L71.7351 379.109C72.2831 378.128 73.319 377.52 74.4429 377.52C75.5668 377.52 76.6028 378.128 77.1508 379.109L83.7482 390.922L90.3457 379.109C90.8936 378.128 91.9296 377.52 93.0535 377.52C94.1774 377.52 95.2133 378.128 95.7613 379.109L105.067 395.77C105.325 396.233 105.461 396.754 105.461 397.283V449.895C105.461 451.608 104.072 452.997 102.359 452.997Z" fill="#3B5696"/>
<path d="M65.2744 433.307C64.1319 433.307 63.2065 432.382 63.2065 431.239V398.154C63.2065 397.012 64.1319 396.086 65.2744 396.086C66.4158 396.086 67.3422 397.012 67.3422 398.154V431.239C67.3422 432.382 66.4158 433.307 65.2744 433.307Z" fill="#3B5696"/>
<path d="M83.8847 418.831C82.7423 418.831 81.8169 417.905 81.8169 416.763V397.118C81.8169 395.977 82.7423 395.05 83.8847 395.05C85.0262 395.05 85.9526 395.977 85.9526 397.118V416.763C85.9526 417.905 85.0262 418.831 83.8847 418.831Z" fill="#3B5696"/>
<path d="M83.8847 452.95C82.7423 452.95 81.8169 452.025 81.8169 450.882V425.034C81.8169 423.893 82.7423 422.966 83.8847 422.966C85.0262 422.966 85.9526 423.893 85.9526 425.034V450.882C85.9526 452.025 85.0262 452.95 83.8847 452.95Z" fill="#3B5696"/>
<path fill-rule="evenodd" clip-rule="evenodd" d="M436.317 380.623L427.012 397.283L417.707 380.623L408.402 397.283L399.096 380.623L389.791 397.283V449.896H408.402H427.012H445.623V397.283L436.317 380.623Z" fill="white"/>
<path d="M392.891 446.793H442.519V398.091L436.315 386.983L429.718 398.795C429.17 399.777 428.134 400.384 427.01 400.384C425.886 400.384 424.85 399.777 424.302 398.795L417.705 386.983L411.107 398.795C410.559 399.777 409.523 400.384 408.399 400.384C407.275 400.384 406.24 399.777 405.692 398.795L399.094 386.983L392.891 398.091V446.793ZM445.621 452.997H389.789C388.076 452.997 386.687 451.608 386.687 449.895V397.283C386.687 396.754 386.822 396.233 387.081 395.77L396.386 379.109C396.934 378.128 397.97 377.52 399.094 377.52C400.218 377.52 401.254 378.128 401.802 379.109L408.399 390.922L414.997 379.109C415.545 378.128 416.581 377.52 417.705 377.52C418.829 377.52 419.865 378.128 420.412 379.109L427.01 390.922L433.607 379.109C434.155 378.128 435.191 377.52 436.315 377.52C437.439 377.52 438.475 378.128 439.023 379.109L448.328 395.77C448.587 396.233 448.722 396.754 448.722 397.283V449.895C448.722 451.608 447.334 452.997 445.621 452.997Z" fill="#3B5696"/>
<path d="M408.538 436.408C407.395 436.408 406.47 435.483 406.47 434.34V397.119C406.47 395.977 407.395 395.051 408.538 395.051C409.679 395.051 410.605 395.977 410.605 397.119V434.34C410.605 435.483 409.679 436.408 408.538 436.408Z" fill="#3B5696"/>
<path d="M428.182 414.694C427.04 414.694 426.114 413.769 426.114 412.626V409.524C426.114 408.383 427.04 407.457 428.182 407.457C429.324 407.457 430.25 408.383 430.25 409.524V412.626C430.25 413.769 429.324 414.694 428.182 414.694Z" fill="#3B5696"/>
<path d="M428.182 452.95C427.04 452.95 426.114 452.025 426.114 450.882V425.034C426.114 423.893 427.04 422.966 428.182 422.966C429.324 422.966 430.25 423.893 430.25 425.034V450.882C430.25 452.025 429.324 452.95 428.182 452.95Z" fill="#3B5696"/>
<path fill-rule="evenodd" clip-rule="evenodd" d="M251.243 449.896H135.444V440.59C135.444 437.735 137.759 435.421 140.613 435.421H246.073C248.928 435.421 251.243 437.735 251.243 440.59V449.896Z" fill="#D0D5DD"/>
<path d="M138.546 446.793H248.142V440.59C248.142 439.449 247.215 438.522 246.074 438.522H140.614C139.474 438.522 138.546 439.449 138.546 440.59V446.793ZM251.244 452.997H135.445C133.731 452.997 132.343 451.608 132.343 449.895V440.59C132.343 436.029 136.054 432.318 140.614 432.318H246.074C250.635 432.318 254.346 436.029 254.346 440.59V449.895C254.346 451.608 252.957 452.997 251.244 452.997Z" fill="#3B5696"/>
<path d="M479.151 437.199C466.588 437.199 456.405 427.015 456.405 414.452V362.756C456.405 350.194 466.588 340.01 479.151 340.01C491.713 340.01 501.897 350.194 501.897 362.756V414.452C501.897 427.015 491.713 437.199 479.151 437.199Z" fill="#8CD592"/>
<path d="M479.152 343.112C468.319 343.112 459.507 351.925 459.507 362.757V414.453C459.507 425.284 468.319 434.097 479.152 434.097C489.983 434.097 498.796 425.284 498.796 414.453V362.757C498.796 351.925 489.983 343.112 479.152 343.112ZM479.152 440.301C464.899 440.301 453.304 428.706 453.304 414.453V362.757C453.304 348.504 464.899 336.909 479.152 336.909C493.404 336.909 505 348.504 505 362.757V414.453C505 428.706 493.404 440.301 479.152 440.301Z" fill="#3B5696"/>
<path d="M479.151 451.672C478.009 451.672 477.083 450.746 477.083 449.605V371.027C477.083 369.884 478.009 368.959 479.151 368.959C480.293 368.959 481.219 369.884 481.219 371.027V449.605C481.219 450.746 480.293 451.672 479.151 451.672Z" fill="#3B5696"/>
<path d="M479.151 426.86C478.645 426.86 478.138 426.676 477.74 426.304C476.906 425.524 476.86 424.215 477.64 423.381L492.115 407.872C492.894 407.035 494.204 406.992 495.037 407.772C495.872 408.551 495.917 409.859 495.138 410.694L480.663 426.203C480.256 426.64 479.703 426.86 479.151 426.86Z" fill="#3B5696"/>
<path d="M479.151 406.182C478.645 406.182 478.138 405.998 477.74 405.625C476.906 404.846 476.86 403.537 477.64 402.703L492.115 387.194C492.894 386.357 494.204 386.314 495.037 387.093C495.872 387.873 495.917 389.181 495.138 390.015L480.663 405.524C480.256 405.961 479.703 406.182 479.151 406.182Z" fill="#3B5696"/>
<path d="M479.152 418.587C478.627 418.587 478.101 418.388 477.698 417.992L464.43 404.896C463.617 404.093 463.609 402.784 464.411 401.97C465.214 401.157 466.524 401.151 467.336 401.951L480.605 415.047C481.417 415.849 481.426 417.159 480.624 417.972C480.219 418.381 479.685 418.587 479.152 418.587Z" fill="#3B5696"/>
<path d="M479.152 394.806C478.627 394.806 478.101 394.607 477.698 394.211L464.43 381.115C463.617 380.312 463.609 379.003 464.411 378.189C465.214 377.376 466.524 377.37 467.336 378.17L480.605 391.266C481.417 392.068 481.426 393.378 480.624 394.191C480.219 394.6 479.685 394.806 479.152 394.806Z" fill="#3B5696"/>
<path d="M420.372 244.85L274.496 160.875L246.519 144.776L218.541 160.875L72.6648 244.85C65.996 248.706 63.7111 257.246 67.5562 263.926C71.4127 270.594 79.954 272.879 86.6228 269.033L246.519 176.983L406.414 269.033C413.082 272.879 421.624 270.594 425.48 263.926C429.325 257.246 427.04 248.706 420.372 244.85Z" fill="#F57F92"/>
<path d="M246.518 148.354L220.087 163.562L74.2106 247.537C69.0379 250.529 67.2554 257.188 70.2435 262.377C73.2356 267.552 79.89 269.332 85.072 266.346L244.97 174.294C245.927 173.743 247.107 173.743 248.064 174.294L407.96 266.344C413.142 269.334 419.799 267.553 422.794 262.372C425.779 257.189 423.998 250.532 418.822 247.536L246.518 148.354ZM79.678 273.997C73.7774 273.997 68.0288 270.94 64.8702 265.478C60.1762 257.324 62.976 246.868 71.1109 242.164L216.992 158.186L244.971 142.087C245.927 141.536 247.107 141.536 248.064 142.087L276.041 158.186L421.918 242.161L421.924 242.164C430.057 246.868 432.858 257.324 428.166 265.473C423.458 273.616 413.006 276.417 404.863 271.72L246.518 180.561L88.1686 271.721C85.4928 273.264 82.5668 273.997 79.678 273.997Z" fill="#3B5696"/>
<path d="M246.212 179.997C244.498 179.997 243.11 178.607 243.11 176.895V147.945C243.11 146.232 244.498 144.844 246.212 144.844C247.925 144.844 249.313 146.232 249.313 147.945V176.895C249.313 178.607 247.925 179.997 246.212 179.997Z" fill="#3B5696"/>
<path d="M355.807 370.235H269.992C265.431 370.235 261.72 366.524 261.72 361.963C261.72 357.403 265.431 353.692 269.992 353.692H270.818C272.025 356.012 274.452 357.6 277.242 357.6H349.55C352.34 357.6 354.767 356.013 355.974 353.694C360.458 353.783 364.078 357.458 364.078 361.963C364.078 366.524 360.368 370.235 355.807 370.235Z" fill="#EBEBEA"/>
<path d="M349.551 357.601H277.244C274.454 357.601 272.027 356.012 270.819 353.692H310.295V354.499H316.499V353.692H355.809C355.865 353.692 355.92 353.693 355.976 353.694C354.769 356.014 352.342 357.601 349.551 357.601Z" fill="#364E87"/>
<path d="M310.294 354.5H316.497V353.694H310.294V354.5Z" fill="#364E87"/>
<path fill-rule="evenodd" clip-rule="evenodd" d="M355.807 362.997H269.992C267.136 362.997 264.822 360.683 264.822 357.828C264.822 354.973 267.136 352.658 269.992 352.658H355.807C358.663 352.658 360.977 354.973 360.977 357.828C360.977 360.683 358.663 362.997 355.807 362.997Z" fill="white"/>
<path d="M269.992 355.762C268.851 355.762 267.924 356.69 267.924 357.829C267.924 358.97 268.851 359.897 269.992 359.897H355.807C356.946 359.897 357.875 358.97 357.875 357.829C357.875 356.69 356.946 355.762 355.807 355.762H269.992ZM355.807 366.101H269.992C265.431 366.101 261.72 362.39 261.72 357.829C261.72 353.269 265.431 349.558 269.992 349.558H355.807C360.368 349.558 364.078 353.269 364.078 357.829C364.078 362.39 360.368 366.101 355.807 366.101Z" fill="#3B5696"/>
<path d="M238.243 305.094V295.152C238.243 291.685 236.684 288.576 234.23 286.489H237.94C243.071 286.489 247.245 290.663 247.245 295.794C247.245 300.824 243.233 304.934 238.243 305.094ZM148.404 305.078C143.56 304.76 139.717 300.717 139.717 295.794C139.717 290.663 143.891 286.489 149.023 286.489H152.417C149.963 288.576 148.404 291.685 148.404 295.152V305.078Z" fill="#EBEBEA"/>
<path d="M232.038 305.098H154.607V295.151C154.607 292.3 156.926 289.981 159.777 289.981H226.869C229.719 289.981 232.038 292.3 232.038 295.151V305.098Z" fill="#E6BD78"/>
<path d="M237.939 305.098H232.038V295.151C232.038 292.3 229.719 289.981 226.869 289.981H159.776C156.926 289.981 154.607 292.3 154.607 295.151V305.098H149.022C148.814 305.098 148.608 305.091 148.403 305.077V295.151C148.403 291.684 149.962 288.575 152.416 286.487H234.229C236.683 288.575 238.242 291.684 238.242 295.151V305.093C238.14 305.097 238.04 305.098 237.939 305.098Z" fill="#364E87"/>
<path fill-rule="evenodd" clip-rule="evenodd" d="M237.939 297.862H149.022C145.595 297.862 142.818 295.086 142.818 291.658C142.818 288.233 145.595 285.455 149.022 285.455H237.939C241.365 285.455 244.143 288.233 244.143 291.658C244.143 295.086 241.365 297.862 237.939 297.862Z" fill="white"/>
<path d="M149.023 288.556C147.312 288.556 145.921 289.947 145.921 291.658C145.921 293.368 147.312 294.759 149.023 294.759H237.94C239.65 294.759 241.042 293.368 241.042 291.658C241.042 289.947 239.65 288.556 237.94 288.556H149.023ZM237.94 300.963H149.023C143.891 300.963 139.717 296.789 139.717 291.658C139.717 286.526 143.891 282.352 149.023 282.352H237.94C243.07 282.352 247.245 286.526 247.245 291.658C247.245 296.789 243.07 300.963 237.94 300.963Z" fill="#3B5696"/>
<path d="M399.232 72.5147H294.806C289.675 72.5147 285.501 68.3398 285.501 63.2095C285.501 58.0791 289.675 53.9042 294.806 53.9042H331.185C332.899 53.9042 334.286 52.5156 334.286 50.8024C334.286 49.0892 332.899 47.7006 331.185 47.7006H294.806C286.254 47.7006 279.297 54.6579 279.297 63.2095C279.297 71.761 286.254 78.7183 294.806 78.7183H321.688H372.35H399.232C404.364 78.7183 408.538 82.8933 408.538 88.0236C408.538 93.1539 404.364 97.3289 399.232 97.3289H391.995H377.182H356.841C348.289 97.3289 341.333 104.286 341.333 112.838C341.333 114.551 342.721 115.939 344.434 115.939C346.148 115.939 347.536 114.551 347.536 112.838C347.536 107.707 351.71 103.532 356.841 103.532H377.182H391.995H399.232C407.784 103.532 414.741 96.5751 414.741 88.0236C414.741 79.472 407.784 72.5147 399.232 72.5147Z" fill="#3B5696"/>
<path d="M363.046 53.9026H345.469C343.756 53.9026 342.367 52.514 342.367 50.8008C342.367 49.0876 343.756 47.6991 345.469 47.6991H363.046C364.759 47.6991 366.147 49.0876 366.147 50.8008C366.147 52.514 364.759 53.9026 363.046 53.9026Z" fill="#3B5696"/>
<path d="M352.707 32.1912H315.486C313.773 32.1912 312.384 30.8026 312.384 29.0894C312.384 27.3762 313.773 25.9876 315.486 25.9876H352.707C354.42 25.9876 355.809 27.3762 355.809 29.0894C355.809 30.8026 354.42 32.1912 352.707 32.1912Z" fill="#3B5696"/>
<path d="M221.396 371.269H205.887C204.174 371.269 202.786 369.88 202.786 368.167C202.786 366.454 204.174 365.065 205.887 365.065H221.396C223.109 365.065 224.498 366.454 224.498 368.167C224.498 369.88 223.109 371.269 221.396 371.269Z" fill="#3B5696"/>
<path d="M493.182 452.997H29.9851C28.2723 452.997 26.8833 451.608 26.8833 449.895C26.8833 448.182 28.2723 446.793 29.9851 446.793H493.182C494.895 446.793 496.284 448.182 496.284 449.895C496.284 451.608 494.895 452.997 493.182 452.997Z" fill="#3B5696"/>
<path d="M16.5427 452.997H3.10177C1.38897 452.997 0 451.608 0 449.895C0 448.182 1.38897 446.793 3.10177 446.793H16.5427C18.2555 446.793 19.6445 448.182 19.6445 449.895C19.6445 451.608 18.2555 452.997 16.5427 452.997Z" fill="#3B5696"/>
</svg>
