<svg width="25" height="24" viewBox="0 0 25 24" fill="none" xmlns="http://www.w3.org/2000/svg">
<path d="M3.88037 11.25V9C3.88037 8.17157 4.52508 7.5 5.32037 7.5H11.0804C11.8757 7.5 12.5204 8.17157 12.5204 9V11.25" stroke="#29304C" stroke-width="1.5" stroke-linecap="round" stroke-linejoin="round"/>
<path d="M12.52 11.25V9C12.52 8.17157 13.1647 7.5 13.96 7.5H19.72C20.5153 7.5 21.16 8.17157 21.16 9V11.25" stroke="#29304C" stroke-width="1.5" stroke-linecap="round" stroke-linejoin="round"/>
<path fill-rule="evenodd" clip-rule="evenodd" d="M3.64021 11.25H21.4002C22.4606 11.25 23.3202 12.1454 23.3202 13.25V18H1.72021V13.25C1.72021 12.1454 2.57983 11.25 3.64021 11.25Z" stroke="#29304C" stroke-width="1.5" stroke-linecap="round" stroke-linejoin="round"/>
<path d="M1.72021 18V21" stroke="#29304C" stroke-width="1.5" stroke-linecap="round" stroke-linejoin="round"/>
<path d="M23.3203 18V21" stroke="#29304C" stroke-width="1.5" stroke-linecap="round" stroke-linejoin="round"/>
<path d="M21.1604 11.25V4.5C21.1604 3.67157 20.5157 3 19.7204 3H5.32037C4.52508 3 3.88037 3.67157 3.88037 4.5V11.25" stroke="#29304C" stroke-width="1.5" stroke-linecap="round" stroke-linejoin="round"/>
</svg>
