<svg width="78" height="78" viewBox="0 0 78 78" fill="none" xmlns="http://www.w3.org/2000/svg">
<path fill-rule="evenodd" clip-rule="evenodd" d="M58.8287 65.247C58.9103 65.4755 59.0888 65.6563 59.3162 65.741C63.0185 67.0814 65.7615 70.2451 66.5637 74.1C66.759 75.0569 66.5137 76.0509 65.8956 76.807C65.2775 77.5631 64.3521 78.0012 63.3755 78H13.9755C12.9983 78.0022 12.072 77.5645 11.4531 76.8083C10.8343 76.052 10.5885 75.0574 10.784 74.1C11.5822 70.2588 14.3082 67.1026 17.9925 65.754C18.2203 65.6664 18.3984 65.4835 18.48 65.2535C18.5577 65.0237 18.5291 64.7711 18.402 64.5645C15.4112 59.1902 14.176 53.0152 14.8692 46.904C15.9232 35.1092 19.9167 23.7667 26.4847 13.9132C26.6957 13.632 26.8097 13.2899 26.8097 12.9382V1.625C26.8097 0.727537 27.5372 0 28.4347 0H48.9097C49.8072 0 50.5347 0.727537 50.5347 1.625V13.1007C50.5346 13.4413 50.6415 13.7732 50.8402 14.0497C57.2659 24.0671 61.1946 35.4798 62.2965 47.3298C62.966 53.2842 61.7798 59.3001 58.9002 64.5548C58.7768 64.7641 58.7507 65.0168 58.8287 65.247ZM49.3001 65C49.6517 65 49.9938 64.886 50.2751 64.675C54.1248 61.3387 56.2 56.399 55.8878 51.3143C55.4642 39.0387 51.662 27.118 44.8996 16.8643C44.591 16.4758 44.1218 16.2495 43.6256 16.25H33.5311C33.0659 16.2481 32.6222 16.4457 32.3123 16.7928C25.6295 26.5392 21.8024 37.9588 21.2623 49.764C21.2136 56.7548 23.1636 61.75 27.0636 64.675C27.3449 64.886 27.687 65 28.0386 65H49.3001Z" fill="#8CD592"/>
<path d="M77.7692 60.8141L68.874 14.9176C67.8911 10.4592 63.9299 7.29129 59.3645 7.31261H57.681C56.3381 7.31797 55.2518 8.40718 55.25 9.75011V11.3751C55.2518 12.7206 56.342 13.8108 57.6875 13.8126H59.371C60.8571 13.8001 62.1579 14.808 62.517 16.2501L71.4187 62.1596C71.721 63.4361 71.2038 64.7666 70.1187 65.5039C69.0827 66.2303 68.7713 67.6268 69.4005 68.7246C69.6345 69.1276 69.8522 69.5371 70.0505 69.9661C70.349 70.6093 70.9124 71.0909 71.5942 71.2856C71.8122 71.3463 72.0375 71.377 72.2637 71.3766C72.7394 71.376 73.2046 71.2371 73.6027 70.9769C76.9609 68.778 78.6174 64.7375 77.7692 60.8141Z" fill="#8CD592"/>
<path d="M6.59738 62.075L15.4569 16.3442C15.7833 14.8596 17.1023 13.8046 18.6224 13.8125H20.3059C20.9535 13.8142 21.5751 13.5582 22.0337 13.1009C22.4922 12.6436 22.7499 12.0226 22.7499 11.375V9.75C22.7499 8.40381 21.6586 7.3125 20.3124 7.3125H18.6224C14.0304 7.31725 10.0642 10.5254 9.09988 15.015L0.237132 60.7295C-0.63144 64.6756 1.01966 68.7491 4.39063 70.9768C4.98203 71.3694 5.71408 71.4879 6.39913 71.3017C7.08387 71.1091 7.64947 70.6255 7.94613 69.979C8.14113 69.5565 8.35888 69.1438 8.59613 68.744C9.23824 67.6496 8.92788 66.2452 7.88438 65.5232C6.77853 64.7545 6.26564 63.3803 6.59738 62.075Z" fill="#8CD592"/>
<path d="M50.375 53.6246C50.2703 45.4502 45.4114 38.0864 37.9372 34.7746C37.605 34.6403 37.2241 34.7395 36.9995 35.0187C36.775 35.2979 36.7598 35.6912 36.9622 35.9869C39.3633 39.5508 39.6045 44.148 37.5895 47.9436C36.3941 47.1038 35.4709 45.9321 34.9342 44.5734C34.8633 44.3485 34.6982 44.1655 34.4817 44.0719C34.2653 43.9784 34.0189 43.9835 33.8065 44.0859C30.008 45.7245 27.569 49.4882 27.625 53.6246C27.625 59.9069 32.7177 64.9996 39 64.9996C45.2822 64.9996 50.375 59.9069 50.375 53.6246Z" fill="#8CD592"/>
</svg>
