<svg width="78" height="78" viewBox="0 0 78 78" fill="none" xmlns="http://www.w3.org/2000/svg">
<path fill-rule="evenodd" clip-rule="evenodd" d="M39 0C60.5391 0 78 17.4609 78 39C77.9767 60.5295 60.5295 77.9767 39 78C17.4609 78 0 60.5391 0 39C0 17.4609 17.4609 0 39 0ZM7.12431 42.7415C6.82193 43.0944 6.68885 43.5619 6.75999 44.0212C8.96457 58.0396 19.9603 69.0354 33.9787 71.24C34.4381 71.3111 34.9055 71.1781 35.2585 70.8757C35.6115 70.5733 35.8148 70.1318 35.815 69.667V65.2665C35.815 63.5075 37.241 62.0815 39 62.0815C40.759 62.0815 42.185 63.5075 42.185 65.2665V69.667C42.1852 70.1318 42.3885 70.5733 42.7415 70.8757C43.0944 71.1781 43.5619 71.3111 44.0212 71.24C49.1658 70.4423 54.0427 68.4179 58.24 65.338C58.6162 65.0651 58.8538 64.641 58.89 64.1777C58.9253 63.7134 58.7568 63.2567 58.4285 62.9265L55.3215 59.826C54.0776 58.5821 54.0776 56.5654 55.3215 55.3215C56.5654 54.0776 58.5821 54.0776 59.826 55.3215L62.9297 58.4252C63.2584 58.7541 63.7145 58.9229 64.1781 58.8873C64.6417 58.8517 65.0666 58.6152 65.3412 58.24C68.4178 54.0412 70.4408 49.1648 71.24 44.0212C71.3111 43.5619 71.1781 43.0944 70.8757 42.7415C70.5733 42.3885 70.1318 42.1852 69.667 42.185H65.2665C63.5075 42.185 62.0815 40.759 62.0815 39C62.0815 37.241 63.5075 35.815 65.2665 35.815H69.667C70.1318 35.8148 70.5733 35.6115 70.8757 35.2585C71.1781 34.9055 71.3111 34.4381 71.24 33.9787C69.0354 19.9603 58.0396 8.96457 44.0212 6.75999C43.5619 6.68885 43.0944 6.82193 42.7415 7.12431C42.3885 7.42669 42.1852 7.8682 42.185 8.33299V12.7335C42.185 14.4925 40.759 15.9185 39 15.9185C37.241 15.9185 35.815 14.4925 35.815 12.7335V8.33299C35.8148 7.8682 35.6115 7.42669 35.2585 7.12431C34.9055 6.82193 34.4381 6.68885 33.9787 6.75999C28.8342 7.55771 23.9572 9.58206 19.76 12.662C19.3838 12.9348 19.1462 13.3589 19.11 13.8222C19.0747 14.2866 19.2431 14.7433 19.5715 15.0735L22.6785 18.174C23.5644 18.9579 23.9428 20.1682 23.6613 21.3171C23.3799 22.4661 22.4848 23.3643 21.3369 23.65C20.189 23.9356 18.9773 23.5615 18.1902 22.6785L15.0865 19.5747C14.7578 19.2458 14.3018 19.0771 13.8381 19.1127C13.3745 19.1483 12.9496 19.3848 12.675 19.76C9.59266 23.9572 7.56405 28.8337 6.75999 33.9787C6.68885 34.4381 6.82193 34.9055 7.12431 35.2585C7.42669 35.6115 7.8682 35.8148 8.33299 35.815H12.7335C14.4925 35.815 15.9185 37.241 15.9185 39C15.9185 40.759 14.4925 42.185 12.7335 42.185H8.33299C7.8682 42.1852 7.42669 42.3885 7.12431 42.7415Z" fill="#45AEF1"/>
<path fill-rule="evenodd" clip-rule="evenodd" d="M54.275 19.6595C55.4629 19.2404 56.7862 19.5601 57.6518 20.4752C58.5217 21.3858 58.7728 22.7237 58.292 23.8877L49.4358 45.1492C48.6309 47.0905 47.0877 48.6325 45.1458 49.436L23.8843 58.2955C22.7186 58.7832 21.3747 58.5358 20.4593 57.6647C19.5439 56.7936 19.23 55.4637 19.6593 54.2752L27.5503 32.3442C28.3505 30.1084 30.111 28.3492 32.3473 27.5505L54.275 19.6595ZM33.4297 39.0003C33.4297 42.0768 35.9237 44.5708 39.0002 44.5708C42.0752 44.5672 44.5671 42.0753 44.5707 39.0003C44.5707 35.9238 42.0767 33.4298 39.0002 33.4298C35.9237 33.4298 33.4297 35.9238 33.4297 39.0003Z" fill="#45AEF1"/>
</svg>
