<svg width="16" height="16" viewBox="0 0 16 16" fill="none" xmlns="http://www.w3.org/2000/svg">
<path fill-rule="evenodd" clip-rule="evenodd" d="M15.8941 15.3513L11.2274 0.351334C11.1625 0.142246 10.969 -0.000191338 10.7501 1.92923e-07H8.91674C8.82469 1.92923e-07 8.75007 0.0746196 8.75007 0.166667V1C8.75007 1.36819 8.4516 1.66667 8.08341 1.66667C7.71522 1.66667 7.41674 1.36819 7.41674 1V0.166667C7.41674 0.0746196 7.34212 1.92923e-07 7.25007 1.92923e-07H5.41674C5.19781 -0.000191338 5.00429 0.142246 4.93941 0.351334L0.272739 15.3513C0.225474 15.5031 0.253195 15.6683 0.347411 15.7963C0.441627 15.9244 0.59111 16 0.750073 16H7.25007C7.34212 16 7.41674 15.9254 7.41674 15.8333V13.3333C7.41674 12.9651 7.71522 12.6667 8.08341 12.6667C8.4516 12.6667 8.75007 12.9651 8.75007 13.3333V15.8333C8.75007 15.9254 8.82469 16 8.91674 16H15.4167C15.5757 16 15.7252 15.9244 15.8194 15.7963C15.9136 15.6683 15.9413 15.5031 15.8941 15.3513ZM8.08337 2.83333C8.45156 2.83333 8.75004 3.13181 8.75004 3.5V5C8.75004 5.36819 8.45156 5.66667 8.08337 5.66667C7.71518 5.66667 7.41671 5.36819 7.41671 5V3.5C7.41671 3.13181 7.71518 2.83333 8.08337 2.83333ZM7.41671 10.3333C7.41671 10.7015 7.71518 11 8.08337 11C8.45156 11 8.75004 10.7015 8.75004 10.3333V8C8.75004 7.63181 8.45156 7.33333 8.08337 7.33333C7.71518 7.33333 7.41671 7.63181 7.41671 8V10.3333Z" fill="#29304C"/>
</svg>
