<svg width="21" height="12" viewBox="0 0 21 12" fill="none" xmlns="http://www.w3.org/2000/svg">
<path fill-rule="evenodd" clip-rule="evenodd" d="M7.24902 4.5C6.28253 4.5 5.49902 3.7165 5.49902 2.75C5.49902 1.7835 6.28253 1 7.24902 1C8.21552 1 8.99902 1.7835 8.99902 2.75C8.99902 3.21413 8.81465 3.65925 8.48646 3.98744C8.15827 4.31563 7.71315 4.5 7.24902 4.5Z" stroke="#666666" stroke-width="1.5" stroke-linecap="round" stroke-linejoin="round"/>
<path d="M1 2.75H2.5" stroke="#666666" stroke-width="1.5" stroke-linecap="round" stroke-linejoin="round"/>
<path d="M12 2.75H19.5" stroke="#666666" stroke-width="1.5" stroke-linecap="round" stroke-linejoin="round"/>
<path fill-rule="evenodd" clip-rule="evenodd" d="M13.249 10.5C12.2825 10.5 11.499 9.7165 11.499 8.75C11.499 7.7835 12.2825 7 13.249 7C14.2155 7 14.999 7.7835 14.999 8.75C14.999 9.21413 14.8146 9.65925 14.4865 9.98744C14.1583 10.3156 13.7132 10.5 13.249 10.5Z" stroke="#666666" stroke-width="1.5" stroke-linecap="round" stroke-linejoin="round"/>
<path d="M1 8.75H8.5" stroke="#666666" stroke-width="1.5" stroke-linecap="round" stroke-linejoin="round"/>
<path d="M18 8.75H19.5" stroke="#666666" stroke-width="1.5" stroke-linecap="round" stroke-linejoin="round"/>
</svg>
