<svg width="12" height="12" viewBox="0 0 12 12" fill="none" xmlns="http://www.w3.org/2000/svg">
<path d="M6.32748 8.9965C5.79064 10.1292 4.4398 10.6158 3.30398 10.0855V10.0855C2.17125 9.54866 1.68471 8.19782 2.21498 7.062L2.90598 5.5935C3.44262 4.46084 4.7933 3.97427 5.92898 4.5045V4.5045C6.57509 4.80931 7.04016 5.40033 7.18448 6.1" stroke="#666666" stroke-linecap="round" stroke-linejoin="round"/>
<path d="M5.92302 3.05349C6.45986 1.92077 7.8107 1.43422 8.94652 1.96449V1.96449C10.079 2.50133 10.5655 3.8518 10.0355 4.98749L9.34452 6.45599C8.80768 7.58872 7.45684 8.07526 6.32102 7.54499V7.54499C5.76862 7.28473 5.34461 6.81259 5.14502 6.23549" stroke="#666666" stroke-linecap="round" stroke-linejoin="round"/>
</svg>