<svg width="14" height="14" viewBox="0 0 14 14" fill="none" xmlns="http://www.w3.org/2000/svg">
<path fill-rule="evenodd" clip-rule="evenodd" d="M8.51991 12.195L8.52591 12.1985C9.6199 12.895 11.0509 12.7381 11.9679 11.821L12.3549 11.434C12.7148 11.0736 12.7148 10.4899 12.3549 10.1295L10.7244 8.5C10.364 8.14009 9.78027 8.14009 9.41991 8.5V8.5C9.24706 8.67306 9.0125 8.7703 8.76791 8.7703C8.52331 8.7703 8.28875 8.67306 8.11591 8.5L5.50691 5.8905C5.147 5.53014 5.147 4.94636 5.50691 4.586V4.586C5.67997 4.41315 5.77721 4.17859 5.77721 3.934C5.77721 3.6894 5.67997 3.45484 5.50691 3.282L3.87691 1.65C3.51655 1.29009 2.93277 1.29009 2.57241 1.65L2.18541 2.037C1.26855 2.95407 1.11143 4.3848 1.80741 5.479L1.81141 5.485C3.59811 8.12991 5.87539 10.4077 8.51991 12.195V12.195Z" stroke="#9080F0" stroke-linecap="round" stroke-linejoin="round"/>
</svg>
