<?xml version="1.0" encoding="UTF-8"?>
<svg width="24px" height="24px" viewBox="0 0 24 24" version="1.1" xmlns="http://www.w3.org/2000/svg" xmlns:xlink="http://www.w3.org/1999/xlink">
    <!-- Generator: Sketch 53.2 (72643) - https://sketchapp.com -->
    <title>submit-photos</title>
    <desc>Created with Sketch.</desc>
    <g id="Page-1" stroke="none" stroke-width="1" fill="none" fill-rule="evenodd" stroke-linecap="round" stroke-linejoin="round">
        <g id="submit-photos" stroke="#CCCCCC" stroke-width="1.5">
            <path d="M0.75,1.5 C0.75,1.08579 1.08579,0.75 1.5,0.75 L15,0.75 C15.4142,0.75 15.75,1.08579 15.75,1.5 L15.75,16.5 C15.75,16.9142 15.4142,17.25 15,17.25 L1.5,17.25 C1.08579,17.25 0.75,16.9142 0.75,16.5 L0.75,1.5 Z" id="Path"></path>
            <path d="M15.75,12.75 L0.75,12.75" id="Path"></path>
            <path d="M18.7549,6.23096 L22.7369,7.55796 C22.9256,7.62093 23.0816,7.75629 23.1705,7.93427 C23.2594,8.11225 23.2739,8.31826 23.2109,8.50696 L18.4679,22.737 C18.4049,22.9257 18.2695,23.0816 18.0916,23.1705 C17.9136,23.2594 17.7076,23.274 17.5189,23.211 L6.75488,19.623" id="Path"></path>
            <path d="M5.25,12.75 L9.4,6.81802 C9.66417,6.43952 10.0879,6.20372 10.5488,6.17872 C11.0097,6.15372 11.4564,6.34231 11.76,6.69002 L15.75,11.25" id="Path"></path>
            <path d="M5.063,6.751 C5.99526,6.751 6.751,5.99526 6.751,5.063 C6.751,4.13074 5.99526,3.375 5.063,3.375 C4.13074,3.375 3.375,4.13074 3.375,5.063 C3.375,5.99526 4.13074,6.751 5.063,6.751 Z" id="Path"></path>
        </g>
    </g>
</svg>