<svg>
    <g>
        <g>
            <path d="M11.25,18.2321 L11.25,21.7501 C11.25,22.5785 11.9216,23.2501 12.75,23.2501 L18.75,23.2501 C19.5784,23.2501 20.25,22.5785 20.25,21.7501 L20.25,18.2321" id="Path"></path>
            <path d="M23.2501,17.482 L16.7501,11.635 C16.1798,11.1221 15.3145,11.1221 14.7441,11.635 L8.24414,17.482" id="Path"></path>
            <path d="M21.75,16.132 L21.75,12" id="Path"></path>
            <path d="M8.25,12 C10.3211,12 12,10.3211 12,8.25 C12,6.17893 10.3211,4.5 8.25,4.5 C6.17893,4.5 4.5,6.17893 4.5,8.25 C4.5,10.3211 6.17893,12 8.25,12 Z" id="Path"></path>
            <path d="M8.25,23.25 C7.99846,23.2501 7.7637,23.1238 7.625,22.914 C5.824,20.2 0.75,11.657 0.75,8.25 C0.75,4.10786 4.10786,0.75 8.25,0.75 C12.3921,0.75 15.75,4.10786 15.75,8.25" id="Path"></path>
        </g>
    </g>
</svg>