<?xml version="1.0" encoding="UTF-8"?>
<svg width="21px" height="24px" viewBox="0 0 21 24" version="1.1" xmlns="http://www.w3.org/2000/svg" xmlns:xlink="http://www.w3.org/1999/xlink">
    <!-- Generator: Sketch 53.2 (72643) - https://sketchapp.com -->
    <title>submit-personal</title>
    <desc>Created with Sketch.</desc>
    <g id="Page-1" stroke="none" stroke-width="1" fill="none" fill-rule="evenodd">
        <g id="submit-personal" fill="#CCCCCC">
            <path d="M0,2.25 C0,1.00736 1.00736,0 2.25,0 L18.75,0 C19.9926,0 21,1.00736 21,2.25 L21,21.75 C21,22.9926 19.9926,24 18.75,24 L2.25,24 C1.00736,24 0,22.9926 0,21.75 L0,2.25 Z M2.25,1.5 C1.83579,1.5 1.5,1.83579 1.5,2.25 L1.5,21.75 C1.5,22.1642 1.83579,22.5 2.25,22.5 L18.75,22.5 C19.1642,22.5 19.5,22.1642 19.5,21.75 L19.5,2.25 C19.5,1.83579 19.1642,1.5 18.75,1.5 L2.25,1.5 Z M5.64,9.083 C5.64,6.3989 7.8159,4.223 10.5,4.223 C13.1841,4.223 15.36,6.3989 15.36,9.083 C15.36,11.7671 13.1841,13.943 10.5,13.943 C7.8159,13.943 5.64,11.7671 5.64,9.083 Z M10.5,5.723 C8.64432,5.723 7.14,7.22732 7.14,9.083 C7.14,10.9387 8.64432,12.443 10.5,12.443 C12.3557,12.443 13.86,10.9387 13.86,9.083 C13.86,7.22732 12.3557,5.723 10.5,5.723 Z M10.5,14.2043 C7.39031,14.2043 4.53632,15.9263 3.0865,18.6773 C2.89338,19.0438 3.03389,19.4974 3.40033,19.6905 C3.76677,19.8836 4.22038,19.7431 4.4135,19.3767 C5.6038,17.1181 7.94694,15.7043 10.5,15.7043 C13.0531,15.7043 15.3962,17.1181 16.5865,19.3767 C16.7796,19.7431 17.2332,19.8836 17.5997,19.6905 C17.9661,19.4974 18.1066,19.0438 17.9135,18.6773 C16.4637,15.9263 13.6097,14.2043 10.5,14.2043 Z" id="Shape"></path>
        </g>
    </g>
</svg>