<?xml version="1.0" encoding="UTF-8"?>
<svg width="19px" height="24px" viewBox="0 0 19 24" version="1.1" xmlns="http://www.w3.org/2000/svg" xmlns:xlink="http://www.w3.org/1999/xlink">
    <!-- Generator: Sketch 55.2 (78181) - https://sketchapp.com -->
    <title>air-conditioning</title>
    <desc>Created with Sketch.</desc>
    <g id="Page-1" stroke="none" stroke-width="1" fill="none" fill-rule="evenodd">
        <g id="Artboard" transform="translate(-638.000000, -137.000000)" fill="#29304C" fill-rule="nonzero">
            <g id="air-conditioning" transform="translate(638.000000, 136.000000)">
                <path d="M5.69,25.016 C4.195,25.016 2.768,24.379 1.774,23.268 C-0.086,21.188 -0.004,18.068 1.937,16.093 L1.937,4.746 C1.937,2.678 3.619,0.996 5.687,0.996 C7.755,0.996 9.437,2.678 9.437,4.746 L9.437,16.094 C9.492,16.151 9.547,16.209 9.6,16.268 C11.53,18.425 11.345,21.751 9.187,23.681 C8.225,24.542 6.983,25.016 5.69,25.016 Z M5.688,2.496 C4.447,2.496 3.438,3.505 3.438,4.746 L3.438,16.414 C3.438,16.627 3.347,16.831 3.188,16.973 C2.443,17.64 2.001,18.558 1.945,19.56 C1.889,20.561 2.226,21.523 2.892,22.268 C3.601,23.061 4.621,23.516 5.689,23.516 C6.613,23.516 7.5,23.177 8.187,22.563 C8.932,21.896 9.373,20.978 9.429,19.977 C9.485,18.976 9.148,18.014 8.482,17.269 C8.39,17.166 8.29,17.066 8.187,16.974 C8.028,16.832 7.937,16.628 7.937,16.415 L7.937,4.746 C7.938,3.506 6.928,2.496 5.688,2.496 Z" id="Shape"></path>
                <path d="M5.691,21.996 C4.45,21.996 3.441,20.987 3.441,19.746 C3.441,18.786 4.056,17.938 4.941,17.625 L4.941,11.496 C4.941,11.082 5.277,10.746 5.691,10.746 C6.105,10.746 6.441,11.082 6.441,11.496 L6.441,17.625 C7.326,17.938 7.941,18.786 7.941,19.746 C7.941,20.987 6.931,21.996 5.691,21.996 Z M5.691,18.996 C5.277,18.996 4.941,19.332 4.941,19.746 C4.941,20.16 5.277,20.496 5.691,20.496 C6.105,20.496 6.441,20.16 6.441,19.746 C6.441,19.332 6.104,18.996 5.691,18.996 Z" id="Shape"></path>
                <path d="M12.441,5.496 C12.027,5.496 11.691,5.16 11.691,4.746 C11.691,4.332 12.027,3.996 12.441,3.996 L17.691,3.996 C18.105,3.996 18.441,4.332 18.441,4.746 C18.441,5.16 18.105,5.496 17.691,5.496 L12.441,5.496 Z" id="Path"></path>
                <path d="M12.441,9.996 C12.027,9.996 11.691,9.66 11.691,9.246 C11.691,8.832 12.027,8.496 12.441,8.496 L14.691,8.496 C15.105,8.496 15.441,8.832 15.441,9.246 C15.441,9.66 15.105,9.996 14.691,9.996 L12.441,9.996 Z" id="Path"></path>
                <path d="M12.441,14.496 C12.027,14.496 11.691,14.16 11.691,13.746 C11.691,13.332 12.027,12.996 12.441,12.996 L17.691,12.996 C18.105,12.996 18.441,13.332 18.441,13.746 C18.441,14.16 18.105,14.496 17.691,14.496 L12.441,14.496 Z" id="Path"></path>
            </g>
        </g>
    </g>
</svg>