<?xml version="1.0" encoding="UTF-8"?>
<svg width="22px" height="24px" viewBox="0 0 22 24" version="1.1" xmlns="http://www.w3.org/2000/svg" xmlns:xlink="http://www.w3.org/1999/xlink">
    <!-- Generator: Sketch 55.2 (78181) - https://sketchapp.com -->
    <title>dryer</title>
    <desc>Created with Sketch.</desc>
    <g id="Page-1" stroke="none" stroke-width="1" fill="none" fill-rule="evenodd">
        <g id="Artboard" transform="translate(-439.000000, -137.000000)" fill="#29304C" fill-rule="nonzero">
            <g id="dryer" transform="translate(439.000000, 137.000000)">
                <path d="M2.25,24 C1.285,24 0.5,23.215 0.5,22.25 L0.5,1.75 C0.5,0.785 1.285,0 2.25,0 L19.75,0 C20.715,0 21.5,0.785 21.5,1.75 L21.5,22.25 C21.5,23.215 20.715,24 19.75,24 L2.25,24 Z M2,22.25 C2,22.388 2.112,22.5 2.25,22.5 L19.75,22.5 C19.888,22.5 20,22.388 20,22.25 L20,7.5 L2,7.5 L2,22.25 Z M20,6 L20,1.75 C20,1.612 19.888,1.5 19.75,1.5 L9.5,1.5 L9.5,6 L20,6 Z M8,6 L8,1.5 L2.25,1.5 C2.112,1.5 2,1.612 2,1.75 L2,6 L8,6 Z" id="Shape"></path>
                <path d="M11,21 C8.201,21 5.804,19.101 5.162,16.379 C5.158,16.367 5.154,16.355 5.152,16.343 C5.149,16.332 5.147,16.316 5.145,16.301 C5.048,15.872 5,15.434 5,15 C5,11.692 7.692,9 11,9 C11.275,9 11.556,9.02 11.836,9.059 C11.841,9.059 11.879,9.065 11.881,9.066 C14.809,9.507 17,12.051 17,15 C17,16.44 16.479,17.833 15.534,18.924 C15.519,18.946 15.505,18.965 15.489,18.982 C15.479,18.993 15.46,19.011 15.445,19.025 C14.307,20.281 12.688,21 11,21 Z M6.843,16.723 C7.535,18.4 9.158,19.5 11,19.5 C12.032,19.5 13.018,19.148 13.817,18.503 L10.791,15.817 L6.843,16.723 Z M14.812,17.38 C15.263,16.664 15.5,15.849 15.5,15 C15.5,13.05 14.208,11.311 12.375,10.719 L11.8,14.707 L14.812,17.38 Z M10.892,10.501 C8.46,10.559 6.5,12.555 6.5,15 C6.5,15.084 6.503,15.17 6.509,15.26 L10.331,14.383 L10.892,10.501 Z" id="Shape"></path>
                <circle id="Oval" cx="12.875" cy="3.75" r="1.125"></circle>
                <circle id="Oval" cx="17.375" cy="3.75" r="1.125"></circle>
            </g>
        </g>
    </g>
</svg>