<svg width="24" height="24" viewBox="0 0 24 24" fill="none" xmlns="http://www.w3.org/2000/svg">
<path fill-rule="evenodd" clip-rule="evenodd" d="M21 15.0029H3L5.211 11.3636C7.09286 8.26684 10.5465 6.36273 14.281 6.36292H21V15.0029Z" stroke="#29304C" stroke-width="1.5" stroke-linecap="round" stroke-linejoin="round"/>
<path d="M21 6.36291V4.92291C21 3.33233 19.6569 2.04291 18 2.04291H12.75" stroke="#29304C" stroke-width="1.5" stroke-linecap="round" stroke-linejoin="round"/>
<path d="M16.5 4.92291V6.36291" stroke="#29304C" stroke-width="1.5" stroke-linecap="round" stroke-linejoin="round"/>
<path d="M4.75 12.1229H21" stroke="#29304C" stroke-width="1.5" stroke-linecap="round" stroke-linejoin="round"/>
<path d="M10.125 18.6029C10.3321 18.6029 10.5 18.7641 10.5 18.9629C10.5 19.1617 10.3321 19.3229 10.125 19.3229C9.91789 19.3229 9.75 19.1617 9.75 18.9629C9.75 18.7641 9.91789 18.6029 10.125 18.6029" stroke="#29304C" stroke-width="1.5" stroke-linecap="round" stroke-linejoin="round"/>
<path d="M7.87501 22.2029C8.02696 22.2029 8.16388 22.2909 8.22174 22.4258C8.27961 22.5607 8.24697 22.7157 8.1391 22.8185C8.03123 22.9212 7.86944 22.9513 7.72941 22.8947C7.58939 22.838 7.4988 22.7059 7.50001 22.56C7.50001 22.3612 7.66791 22.2 7.87501 22.2" stroke="#29304C" stroke-width="1.5" stroke-linecap="round" stroke-linejoin="round"/>
<path d="M12.375 22.2029C12.527 22.2029 12.6639 22.2909 12.7217 22.4258C12.7796 22.5607 12.747 22.7157 12.6391 22.8185C12.5312 22.9212 12.3694 22.9513 12.2294 22.8947C12.0894 22.838 11.9988 22.7059 12 22.56C12 22.3612 12.1679 22.2 12.375 22.2" stroke="#29304C" stroke-width="1.5" stroke-linecap="round" stroke-linejoin="round"/>
<path d="M14.625 18.6029C14.8321 18.6029 15 18.7641 15 18.9629C15 19.1617 14.8321 19.3229 14.625 19.3229C14.4179 19.3229 14.25 19.1617 14.25 18.9629C14.25 18.7641 14.4179 18.6029 14.625 18.6029" stroke="#29304C" stroke-width="1.5" stroke-linecap="round" stroke-linejoin="round"/>
<path d="M16.875 22.2029C17.0821 22.2029 17.25 22.3641 17.25 22.5629C17.25 22.7617 17.0821 22.9229 16.875 22.9229C16.6679 22.9229 16.5 22.7617 16.5 22.5629C16.5 22.3641 16.6679 22.2029 16.875 22.2029" stroke="#29304C" stroke-width="1.5" stroke-linecap="round" stroke-linejoin="round"/>
</svg>
