<?xml version="1.0" encoding="UTF-8"?>
<svg width="18px" height="24px" viewBox="0 0 18 24" version="1.1" xmlns="http://www.w3.org/2000/svg" xmlns:xlink="http://www.w3.org/1999/xlink">
    <!-- Generator: Sketch 55.2 (78181) - https://sketchapp.com -->
    <title>kitchen</title>
    <desc>Created with Sketch.</desc>
    <g id="Page-1" stroke="none" stroke-width="1" fill="none" fill-rule="evenodd">
        <g id="Artboard" transform="translate(-540.000000, -137.000000)" fill="#29304C" fill-rule="nonzero">
            <g id="kitchen" transform="translate(540.000000, 137.000000)">
                <path d="M3.75,24 C3.336,24 3,23.664 3,23.25 L3,11.171 C1.273,10.816 0.005,9.294 0,7.502 L0,0.75 C0,0.336 0.336,0 0.75,0 C1.164,0 1.5,0.336 1.5,0.75 L1.5,7.5 C1.503,8.455 2.123,9.299 3,9.615 L3,0.75 C3,0.336 3.336,0 3.75,0 C4.164,0 4.5,0.336 4.5,0.75 L4.5,9.615 C5.377,9.299 5.997,8.455 6,7.498 L6,0.75 C6,0.336 6.336,0 6.75,0 C7.164,0 7.5,0.336 7.5,0.75 L7.5,7.5 C7.495,9.294 6.227,10.817 4.5,11.171 L4.5,23.25 C4.5,23.664 4.164,24 3.75,24 Z" id="Path"></path>
                <path d="M14.25,24 C13.836,24 13.5,23.664 13.5,23.25 L13.5,11.25 L13.25,11.25 C11.734,11.25 10.5,10.016 10.5,8.5 L10.5,2.75 C10.5,1.234 11.734,0 13.25,0 L15.25,0 C16.766,0 18,1.234 18,2.75 L18,8.5 C18,10.016 16.766,11.25 15.25,11.25 L15,11.25 L15,23.25 C15,23.664 14.664,24 14.25,24 Z M13.25,1.5 C12.561,1.5 12,2.061 12,2.75 L12,8.5 C12,9.189 12.561,9.75 13.25,9.75 L15.25,9.75 C15.939,9.75 16.5,9.189 16.5,8.5 L16.5,2.75 C16.5,2.061 15.939,1.5 15.25,1.5 L13.25,1.5 Z" id="Shape"></path>
            </g>
        </g>
    </g>
</svg>