<?xml version="1.0" encoding="UTF-8"?>
<svg width="24px" height="20px" viewBox="0 0 24 20" version="1.1" xmlns="http://www.w3.org/2000/svg" xmlns:xlink="http://www.w3.org/1999/xlink">
    <!-- Generator: Sketch 55.2 (78181) - https://sketchapp.com -->
    <title>pets-in-house</title>
    <desc>Created with Sketch.</desc>
    <g id="Page-1" stroke="none" stroke-width="1" fill="none" fill-rule="evenodd">
        <g id="Artboard" transform="translate(-231.000000, -139.000000)" fill="#29304C" fill-rule="nonzero">
            <g id="pets-in-house" transform="translate(231.000000, 139.000000)">
                <path d="M15.251,19.75 C14.47,19.731 13.696,19.528 13.013,19.161 C12.555,18.923 12.034,18.796 11.51,18.796 C10.984,18.796 10.461,18.924 9.995,19.166 C9.321,19.529 8.552,19.732 7.776,19.75 C5.695,19.75 4.009,18.068 4.009,16 C4.009,14.179 5.301,12.645 7.061,12.315 C7.396,10.153 9.294,8.5 11.51,8.5 C13.726,8.5 15.624,10.153 15.958,12.315 C17.718,12.645 19.01,14.179 19.01,16 C19.01,18.068 17.328,19.75 15.26,19.75 C15.257,19.75 15.254,19.75 15.251,19.75 Z M11.511,17.296 C12.276,17.296 13.038,17.482 13.715,17.834 C14.198,18.094 14.737,18.237 15.277,18.25 C16.504,18.25 17.509,17.241 17.509,16 C17.509,14.759 16.5,13.75 15.259,13.75 C14.845,13.75 14.509,13.414 14.509,13 C14.509,11.346 13.163,10 11.509,10 C9.855,10 8.509,11.346 8.509,13 C8.509,13.414 8.173,13.75 7.759,13.75 C6.518,13.75 5.509,14.759 5.509,16 C5.509,17.241 6.518,18.25 7.759,18.25 C8.284,18.238 8.818,18.096 9.294,17.84 C9.979,17.483 10.744,17.296 11.511,17.296 Z" id="Shape"></path>
                <path d="M3.26,12.25 C1.606,12.25 0.26,10.904 0.26,9.25 C0.26,7.596 1.606,6.25 3.26,6.25 C4.914,6.25 6.26,7.596 6.26,9.25 C6.26,10.904 4.914,12.25 3.26,12.25 Z M3.26,7.75 C2.433,7.75 1.76,8.423 1.76,9.25 C1.76,10.077 2.433,10.75 3.26,10.75 C4.087,10.75 4.76,10.077 4.76,9.25 C4.76,8.423 4.087,7.75 3.26,7.75 Z" id="Shape"></path>
                <path d="M7.76,6.25 C6.106,6.25 4.76,4.904 4.76,3.25 C4.76,1.596 6.106,0.25 7.76,0.25 C9.414,0.25 10.76,1.596 10.76,3.25 C10.76,4.904 9.414,6.25 7.76,6.25 Z M7.76,1.75 C6.933,1.75 6.26,2.423 6.26,3.25 C6.26,4.077 6.933,4.75 7.76,4.75 C8.587,4.75 9.26,4.077 9.26,3.25 C9.26,2.423 8.587,1.75 7.76,1.75 Z" id="Shape"></path>
                <path d="M15.26,6.25 C13.606,6.25 12.26,4.904 12.26,3.25 C12.26,1.596 13.606,0.25 15.26,0.25 C16.914,0.25 18.26,1.596 18.26,3.25 C18.26,4.904 16.914,6.25 15.26,6.25 Z M15.26,1.75 C14.433,1.75 13.76,2.423 13.76,3.25 C13.76,4.077 14.433,4.75 15.26,4.75 C16.087,4.75 16.76,4.077 16.76,3.25 C16.76,2.423 16.087,1.75 15.26,1.75 Z" id="Shape"></path>
                <path d="M20.51,12.25 C18.856,12.25 17.51,10.904 17.51,9.25 C17.51,7.596 18.856,6.25 20.51,6.25 C22.164,6.25 23.51,7.596 23.51,9.25 C23.51,10.904 22.164,12.25 20.51,12.25 Z M20.51,7.75 C19.683,7.75 19.01,8.423 19.01,9.25 C19.01,10.077 19.683,10.75 20.51,10.75 C21.337,10.75 22.01,10.077 22.01,9.25 C22.01,8.423 21.337,7.75 20.51,7.75 Z" id="Shape"></path>
            </g>
        </g>
    </g>
</svg>