<?xml version="1.0" encoding="UTF-8"?>
<svg width="24px" height="21px" viewBox="0 0 24 21" version="1.1" xmlns="http://www.w3.org/2000/svg" xmlns:xlink="http://www.w3.org/1999/xlink">
    <!-- Generator: Sketch 55.2 (78181) - https://sketchapp.com -->
    <title>tv</title>
    <desc>Created with Sketch.</desc>
    <g id="Page-1" stroke="none" stroke-width="1" fill="none" fill-rule="evenodd">
        <g id="Artboard" transform="translate(-335.000000, -139.000000)" fill="#29304C" fill-rule="nonzero">
            <g id="tv" transform="translate(335.000000, 139.000000)">
                <path d="M7.5,20.375 C7.086,20.375 6.75,20.039 6.75,19.625 C6.75,19.211 7.086,18.875 7.5,18.875 L11.25,18.875 L11.25,16.625 L1.75,16.625 C0.785,16.625 0,15.84 0,14.875 L0,1.875 C0,0.91 0.785,0.125 1.75,0.125 L22.25,0.125 C23.215,0.125 24,0.91 24,1.875 L24,14.875 C24,15.84 23.215,16.625 22.25,16.625 L12.75,16.625 L12.75,18.875 L16.5,18.875 C16.914,18.875 17.25,19.211 17.25,19.625 C17.25,20.039 16.914,20.375 16.5,20.375 L7.5,20.375 Z M1.75,1.625 C1.612,1.625 1.5,1.737 1.5,1.875 L1.5,14.875 C1.5,15.013 1.612,15.125 1.75,15.125 L22.25,15.125 C22.388,15.125 22.5,15.013 22.5,14.875 L22.5,1.875 C22.5,1.737 22.388,1.625 22.25,1.625 L1.75,1.625 Z" id="Shape"></path>
            </g>
        </g>
    </g>
</svg>