<svg width="24" height="25" viewBox="0 0 24 25" fill="none" xmlns="http://www.w3.org/2000/svg">
<path fill-rule="evenodd" clip-rule="evenodd" d="M2.25 3.17999C2.25 2.35157 2.92157 1.67999 3.75 1.67999H20.25C21.0784 1.67999 21.75 2.35157 21.75 3.17999V21.78C21.75 22.6084 21.0784 23.28 20.25 23.28H3.75C2.92157 23.28 2.25 22.6084 2.25 21.78V3.17999Z" stroke="#29304C" stroke-width="1.5" stroke-linecap="round" stroke-linejoin="round"/>
<path d="M5.25 4.56H8.25" stroke="#29304C" stroke-width="1.5" stroke-linecap="round" stroke-linejoin="round"/>
<path d="M2.25 7.44H21.75" stroke="#29304C" stroke-width="1.5" stroke-linecap="round" stroke-linejoin="round"/>
<path fill-rule="evenodd" clip-rule="evenodd" d="M12 20.4C14.8995 20.4 17.25 18.1435 17.25 15.36C17.25 12.5765 14.8995 10.32 12 10.32C9.10051 10.32 6.75 12.5765 6.75 15.36C6.75 18.1435 9.10051 20.4 12 20.4Z" stroke="#29304C" stroke-width="1.5" stroke-linecap="round" stroke-linejoin="round"/>
<path d="M18 4.20001C18.2071 4.20001 18.375 4.36119 18.375 4.56001C18.375 4.75883 18.2071 4.92001 18 4.92001C17.7929 4.92001 17.625 4.75883 17.625 4.56001C17.625 4.36119 17.7929 4.20001 18 4.20001" stroke="#29304C" stroke-width="1.5" stroke-linecap="round" stroke-linejoin="round"/>
<path d="M13.5 4.20001C13.7071 4.20001 13.875 4.36119 13.875 4.56001C13.875 4.75883 13.7071 4.92001 13.5 4.92001C13.2929 4.92001 13.125 4.75883 13.125 4.56001C13.125 4.36119 13.2929 4.20001 13.5 4.20001" stroke="#29304C" stroke-width="1.5" stroke-linecap="round" stroke-linejoin="round"/>
<path d="M9.75 15.36C9.75 14.1671 10.7574 13.2 12 13.2" stroke="#29304C" stroke-width="1.5" stroke-linecap="round" stroke-linejoin="round"/>
</svg>
