<?xml version="1.0" encoding="UTF-8"?>
<svg width="22px" height="24px" viewBox="0 0 22 24" version="1.1" xmlns="http://www.w3.org/2000/svg" xmlns:xlink="http://www.w3.org/1999/xlink">
    <!-- Generator: Sketch 55.2 (78181) - https://sketchapp.com -->
    <title>washing-machine</title>
    <desc>Created with Sketch.</desc>
    <g id="Page-1" stroke="none" stroke-width="1" fill="none" fill-rule="evenodd">
        <g id="Artboard" transform="translate(-737.000000, -116.000000)" fill="#29304C" fill-rule="nonzero">
            <g id="washing-machine" transform="translate(737.000000, 116.000000)">
                <path d="M2.75,24 C1.509,24 0.5,22.991 0.5,21.75 L0.5,2.25 C0.5,1.009 1.509,0 2.75,0 L19.25,0 C20.491,0 21.5,1.009 21.5,2.25 L21.5,21.75 C21.5,22.991 20.491,24 19.25,24 L2.75,24 Z M2,21.75 C2,22.164 2.336,22.5 2.75,22.5 L19.25,22.5 C19.664,22.5 20,22.164 20,21.75 L20,7.5 L2,7.5 L2,21.75 Z M20,6 L20,2.25 C20,1.836 19.664,1.5 19.25,1.5 L2.75,1.5 C2.336,1.5 2,1.836 2,2.25 L2,6 L20,6 Z" id="Shape"></path>
                <path d="M4.25,4.5 C3.836,4.5 3.5,4.164 3.5,3.75 C3.5,3.336 3.836,3 4.25,3 L7.25,3 C7.664,3 8,3.336 8,3.75 C8,4.164 7.664,4.5 7.25,4.5 L4.25,4.5 Z" id="Path"></path>
                <path d="M11,21 C7.692,21 5,18.308 5,15 C5,11.692 7.692,9 11,9 C14.308,9 17,11.692 17,15 C17,18.308 14.308,21 11,21 Z M11,10.5 C8.519,10.5 6.5,12.519 6.5,15 C6.5,17.481 8.519,19.5 11,19.5 C13.481,19.5 15.5,17.481 15.5,15 C15.5,12.519 13.481,10.5 11,10.5 Z" id="Shape"></path>
                <circle id="Oval" cx="17" cy="3.75" r="1.125"></circle>
                <circle id="Oval" cx="12.5" cy="3.75" r="1.125"></circle>
                <path d="M8.75,15.75 C8.336,15.75 8,15.414 8,15 C8,13.346 9.346,12 11,12 C11.414,12 11.75,12.336 11.75,12.75 C11.75,13.164 11.414,13.5 11,13.5 C10.173,13.5 9.5,14.173 9.5,15 C9.5,15.414 9.164,15.75 8.75,15.75 Z" id="Path"></path>
            </g>
        </g>
    </g>
</svg>