<?xml version="1.0" encoding="UTF-8"?>
<svg width="24px" height="22px" viewBox="0 0 24 22" version="1.1" xmlns="http://www.w3.org/2000/svg" xmlns:xlink="http://www.w3.org/1999/xlink">
    <!-- Generator: Sketch 55.2 (78181) - https://sketchapp.com -->
    <title>wifi</title>
    <desc>Created with Sketch.</desc>
    <g id="Page-1" stroke="none" stroke-width="1" fill="none" fill-rule="evenodd">
        <g id="Artboard" transform="translate(-127.000000, -117.000000)" fill="#29304C" fill-rule="nonzero">
            <g id="wifi" transform="translate(127.000000, 117.000000)">
                <path d="M12,21.53 C9.932,21.53 8.25,19.848 8.25,17.78 C8.25,15.712 9.932,14.03 12,14.03 C14.068,14.03 15.75,15.712 15.75,17.78 C15.75,19.848 14.068,21.53 12,21.53 Z M12,15.53 C10.759,15.53 9.75,16.539 9.75,17.78 C9.75,19.021 10.759,20.03 12,20.03 C13.241,20.03 14.25,19.021 14.25,17.78 C14.25,16.539 13.241,15.53 12,15.53 Z" id="Shape"></path>
                <path d="M17.3,13.227 C17.1,13.227 16.911,13.149 16.77,13.007 C15.498,11.735 13.802,11.034 11.997,11.034 C10.192,11.034 8.497,11.735 7.224,13.007 C7.082,13.149 6.894,13.227 6.694,13.227 C6.494,13.227 6.305,13.149 6.164,13.007 C6.022,12.865 5.944,12.677 5.944,12.477 C5.944,12.277 6.022,12.088 6.164,11.947 C7.72,10.391 9.791,9.535 11.997,9.535 C14.203,9.535 16.275,10.392 17.83,11.947 C17.972,12.089 18.05,12.277 18.05,12.477 C18.05,12.677 17.972,12.866 17.83,13.007 C17.688,13.148 17.5,13.227 17.3,13.227 Z" id="Path"></path>
                <path d="M20.485,10.045 C20.285,10.045 20.096,9.967 19.955,9.825 C17.833,7.705 15.008,6.537 12,6.537 C8.992,6.537 6.167,7.705 4.045,9.826 C3.903,9.968 3.715,10.046 3.515,10.046 C3.315,10.046 3.126,9.968 2.985,9.826 C2.843,9.684 2.765,9.496 2.765,9.296 C2.765,9.096 2.843,8.907 2.985,8.766 C5.389,6.361 8.591,5.037 12,5.037 C15.409,5.037 18.611,6.361 21.015,8.765 C21.157,8.906 21.235,9.095 21.235,9.295 C21.235,9.495 21.157,9.684 21.015,9.825 C20.874,9.967 20.685,10.045 20.485,10.045 Z" id="Path"></path>
                <path d="M0.75,6.462 C0.543,6.462 0.343,6.375 0.201,6.223 C-0.081,5.921 -0.064,5.445 0.238,5.163 C3.429,2.19 7.606,0.552 12,0.552 C16.395,0.552 20.571,2.19 23.761,5.163 C24.063,5.445 24.08,5.92 23.799,6.223 C23.657,6.375 23.457,6.462 23.25,6.462 C23.06,6.462 22.878,6.39 22.739,6.261 C19.827,3.546 16.013,2.051 12,2.051 C7.987,2.051 4.173,3.546 1.261,6.26 C1.122,6.39 0.94,6.462 0.75,6.462 Z" id="Path"></path>
            </g>
        </g>
    </g>
</svg>